<ttFont>
    <TTGlyph name="A" xMin="-4" yMin="0" xMax="570" yMax="668">
      <contour>
        <pt x="570" y="0" on="1"/>
        <pt x="428" y="0" on="1"/>
        <pt x="381" y="158" on="1"/>
        <pt x="188" y="158" on="1"/>
        <pt x="142" y="0" on="1"/>
        <pt x="-4" y="0" on="1"/>
        <pt x="208" y="668" on="1"/>
        <pt x="361" y="668" on="1"/>
      </contour>
      <contour>
        <pt x="350" y="267" on="1"/>
        <pt x="284" y="530" on="1"/>
        <pt x="219" y="267" on="1"/>
      </contour>
    </TTGlyph>
    <TTGlyph name="AE" xMin="-7" yMin="-1" xMax="775" yMax="668">
      <contour>
        <pt x="361" y="267" on="1"/>
        <pt x="361" y="571" on="1"/>
        <pt x="244" y="267" on="1"/>
      </contour>
      <contour>
        <pt x="370" y="-1" on="1"/>
        <pt x="370" y="158" on="1"/>
        <pt x="201" y="158" on="1"/>
        <pt x="138" y="0" on="1"/>
        <pt x="-7" y="0" on="1"/>
        <pt x="281" y="668" on="1"/>
        <pt x="766" y="668" on="1"/>
        <pt x="766" y="552" on="1"/>
        <pt x="489" y="552" on="1"/>
        <pt x="489" y="401" on="1"/>
        <pt x="750" y="401" on="1"/>
        <pt x="750" y="289" on="1"/>
        <pt x="489" y="289" on="1"/>
        <pt x="489" y="115" on="1"/>
        <pt x="775" y="115" on="1"/>
        <pt x="775" y="-1" on="1"/>
      </contour>
    </TTGlyph>
    <TTGlyph name="Aacute" xMin="-4" yMin="0" xMax="570" yMax="922">
      <contour>
        <pt x="570" y="0" on="1"/>
        <pt x="428" y="0" on="1"/>
        <pt x="381" y="158" on="1"/>
        <pt x="188" y="158" on="1"/>
        <pt x="142" y="0" on="1"/>
        <pt x="-4" y="0" on="1"/>
        <pt x="208" y="668" on="1"/>
        <pt x="361" y="668" on="1"/>
      </contour>
      <contour>
        <pt x="350" y="267" on="1"/>
        <pt x="284" y="530" on="1"/>
        <pt x="219" y="267" on="1"/>
      </contour>
      <contour>
        <pt x="456" y="811" on="1"/>
        <pt x="252" y="735" on="1"/>
        <pt x="218" y="813" on="1"/>
        <pt x="407" y="922" on="1"/>
      </contour>
    </TTGlyph>
    <TTGlyph name="Acircumflex" xMin="-4" yMin="0" xMax="570" yMax="882">
      <contour>
        <pt x="570" y="0" on="1"/>
        <pt x="428" y="0" on="1"/>
        <pt x="381" y="158" on="1"/>
        <pt x="188" y="158" on="1"/>
        <pt x="142" y="0" on="1"/>
        <pt x="-4" y="0" on="1"/>
        <pt x="208" y="668" on="1"/>
        <pt x="361" y="668" on="1"/>
      </contour>
      <contour>
        <pt x="350" y="267" on="1"/>
        <pt x="284" y="530" on="1"/>
        <pt x="219" y="267" on="1"/>
      </contour>
      <contour>
        <pt x="285" y="796" on="1"/>
        <pt x="201" y="711" on="1"/>
        <pt x="137" y="763" on="1"/>
        <pt x="248" y="882" on="1"/>
        <pt x="322" y="882" on="1"/>
        <pt x="433" y="763" on="1"/>
        <pt x="369" y="711" on="1"/>
      </contour>
    </TTGlyph>
    <TTGlyph name="Adieresis" xMin="-4" yMin="0" xMax="570" yMax="854">
      <contour>
        <pt x="570" y="0" on="1"/>
        <pt x="428" y="0" on="1"/>
        <pt x="381" y="158" on="1"/>
        <pt x="188" y="158" on="1"/>
        <pt x="142" y="0" on="1"/>
        <pt x="-4" y="0" on="1"/>
        <pt x="208" y="668" on="1"/>
        <pt x="361" y="668" on="1"/>
      </contour>
      <contour>
        <pt x="350" y="267" on="1"/>
        <pt x="284" y="530" on="1"/>
        <pt x="219" y="267" on="1"/>
      </contour>
      <contour>
        <pt x="124" y="814" on="0"/>
        <pt x="163" y="854" on="0"/>
        <pt x="222" y="854" on="0"/>
        <pt x="262" y="814" on="0"/>
        <pt x="262" y="756" on="0"/>
        <pt x="222" y="715" on="0"/>
        <pt x="163" y="715" on="0"/>
        <pt x="124" y="756" on="0"/>
      </contour>
      <contour>
        <pt x="308" y="814" on="0"/>
        <pt x="348" y="854" on="0"/>
        <pt x="406" y="854" on="0"/>
        <pt x="446" y="814" on="0"/>
        <pt x="446" y="756" on="0"/>
        <pt x="406" y="715" on="0"/>
        <pt x="348" y="715" on="0"/>
        <pt x="308" y="756" on="0"/>
      </contour>
    </TTGlyph>
    <TTGlyph name="Agrave" xMin="-4" yMin="0" xMax="570" yMax="919">
      <contour>
        <pt x="357" y="732" on="1"/>
        <pt x="153" y="808" on="1"/>
        <pt x="202" y="919" on="1"/>
        <pt x="391" y="810" on="1"/>
      </contour>
      <contour>
        <pt x="570" y="0" on="1"/>
        <pt x="428" y="0" on="1"/>
        <pt x="381" y="158" on="1"/>
        <pt x="188" y="158" on="1"/>
        <pt x="142" y="0" on="1"/>
        <pt x="-4" y="0" on="1"/>
        <pt x="208" y="668" on="1"/>
        <pt x="361" y="668" on="1"/>
      </contour>
      <contour>
        <pt x="350" y="267" on="1"/>
        <pt x="284" y="530" on="1"/>
        <pt x="219" y="267" on="1"/>
      </contour>
    </TTGlyph>
    <TTGlyph name="Aring" xMin="-4" yMin="0" xMax="570" yMax="917">
      <contour>
        <pt x="387" y="859" on="0"/>
        <pt x="387" y="773" on="0"/>
        <pt x="333" y="712" on="0"/>
        <pt x="233" y="712" on="0"/>
        <pt x="181" y="772" on="0"/>
        <pt x="181" y="858" on="0"/>
        <pt x="234" y="917" on="0"/>
        <pt x="334" y="917" on="0"/>
      </contour>
      <contour>
        <pt x="284" y="775" on="1"/>
        <pt x="320" y="775" on="0"/>
        <pt x="320" y="853" on="0"/>
        <pt x="249" y="853" on="0"/>
        <pt x="249" y="814" on="1"/>
        <pt x="249" y="798" on="0"/>
        <pt x="266" y="775" on="0"/>
      </contour>
      <contour>
        <pt x="570" y="0" on="1"/>
        <pt x="428" y="0" on="1"/>
        <pt x="381" y="158" on="1"/>
        <pt x="188" y="158" on="1"/>
        <pt x="142" y="0" on="1"/>
        <pt x="-4" y="0" on="1"/>
        <pt x="208" y="668" on="1"/>
        <pt x="361" y="668" on="1"/>
      </contour>
      <contour>
        <pt x="350" y="267" on="1"/>
        <pt x="284" y="530" on="1"/>
        <pt x="219" y="267" on="1"/>
      </contour>
    </TTGlyph>
    <TTGlyph name="Atilde" xMin="-4" yMin="0" xMax="570" yMax="871">
      <contour>
        <pt x="570" y="0" on="1"/>
        <pt x="428" y="0" on="1"/>
        <pt x="381" y="158" on="1"/>
        <pt x="188" y="158" on="1"/>
        <pt x="142" y="0" on="1"/>
        <pt x="-4" y="0" on="1"/>
        <pt x="208" y="668" on="1"/>
        <pt x="361" y="668" on="1"/>
      </contour>
      <contour>
        <pt x="350" y="267" on="1"/>
        <pt x="284" y="530" on="1"/>
        <pt x="219" y="267" on="1"/>
      </contour>
      <contour>
        <pt x="244" y="871" on="0"/>
        <pt x="334" y="828" on="0"/>
        <pt x="379" y="828" on="0"/>
        <pt x="408" y="863" on="1"/>
        <pt x="457" y="809" on="1"/>
        <pt x="439" y="779" on="0"/>
        <pt x="378" y="734" on="0"/>
        <pt x="323" y="734" on="0"/>
        <pt x="235" y="777" on="0"/>
        <pt x="190" y="777" on="0"/>
        <pt x="161" y="742" on="1"/>
        <pt x="112" y="796" on="1"/>
        <pt x="130" y="826" on="0"/>
        <pt x="189" y="871" on="0"/>
      </contour>
    </TTGlyph>
    <TTGlyph name="B" xMin="64" yMin="0" xMax="516" yMax="668">
      <contour>
        <pt x="410" y="632" on="1"/>
        <pt x="478" y="588" on="0"/>
        <pt x="478" y="406" on="0"/>
        <pt x="413" y="366" on="1"/>
        <pt x="471" y="340" on="0"/>
        <pt x="516" y="265" on="0"/>
        <pt x="516" y="204" on="1"/>
        <pt x="516" y="109" on="0"/>
        <pt x="401" y="0" on="0"/>
        <pt x="284" y="0" on="1"/>
        <pt x="64" y="0" on="1"/>
        <pt x="64" y="668" on="1"/>
        <pt x="210" y="668" on="1"/>
        <pt x="287" y="668" on="0"/>
        <pt x="375" y="655" on="0"/>
      </contour>
      <contour>
        <pt x="207" y="562" on="1"/>
        <pt x="207" y="409" on="1"/>
        <pt x="274" y="409" on="1"/>
        <pt x="339" y="414" on="0"/>
        <pt x="339" y="490" on="1"/>
        <pt x="339" y="546" on="0"/>
        <pt x="295" y="557" on="1"/>
        <pt x="275" y="562" on="0"/>
        <pt x="228" y="562" on="1"/>
      </contour>
      <contour>
        <pt x="267" y="114" on="1"/>
        <pt x="377" y="114" on="0"/>
        <pt x="377" y="208" on="1"/>
        <pt x="377" y="263" on="0"/>
        <pt x="314" y="304" on="0"/>
        <pt x="255" y="304" on="1"/>
        <pt x="207" y="304" on="1"/>
        <pt x="207" y="114" on="1"/>
      </contour>
    </TTGlyph>
    <TTGlyph name="C" xMin="39" yMin="-13" xMax="490" yMax="679">
      <contour>
        <pt x="483" y="5" on="1"/>
        <pt x="404" y="-13" on="0"/>
        <pt x="269" y="-13" on="0"/>
        <pt x="170" y="22" on="0"/>
        <pt x="128" y="61" on="1"/>
        <pt x="39" y="144" on="0"/>
        <pt x="39" y="336" on="1"/>
        <pt x="39" y="431" on="0"/>
        <pt x="91" y="570" on="0"/>
        <pt x="136" y="608" on="1"/>
        <pt x="220" y="679" on="0"/>
        <pt x="339" y="679" on="1"/>
        <pt x="414" y="679" on="0"/>
        <pt x="490" y="657" on="1"/>
        <pt x="467" y="554" on="1"/>
        <pt x="410" y="565" on="0"/>
        <pt x="361" y="565" on="1"/>
        <pt x="280" y="565" on="0"/>
        <pt x="186" y="464" on="0"/>
        <pt x="186" y="211" on="0"/>
        <pt x="282" y="106" on="0"/>
        <pt x="367" y="106" on="1"/>
        <pt x="426" y="106" on="0"/>
        <pt x="474" y="114" on="1"/>
      </contour>
    </TTGlyph>
    <TTGlyph name="Ccedilla" xMin="39" yMin="-295" xMax="490" yMax="679">
      <contour>
        <pt x="483" y="5" on="1"/>
        <pt x="404" y="-13" on="0"/>
        <pt x="269" y="-13" on="0"/>
        <pt x="170" y="22" on="0"/>
        <pt x="128" y="61" on="1"/>
        <pt x="39" y="144" on="0"/>
        <pt x="39" y="336" on="1"/>
        <pt x="39" y="431" on="0"/>
        <pt x="91" y="570" on="0"/>
        <pt x="136" y="608" on="1"/>
        <pt x="220" y="679" on="0"/>
        <pt x="339" y="679" on="1"/>
        <pt x="414" y="679" on="0"/>
        <pt x="490" y="657" on="1"/>
        <pt x="467" y="554" on="1"/>
        <pt x="410" y="565" on="0"/>
        <pt x="361" y="565" on="1"/>
        <pt x="280" y="565" on="0"/>
        <pt x="186" y="464" on="0"/>
        <pt x="186" y="211" on="0"/>
        <pt x="282" y="106" on="0"/>
        <pt x="367" y="106" on="1"/>
        <pt x="426" y="106" on="0"/>
        <pt x="474" y="114" on="1"/>
      </contour>
      <contour>
        <pt x="424" y="-133" on="1"/>
        <pt x="424" y="-230" on="0"/>
        <pt x="296" y="-295" on="1"/>
        <pt x="245" y="-230" on="1"/>
        <pt x="303" y="-187" on="0"/>
        <pt x="303" y="-139" on="1"/>
        <pt x="303" y="-111" on="0"/>
        <pt x="282" y="-57" on="1"/>
        <pt x="406" y="-57" on="1"/>
        <pt x="424" y="-96" on="0"/>
      </contour>
    </TTGlyph>
    <TTGlyph name="D" xMin="64" yMin="0" xMax="560" yMax="667">
      <contour>
        <pt x="208" y="538" on="1"/>
        <pt x="208" y="129" on="1"/>
        <pt x="258" y="129" on="1"/>
        <pt x="353" y="129" on="0"/>
        <pt x="418" y="228" on="0"/>
        <pt x="418" y="440" on="0"/>
        <pt x="354" y="538" on="0"/>
        <pt x="258" y="538" on="1"/>
      </contour>
      <contour>
        <pt x="252" y="0" on="1"/>
        <pt x="64" y="0" on="1"/>
        <pt x="64" y="667" on="1"/>
        <pt x="252" y="667" on="1"/>
        <pt x="378" y="667" on="0"/>
        <pt x="428" y="641" on="1"/>
        <pt x="560" y="573" on="0"/>
        <pt x="560" y="333" on="1"/>
        <pt x="560" y="225" on="0"/>
        <pt x="497" y="61" on="0"/>
        <pt x="429" y="27" on="1"/>
        <pt x="375" y="0" on="0"/>
      </contour>
    </TTGlyph>
    <TTGlyph name="E" xMin="64" yMin="0" xMax="494" yMax="669">
      <contour>
        <pt x="208" y="116" on="1"/>
        <pt x="494" y="116" on="1"/>
        <pt x="494" y="0" on="1"/>
        <pt x="64" y="0" on="1"/>
        <pt x="64" y="669" on="1"/>
        <pt x="485" y="669" on="1"/>
        <pt x="485" y="553" on="1"/>
        <pt x="208" y="553" on="1"/>
        <pt x="208" y="402" on="1"/>
        <pt x="469" y="402" on="1"/>
        <pt x="469" y="290" on="1"/>
        <pt x="208" y="290" on="1"/>
      </contour>
    </TTGlyph>
    <TTGlyph name="Eacute" xMin="64" yMin="0" xMax="494" yMax="922">
      <contour>
        <pt x="208" y="116" on="1"/>
        <pt x="494" y="116" on="1"/>
        <pt x="494" y="0" on="1"/>
        <pt x="64" y="0" on="1"/>
        <pt x="64" y="669" on="1"/>
        <pt x="485" y="669" on="1"/>
        <pt x="485" y="553" on="1"/>
        <pt x="208" y="553" on="1"/>
        <pt x="208" y="402" on="1"/>
        <pt x="469" y="402" on="1"/>
        <pt x="469" y="290" on="1"/>
        <pt x="208" y="290" on="1"/>
      </contour>
      <contour>
        <pt x="382" y="811" on="1"/>
        <pt x="178" y="735" on="1"/>
        <pt x="144" y="813" on="1"/>
        <pt x="333" y="922" on="1"/>
      </contour>
    </TTGlyph>
    <TTGlyph name="Ecircumflex" xMin="64" yMin="0" xMax="494" yMax="882">
      <contour>
        <pt x="208" y="116" on="1"/>
        <pt x="494" y="116" on="1"/>
        <pt x="494" y="0" on="1"/>
        <pt x="64" y="0" on="1"/>
        <pt x="64" y="669" on="1"/>
        <pt x="485" y="669" on="1"/>
        <pt x="485" y="553" on="1"/>
        <pt x="208" y="553" on="1"/>
        <pt x="208" y="402" on="1"/>
        <pt x="469" y="402" on="1"/>
        <pt x="469" y="290" on="1"/>
        <pt x="208" y="290" on="1"/>
      </contour>
      <contour>
        <pt x="256" y="796" on="1"/>
        <pt x="172" y="711" on="1"/>
        <pt x="108" y="763" on="1"/>
        <pt x="219" y="882" on="1"/>
        <pt x="293" y="882" on="1"/>
        <pt x="404" y="763" on="1"/>
        <pt x="340" y="711" on="1"/>
      </contour>
    </TTGlyph>
    <TTGlyph name="Edieresis" xMin="64" yMin="0" xMax="494" yMax="854">
      <contour>
        <pt x="208" y="116" on="1"/>
        <pt x="494" y="116" on="1"/>
        <pt x="494" y="0" on="1"/>
        <pt x="64" y="0" on="1"/>
        <pt x="64" y="669" on="1"/>
        <pt x="485" y="669" on="1"/>
        <pt x="485" y="553" on="1"/>
        <pt x="208" y="553" on="1"/>
        <pt x="208" y="402" on="1"/>
        <pt x="469" y="402" on="1"/>
        <pt x="469" y="290" on="1"/>
        <pt x="208" y="290" on="1"/>
      </contour>
      <contour>
        <pt x="107" y="814" on="0"/>
        <pt x="146" y="854" on="0"/>
        <pt x="205" y="854" on="0"/>
        <pt x="245" y="814" on="0"/>
        <pt x="245" y="756" on="0"/>
        <pt x="205" y="715" on="0"/>
        <pt x="146" y="715" on="0"/>
        <pt x="107" y="756" on="0"/>
      </contour>
      <contour>
        <pt x="291" y="814" on="0"/>
        <pt x="331" y="854" on="0"/>
        <pt x="389" y="854" on="0"/>
        <pt x="429" y="814" on="0"/>
        <pt x="429" y="756" on="0"/>
        <pt x="389" y="715" on="0"/>
        <pt x="331" y="715" on="0"/>
        <pt x="291" y="756" on="0"/>
      </contour>
    </TTGlyph>
    <TTGlyph name="Egrave" xMin="64" yMin="0" xMax="494" yMax="919">
      <contour>
        <pt x="208" y="116" on="1"/>
        <pt x="494" y="116" on="1"/>
        <pt x="494" y="0" on="1"/>
        <pt x="64" y="0" on="1"/>
        <pt x="64" y="669" on="1"/>
        <pt x="485" y="669" on="1"/>
        <pt x="485" y="553" on="1"/>
        <pt x="208" y="553" on="1"/>
        <pt x="208" y="402" on="1"/>
        <pt x="469" y="402" on="1"/>
        <pt x="469" y="290" on="1"/>
        <pt x="208" y="290" on="1"/>
      </contour>
      <contour>
        <pt x="354" y="732" on="1"/>
        <pt x="150" y="808" on="1"/>
        <pt x="199" y="919" on="1"/>
        <pt x="388" y="810" on="1"/>
      </contour>
    </TTGlyph>
    <TTGlyph name="Eth" xMin="21" yMin="0" xMax="612" yMax="667">
      <contour>
        <pt x="21" y="280" on="1"/>
        <pt x="21" y="392" on="1"/>
        <pt x="116" y="392" on="1"/>
        <pt x="116" y="667" on="1"/>
        <pt x="304" y="667" on="1"/>
        <pt x="430" y="667" on="0"/>
        <pt x="480" y="641" on="1"/>
        <pt x="612" y="573" on="0"/>
        <pt x="612" y="333" on="1"/>
        <pt x="612" y="225" on="0"/>
        <pt x="549" y="61" on="0"/>
        <pt x="481" y="27" on="1"/>
        <pt x="427" y="0" on="0"/>
        <pt x="304" y="0" on="1"/>
        <pt x="116" y="0" on="1"/>
        <pt x="116" y="280" on="1"/>
      </contour>
      <contour>
        <pt x="260" y="538" on="1"/>
        <pt x="260" y="392" on="1"/>
        <pt x="375" y="392" on="1"/>
        <pt x="375" y="280" on="1"/>
        <pt x="260" y="280" on="1"/>
        <pt x="260" y="129" on="1"/>
        <pt x="310" y="129" on="1"/>
        <pt x="405" y="129" on="0"/>
        <pt x="470" y="228" on="0"/>
        <pt x="470" y="440" on="0"/>
        <pt x="406" y="538" on="0"/>
        <pt x="310" y="538" on="1"/>
      </contour>
    </TTGlyph>
    <TTGlyph name="Euro" xMin="33" yMin="-13" xMax="551" yMax="679">
      <contour>
        <pt x="407" y="451" on="1"/>
        <pt x="407" y="377" on="1"/>
        <pt x="248" y="377" on="1"/>
        <pt x="247" y="365" on="0"/>
        <pt x="247" y="313" on="0"/>
        <pt x="248" y="301" on="1"/>
        <pt x="407" y="301" on="1"/>
        <pt x="407" y="227" on="1"/>
        <pt x="260" y="227" on="1"/>
        <pt x="296" y="106" on="0"/>
        <pt x="428" y="106" on="1"/>
        <pt x="487" y="106" on="0"/>
        <pt x="535" y="114" on="1"/>
        <pt x="544" y="5" on="1"/>
        <pt x="465" y="-13" on="0"/>
        <pt x="390" y="-13" on="1"/>
        <pt x="284" y="-13" on="0"/>
        <pt x="133" y="100" on="0"/>
        <pt x="109" y="227" on="1"/>
        <pt x="33" y="227" on="1"/>
        <pt x="33" y="301" on="1"/>
        <pt x="101" y="301" on="1"/>
        <pt x="100" y="312" on="0"/>
        <pt x="100" y="364" on="0"/>
        <pt x="101" y="377" on="1"/>
        <pt x="33" y="377" on="1"/>
        <pt x="33" y="451" on="1"/>
        <pt x="112" y="451" on="1"/>
        <pt x="130" y="533" on="0"/>
        <pt x="224" y="639" on="0"/>
        <pt x="334" y="679" on="0"/>
        <pt x="475" y="679" on="0"/>
        <pt x="551" y="657" on="1"/>
        <pt x="528" y="554" on="1"/>
        <pt x="471" y="565" on="0"/>
        <pt x="422" y="565" on="1"/>
        <pt x="295" y="565" on="0"/>
        <pt x="261" y="451" on="1"/>
      </contour>
    </TTGlyph>
    <TTGlyph name="F" xMin="64" yMin="0" xMax="485" yMax="668">
      <contour>
        <pt x="485" y="553" on="1"/>
        <pt x="209" y="553" on="1"/>
        <pt x="209" y="402" on="1"/>
        <pt x="461" y="402" on="1"/>
        <pt x="461" y="290" on="1"/>
        <pt x="209" y="290" on="1"/>
        <pt x="209" y="0" on="1"/>
        <pt x="64" y="0" on="1"/>
        <pt x="64" y="668" on="1"/>
        <pt x="485" y="668" on="1"/>
      </contour>
    </TTGlyph>
    <TTGlyph name="G" xMin="38" yMin="-13" xMax="536" yMax="679">
      <contour>
        <pt x="179" y="645" on="0"/>
        <pt x="280" y="679" on="0"/>
        <pt x="418" y="679" on="0"/>
        <pt x="513" y="653" on="1"/>
        <pt x="492" y="549" on="1"/>
        <pt x="425" y="565" on="0"/>
        <pt x="279" y="565" on="0"/>
        <pt x="185" y="464" on="0"/>
        <pt x="185" y="339" on="1"/>
        <pt x="185" y="106" on="0"/>
        <pt x="340" y="106" on="1"/>
        <pt x="371" y="106" on="0"/>
        <pt x="405" y="112" on="1"/>
        <pt x="405" y="236" on="1"/>
        <pt x="311" y="236" on="1"/>
        <pt x="311" y="341" on="1"/>
        <pt x="536" y="341" on="1"/>
        <pt x="536" y="31" on="1"/>
        <pt x="426" y="-13" on="0"/>
        <pt x="198" y="-13" on="0"/>
        <pt x="42" y="154" on="0"/>
        <pt x="38" y="336" on="1"/>
        <pt x="38" y="431" on="0"/>
        <pt x="90" y="570" on="0"/>
      </contour>
    </TTGlyph>
    <TTGlyph name="H" xMin="64" yMin="0" xMax="569" yMax="668">
      <contour>
        <pt x="426" y="404" on="1"/>
        <pt x="426" y="668" on="1"/>
        <pt x="569" y="668" on="1"/>
        <pt x="569" y="0" on="1"/>
        <pt x="426" y="0" on="1"/>
        <pt x="426" y="288" on="1"/>
        <pt x="207" y="288" on="1"/>
        <pt x="207" y="0" on="1"/>
        <pt x="64" y="0" on="1"/>
        <pt x="64" y="668" on="1"/>
        <pt x="207" y="668" on="1"/>
        <pt x="207" y="404" on="1"/>
      </contour>
    </TTGlyph>
    <TTGlyph name="I" xMin="64" yMin="0" xMax="208" yMax="668">
      <contour>
        <pt x="208" y="668" on="1"/>
        <pt x="208" y="0" on="1"/>
        <pt x="64" y="0" on="1"/>
        <pt x="64" y="668" on="1"/>
      </contour>
    </TTGlyph>
    <TTGlyph name="Iacute" xMin="47" yMin="0" xMax="285" yMax="922">
      <contour>
        <pt x="208" y="668" on="1"/>
        <pt x="208" y="0" on="1"/>
        <pt x="64" y="0" on="1"/>
        <pt x="64" y="668" on="1"/>
      </contour>
      <contour>
        <pt x="285" y="811" on="1"/>
        <pt x="81" y="735" on="1"/>
        <pt x="47" y="813" on="1"/>
        <pt x="236" y="922" on="1"/>
      </contour>
    </TTGlyph>
    <TTGlyph name="Icircumflex" xMin="-16" yMin="0" xMax="280" yMax="882">
      <contour>
        <pt x="208" y="668" on="1"/>
        <pt x="208" y="0" on="1"/>
        <pt x="64" y="0" on="1"/>
        <pt x="64" y="668" on="1"/>
      </contour>
      <contour>
        <pt x="132" y="796" on="1"/>
        <pt x="48" y="711" on="1"/>
        <pt x="-16" y="763" on="1"/>
        <pt x="95" y="882" on="1"/>
        <pt x="169" y="882" on="1"/>
        <pt x="280" y="763" on="1"/>
        <pt x="216" y="711" on="1"/>
      </contour>
    </TTGlyph>
    <TTGlyph name="Idieresis" xMin="-35" yMin="0" xMax="287" yMax="854">
      <contour>
        <pt x="208" y="668" on="1"/>
        <pt x="208" y="0" on="1"/>
        <pt x="64" y="0" on="1"/>
        <pt x="64" y="668" on="1"/>
      </contour>
      <contour>
        <pt x="-35" y="814" on="0"/>
        <pt x="4" y="854" on="0"/>
        <pt x="63" y="854" on="0"/>
        <pt x="103" y="814" on="0"/>
        <pt x="103" y="756" on="0"/>
        <pt x="63" y="715" on="0"/>
        <pt x="4" y="715" on="0"/>
        <pt x="-35" y="756" on="0"/>
      </contour>
      <contour>
        <pt x="149" y="814" on="0"/>
        <pt x="189" y="854" on="0"/>
        <pt x="247" y="854" on="0"/>
        <pt x="287" y="814" on="0"/>
        <pt x="287" y="756" on="0"/>
        <pt x="247" y="715" on="0"/>
        <pt x="189" y="715" on="0"/>
        <pt x="149" y="756" on="0"/>
      </contour>
    </TTGlyph>
    <TTGlyph name="Igrave" xMin="-22" yMin="0" xMax="216" yMax="919">
      <contour>
        <pt x="208" y="668" on="1"/>
        <pt x="208" y="0" on="1"/>
        <pt x="64" y="0" on="1"/>
        <pt x="64" y="668" on="1"/>
      </contour>
      <contour>
        <pt x="182" y="732" on="1"/>
        <pt x="-22" y="808" on="1"/>
        <pt x="27" y="919" on="1"/>
        <pt x="216" y="810" on="1"/>
      </contour>
    </TTGlyph>
    <TTGlyph name="J" xMin="-58" yMin="-186" xMax="208" yMax="668">
      <contour>
        <pt x="65" y="121" on="1"/>
        <pt x="65" y="668" on="1"/>
        <pt x="208" y="668" on="1"/>
        <pt x="208" y="123" on="1"/>
        <pt x="208" y="14" on="0"/>
        <pt x="117" y="-135" on="0"/>
        <pt x="4" y="-186" on="1"/>
        <pt x="-58" y="-91" on="1"/>
        <pt x="17" y="-49" on="0"/>
        <pt x="65" y="41" on="0"/>
      </contour>
    </TTGlyph>
    <TTGlyph name="K" xMin="64" yMin="0" xMax="638" yMax="668">
      <contour>
        <pt x="230" y="341" on="1"/>
        <pt x="424" y="668" on="1"/>
        <pt x="594" y="668" on="1"/>
        <pt x="387" y="346" on="1"/>
        <pt x="638" y="0" on="1"/>
        <pt x="463" y="0" on="1"/>
      </contour>
      <contour>
        <pt x="208" y="668" on="1"/>
        <pt x="208" y="0" on="1"/>
        <pt x="64" y="0" on="1"/>
        <pt x="64" y="668" on="1"/>
      </contour>
    </TTGlyph>
    <TTGlyph name="L" xMin="64" yMin="0" xMax="464" yMax="668">
      <contour>
        <pt x="209" y="116" on="1"/>
        <pt x="464" y="116" on="1"/>
        <pt x="464" y="0" on="1"/>
        <pt x="64" y="0" on="1"/>
        <pt x="64" y="668" on="1"/>
        <pt x="209" y="668" on="1"/>
      </contour>
    </TTGlyph>
    <TTGlyph name="Lslash" xMin="17" yMin="0" xMax="506" yMax="668">
      <contour>
        <pt x="419" y="383" on="1"/>
        <pt x="419" y="274" on="1"/>
        <pt x="251" y="274" on="1"/>
        <pt x="251" y="116" on="1"/>
        <pt x="506" y="116" on="1"/>
        <pt x="506" y="0" on="1"/>
        <pt x="106" y="0" on="1"/>
        <pt x="106" y="274" on="1"/>
        <pt x="17" y="274" on="1"/>
        <pt x="17" y="383" on="1"/>
        <pt x="106" y="383" on="1"/>
        <pt x="106" y="668" on="1"/>
        <pt x="251" y="668" on="1"/>
        <pt x="251" y="383" on="1"/>
      </contour>
    </TTGlyph>
    <TTGlyph name="M" xMin="46" yMin="0" xMax="725" yMax="668">
      <contour>
        <pt x="438" y="85" on="1"/>
        <pt x="333" y="85" on="1"/>
        <pt x="195" y="479" on="1"/>
        <pt x="179" y="0" on="1"/>
        <pt x="46" y="0" on="1"/>
        <pt x="85" y="668" on="1"/>
        <pt x="241" y="668" on="1"/>
        <pt x="385" y="238" on="1"/>
        <pt x="530" y="668" on="1"/>
        <pt x="686" y="668" on="1"/>
        <pt x="725" y="0" on="1"/>
        <pt x="591" y="0" on="1"/>
        <pt x="575" y="478" on="1"/>
      </contour>
    </TTGlyph>
    <TTGlyph name="N" xMin="64" yMin="0" xMax="618" yMax="668">
      <contour>
        <pt x="618" y="0" on="1"/>
        <pt x="466" y="0" on="1"/>
        <pt x="203" y="467" on="1"/>
        <pt x="203" y="0" on="1"/>
        <pt x="64" y="0" on="1"/>
        <pt x="64" y="668" on="1"/>
        <pt x="216" y="668" on="1"/>
        <pt x="478" y="200" on="1"/>
        <pt x="478" y="668" on="1"/>
        <pt x="618" y="668" on="1"/>
      </contour>
    </TTGlyph>
    <TTGlyph name="Ntilde" xMin="64" yMin="0" xMax="618" yMax="871">
      <contour>
        <pt x="618" y="0" on="1"/>
        <pt x="466" y="0" on="1"/>
        <pt x="203" y="467" on="1"/>
        <pt x="203" y="0" on="1"/>
        <pt x="64" y="0" on="1"/>
        <pt x="64" y="668" on="1"/>
        <pt x="216" y="668" on="1"/>
        <pt x="478" y="200" on="1"/>
        <pt x="478" y="668" on="1"/>
        <pt x="618" y="668" on="1"/>
      </contour>
      <contour>
        <pt x="290" y="871" on="0"/>
        <pt x="380" y="828" on="0"/>
        <pt x="425" y="828" on="0"/>
        <pt x="454" y="863" on="1"/>
        <pt x="503" y="809" on="1"/>
        <pt x="485" y="779" on="0"/>
        <pt x="424" y="734" on="0"/>
        <pt x="369" y="734" on="0"/>
        <pt x="281" y="777" on="0"/>
        <pt x="236" y="777" on="0"/>
        <pt x="207" y="742" on="1"/>
        <pt x="158" y="796" on="1"/>
        <pt x="176" y="826" on="0"/>
        <pt x="235" y="871" on="0"/>
      </contour>
    </TTGlyph>
    <TTGlyph name="O" xMin="39" yMin="-12" xMax="579" yMax="680">
      <contour>
        <pt x="127" y="623" on="0"/>
        <pt x="236" y="680" on="0"/>
        <pt x="370" y="680" on="0"/>
        <pt x="465" y="641" on="0"/>
        <pt x="525" y="577" on="0"/>
        <pt x="544" y="532" on="1"/>
        <pt x="579" y="448" on="0"/>
        <pt x="579" y="334" on="1"/>
        <pt x="579" y="192" on="0"/>
        <pt x="522" y="96" on="1"/>
        <pt x="492" y="46" on="0"/>
        <pt x="382" y="-12" on="0"/>
        <pt x="247" y="-12" on="0"/>
        <pt x="153" y="27" on="0"/>
        <pt x="93" y="91" on="0"/>
        <pt x="74" y="136" on="1"/>
        <pt x="39" y="220" on="0"/>
        <pt x="39" y="334" on="1"/>
        <pt x="39" y="475" on="0"/>
        <pt x="97" y="572" on="1"/>
      </contour>
      <contour>
        <pt x="236" y="110" on="0"/>
        <pt x="382" y="110" on="0"/>
        <pt x="440" y="229" on="0"/>
        <pt x="440" y="403" on="0"/>
        <pt x="420" y="498" on="0"/>
        <pt x="360" y="563" on="0"/>
        <pt x="271" y="563" on="0"/>
        <pt x="218" y="528" on="0"/>
        <pt x="204" y="495" on="1"/>
        <pt x="178" y="434" on="0"/>
        <pt x="178" y="229" on="0"/>
      </contour>
    </TTGlyph>
    <TTGlyph name="OE" xMin="39" yMin="-12" xMax="871" yMax="680">
      <contour>
        <pt x="317" y="680" on="1"/>
        <pt x="398" y="680" on="0"/>
        <pt x="461" y="638" on="1"/>
        <pt x="461" y="669" on="1"/>
        <pt x="862" y="669" on="1"/>
        <pt x="862" y="553" on="1"/>
        <pt x="571" y="553" on="1"/>
        <pt x="571" y="402" on="1"/>
        <pt x="846" y="402" on="1"/>
        <pt x="846" y="290" on="1"/>
        <pt x="571" y="290" on="1"/>
        <pt x="571" y="116" on="1"/>
        <pt x="871" y="116" on="1"/>
        <pt x="871" y="0" on="1"/>
        <pt x="461" y="0" on="1"/>
        <pt x="461" y="31" on="1"/>
        <pt x="399" y="-12" on="0"/>
        <pt x="307" y="-12" on="1"/>
        <pt x="136" y="-12" on="0"/>
        <pt x="74" y="136" on="1"/>
        <pt x="39" y="220" on="0"/>
        <pt x="39" y="334" on="1"/>
        <pt x="39" y="475" on="0"/>
        <pt x="97" y="572" on="1"/>
        <pt x="161" y="680" on="0"/>
      </contour>
      <contour>
        <pt x="236" y="110" on="0"/>
        <pt x="382" y="110" on="0"/>
        <pt x="440" y="229" on="0"/>
        <pt x="440" y="403" on="0"/>
        <pt x="420" y="498" on="0"/>
        <pt x="360" y="563" on="0"/>
        <pt x="271" y="563" on="0"/>
        <pt x="218" y="528" on="0"/>
        <pt x="204" y="495" on="1"/>
        <pt x="178" y="434" on="0"/>
        <pt x="178" y="229" on="0"/>
      </contour>
    </TTGlyph>
    <TTGlyph name="Oacute" xMin="39" yMin="-12" xMax="579" yMax="922">
      <contour>
        <pt x="127" y="623" on="0"/>
        <pt x="236" y="680" on="0"/>
        <pt x="370" y="680" on="0"/>
        <pt x="465" y="641" on="0"/>
        <pt x="525" y="577" on="0"/>
        <pt x="544" y="532" on="1"/>
        <pt x="579" y="448" on="0"/>
        <pt x="579" y="334" on="1"/>
        <pt x="579" y="192" on="0"/>
        <pt x="522" y="96" on="1"/>
        <pt x="492" y="46" on="0"/>
        <pt x="382" y="-12" on="0"/>
        <pt x="247" y="-12" on="0"/>
        <pt x="153" y="27" on="0"/>
        <pt x="93" y="91" on="0"/>
        <pt x="74" y="136" on="1"/>
        <pt x="39" y="220" on="0"/>
        <pt x="39" y="334" on="1"/>
        <pt x="39" y="475" on="0"/>
        <pt x="97" y="572" on="1"/>
      </contour>
      <contour>
        <pt x="236" y="110" on="0"/>
        <pt x="382" y="110" on="0"/>
        <pt x="440" y="229" on="0"/>
        <pt x="440" y="403" on="0"/>
        <pt x="420" y="498" on="0"/>
        <pt x="360" y="563" on="0"/>
        <pt x="271" y="563" on="0"/>
        <pt x="218" y="528" on="0"/>
        <pt x="204" y="495" on="1"/>
        <pt x="178" y="434" on="0"/>
        <pt x="178" y="229" on="0"/>
      </contour>
      <contour>
        <pt x="431" y="811" on="1"/>
        <pt x="227" y="735" on="1"/>
        <pt x="193" y="813" on="1"/>
        <pt x="382" y="922" on="1"/>
      </contour>
    </TTGlyph>
    <TTGlyph name="Ocircumflex" xMin="39" yMin="-12" xMax="579" yMax="882">
      <contour>
        <pt x="127" y="623" on="0"/>
        <pt x="236" y="680" on="0"/>
        <pt x="370" y="680" on="0"/>
        <pt x="465" y="641" on="0"/>
        <pt x="525" y="577" on="0"/>
        <pt x="544" y="532" on="1"/>
        <pt x="579" y="448" on="0"/>
        <pt x="579" y="334" on="1"/>
        <pt x="579" y="192" on="0"/>
        <pt x="522" y="96" on="1"/>
        <pt x="492" y="46" on="0"/>
        <pt x="382" y="-12" on="0"/>
        <pt x="247" y="-12" on="0"/>
        <pt x="153" y="27" on="0"/>
        <pt x="93" y="91" on="0"/>
        <pt x="74" y="136" on="1"/>
        <pt x="39" y="220" on="0"/>
        <pt x="39" y="334" on="1"/>
        <pt x="39" y="475" on="0"/>
        <pt x="97" y="572" on="1"/>
      </contour>
      <contour>
        <pt x="236" y="110" on="0"/>
        <pt x="382" y="110" on="0"/>
        <pt x="440" y="229" on="0"/>
        <pt x="440" y="403" on="0"/>
        <pt x="420" y="498" on="0"/>
        <pt x="360" y="563" on="0"/>
        <pt x="271" y="563" on="0"/>
        <pt x="218" y="528" on="0"/>
        <pt x="204" y="495" on="1"/>
        <pt x="178" y="434" on="0"/>
        <pt x="178" y="229" on="0"/>
      </contour>
      <contour>
        <pt x="310" y="796" on="1"/>
        <pt x="226" y="711" on="1"/>
        <pt x="162" y="763" on="1"/>
        <pt x="273" y="882" on="1"/>
        <pt x="347" y="882" on="1"/>
        <pt x="458" y="763" on="1"/>
        <pt x="394" y="711" on="1"/>
      </contour>
    </TTGlyph>
    <TTGlyph name="Odieresis" xMin="39" yMin="-12" xMax="579" yMax="854">
      <contour>
        <pt x="127" y="623" on="0"/>
        <pt x="236" y="680" on="0"/>
        <pt x="370" y="680" on="0"/>
        <pt x="465" y="641" on="0"/>
        <pt x="525" y="577" on="0"/>
        <pt x="544" y="532" on="1"/>
        <pt x="579" y="448" on="0"/>
        <pt x="579" y="334" on="1"/>
        <pt x="579" y="192" on="0"/>
        <pt x="522" y="96" on="1"/>
        <pt x="492" y="46" on="0"/>
        <pt x="382" y="-12" on="0"/>
        <pt x="247" y="-12" on="0"/>
        <pt x="153" y="27" on="0"/>
        <pt x="93" y="91" on="0"/>
        <pt x="74" y="136" on="1"/>
        <pt x="39" y="220" on="0"/>
        <pt x="39" y="334" on="1"/>
        <pt x="39" y="475" on="0"/>
        <pt x="97" y="572" on="1"/>
      </contour>
      <contour>
        <pt x="236" y="110" on="0"/>
        <pt x="382" y="110" on="0"/>
        <pt x="440" y="229" on="0"/>
        <pt x="440" y="403" on="0"/>
        <pt x="420" y="498" on="0"/>
        <pt x="360" y="563" on="0"/>
        <pt x="271" y="563" on="0"/>
        <pt x="218" y="528" on="0"/>
        <pt x="204" y="495" on="1"/>
        <pt x="178" y="434" on="0"/>
        <pt x="178" y="229" on="0"/>
      </contour>
      <contour>
        <pt x="142" y="814" on="0"/>
        <pt x="181" y="854" on="0"/>
        <pt x="240" y="854" on="0"/>
        <pt x="280" y="814" on="0"/>
        <pt x="280" y="756" on="0"/>
        <pt x="240" y="715" on="0"/>
        <pt x="181" y="715" on="0"/>
        <pt x="142" y="756" on="0"/>
      </contour>
      <contour>
        <pt x="326" y="814" on="0"/>
        <pt x="366" y="854" on="0"/>
        <pt x="424" y="854" on="0"/>
        <pt x="464" y="814" on="0"/>
        <pt x="464" y="756" on="0"/>
        <pt x="424" y="715" on="0"/>
        <pt x="366" y="715" on="0"/>
        <pt x="326" y="756" on="0"/>
      </contour>
    </TTGlyph>
    <TTGlyph name="Ograve" xMin="39" yMin="-12" xMax="579" yMax="919">
      <contour>
        <pt x="127" y="623" on="0"/>
        <pt x="236" y="680" on="0"/>
        <pt x="370" y="680" on="0"/>
        <pt x="465" y="641" on="0"/>
        <pt x="525" y="577" on="0"/>
        <pt x="544" y="532" on="1"/>
        <pt x="579" y="448" on="0"/>
        <pt x="579" y="334" on="1"/>
        <pt x="579" y="192" on="0"/>
        <pt x="522" y="96" on="1"/>
        <pt x="492" y="46" on="0"/>
        <pt x="382" y="-12" on="0"/>
        <pt x="247" y="-12" on="0"/>
        <pt x="153" y="27" on="0"/>
        <pt x="93" y="91" on="0"/>
        <pt x="74" y="136" on="1"/>
        <pt x="39" y="220" on="0"/>
        <pt x="39" y="334" on="1"/>
        <pt x="39" y="475" on="0"/>
        <pt x="97" y="572" on="1"/>
      </contour>
      <contour>
        <pt x="236" y="110" on="0"/>
        <pt x="382" y="110" on="0"/>
        <pt x="440" y="229" on="0"/>
        <pt x="440" y="403" on="0"/>
        <pt x="420" y="498" on="0"/>
        <pt x="360" y="563" on="0"/>
        <pt x="271" y="563" on="0"/>
        <pt x="218" y="528" on="0"/>
        <pt x="204" y="495" on="1"/>
        <pt x="178" y="434" on="0"/>
        <pt x="178" y="229" on="0"/>
      </contour>
      <contour>
        <pt x="386" y="732" on="1"/>
        <pt x="182" y="808" on="1"/>
        <pt x="231" y="919" on="1"/>
        <pt x="420" y="810" on="1"/>
      </contour>
    </TTGlyph>
    <TTGlyph name="Oslash" xMin="39" yMin="-110" xMax="579" yMax="778">
      <contour>
        <pt x="579" y="334" on="1"/>
        <pt x="579" y="192" on="0"/>
        <pt x="522" y="96" on="1"/>
        <pt x="492" y="46" on="0"/>
        <pt x="382" y="-12" on="0"/>
        <pt x="258" y="-12" on="0"/>
        <pt x="217" y="0" on="1"/>
        <pt x="172" y="-110" on="1"/>
        <pt x="67" y="-74" on="1"/>
        <pt x="122" y="59" on="1"/>
        <pt x="39" y="147" on="0"/>
        <pt x="39" y="334" on="1"/>
        <pt x="39" y="475" on="0"/>
        <pt x="97" y="572" on="1"/>
        <pt x="127" y="623" on="0"/>
        <pt x="236" y="680" on="0"/>
        <pt x="310" y="680" on="1"/>
        <pt x="348" y="680" on="0"/>
        <pt x="377" y="673" on="1"/>
        <pt x="420" y="778" on="1"/>
        <pt x="523" y="740" on="1"/>
        <pt x="476" y="626" on="1"/>
        <pt x="579" y="540" on="0"/>
      </contour>
      <contour>
        <pt x="309" y="110" on="1"/>
        <pt x="382" y="110" on="0"/>
        <pt x="440" y="229" on="0"/>
        <pt x="440" y="431" on="0"/>
        <pt x="418" y="486" on="1"/>
        <pt x="265" y="117" on="1"/>
        <pt x="283" y="110" on="0"/>
      </contour>
      <contour>
        <pt x="178" y="325" on="1"/>
        <pt x="178" y="265" on="0"/>
        <pt x="189" y="220" on="1"/>
        <pt x="330" y="561" on="1"/>
        <pt x="316" y="563" on="0"/>
        <pt x="309" y="563" on="1"/>
        <pt x="233" y="563" on="0"/>
        <pt x="204" y="495" on="1"/>
        <pt x="178" y="434" on="0"/>
      </contour>
    </TTGlyph>
    <TTGlyph name="Otilde" xMin="39" yMin="-12" xMax="579" yMax="868">
      <contour>
        <pt x="127" y="623" on="0"/>
        <pt x="236" y="680" on="0"/>
        <pt x="370" y="680" on="0"/>
        <pt x="465" y="641" on="0"/>
        <pt x="525" y="577" on="0"/>
        <pt x="544" y="532" on="1"/>
        <pt x="579" y="448" on="0"/>
        <pt x="579" y="334" on="1"/>
        <pt x="579" y="192" on="0"/>
        <pt x="522" y="96" on="1"/>
        <pt x="492" y="46" on="0"/>
        <pt x="382" y="-12" on="0"/>
        <pt x="247" y="-12" on="0"/>
        <pt x="153" y="27" on="0"/>
        <pt x="93" y="91" on="0"/>
        <pt x="74" y="136" on="1"/>
        <pt x="39" y="220" on="0"/>
        <pt x="39" y="334" on="1"/>
        <pt x="39" y="475" on="0"/>
        <pt x="97" y="572" on="1"/>
      </contour>
      <contour>
        <pt x="236" y="110" on="0"/>
        <pt x="382" y="110" on="0"/>
        <pt x="440" y="229" on="0"/>
        <pt x="440" y="403" on="0"/>
        <pt x="420" y="498" on="0"/>
        <pt x="360" y="563" on="0"/>
        <pt x="271" y="563" on="0"/>
        <pt x="218" y="528" on="0"/>
        <pt x="204" y="495" on="1"/>
        <pt x="178" y="434" on="0"/>
        <pt x="178" y="229" on="0"/>
      </contour>
      <contour>
        <pt x="266" y="868" on="0"/>
        <pt x="355" y="825" on="0"/>
        <pt x="401" y="825" on="0"/>
        <pt x="430" y="860" on="1"/>
        <pt x="479" y="806" on="1"/>
        <pt x="461" y="776" on="0"/>
        <pt x="400" y="731" on="0"/>
        <pt x="345" y="731" on="0"/>
        <pt x="257" y="774" on="0"/>
        <pt x="212" y="774" on="0"/>
        <pt x="183" y="739" on="1"/>
        <pt x="134" y="793" on="1"/>
        <pt x="152" y="823" on="0"/>
        <pt x="211" y="868" on="0"/>
      </contour>
    </TTGlyph>
    <TTGlyph name="P" xMin="64" yMin="0" xMax="520" yMax="668">
      <contour>
        <pt x="459" y="610" on="1"/>
        <pt x="520" y="556" on="0"/>
        <pt x="520" y="351" on="0"/>
        <pt x="452" y="296" on="1"/>
        <pt x="417" y="268" on="0"/>
        <pt x="317" y="244" on="0"/>
        <pt x="233" y="244" on="1"/>
        <pt x="208" y="244" on="1"/>
        <pt x="208" y="0" on="1"/>
        <pt x="64" y="0" on="1"/>
        <pt x="64" y="668" on="1"/>
        <pt x="257" y="668" on="1"/>
        <pt x="333" y="668" on="0"/>
        <pt x="424" y="642" on="0"/>
      </contour>
      <contour>
        <pt x="346" y="371" on="1"/>
        <pt x="380" y="394" on="0"/>
        <pt x="380" y="519" on="0"/>
        <pt x="311" y="562" on="0"/>
        <pt x="234" y="562" on="1"/>
        <pt x="208" y="562" on="1"/>
        <pt x="208" y="350" on="1"/>
        <pt x="219" y="350" on="1"/>
        <pt x="318" y="350" on="0"/>
      </contour>
    </TTGlyph>
    <TTGlyph name="Q" xMin="39" yMin="-137" xMax="673" yMax="680">
      <contour>
        <pt x="68" y="146" on="0"/>
        <pt x="39" y="265" on="0"/>
        <pt x="39" y="404" on="0"/>
        <pt x="67" y="522" on="0"/>
        <pt x="127" y="623" on="0"/>
        <pt x="236" y="680" on="0"/>
        <pt x="370" y="680" on="0"/>
        <pt x="465" y="641" on="0"/>
        <pt x="525" y="577" on="0"/>
        <pt x="544" y="532" on="1"/>
        <pt x="579" y="448" on="0"/>
        <pt x="579" y="334" on="1"/>
        <pt x="579" y="116" on="0"/>
        <pt x="461" y="33" on="1"/>
        <pt x="574" y="20" on="0"/>
        <pt x="673" y="-39" on="1"/>
        <pt x="601" y="-137" on="1"/>
        <pt x="588" y="-124" on="0"/>
        <pt x="527" y="-83" on="0"/>
        <pt x="496" y="-68" on="1"/>
        <pt x="414" y="-28" on="0"/>
        <pt x="307" y="-10" on="1"/>
        <pt x="235" y="-10" on="0"/>
        <pt x="128" y="47" on="0"/>
      </contour>
      <contour>
        <pt x="178" y="94" on="0"/>
        <pt x="440" y="94" on="0"/>
        <pt x="440" y="563" on="0"/>
        <pt x="178" y="563" on="0"/>
      </contour>
    </TTGlyph>
    <TTGlyph name="R" xMin="64" yMin="-33" xMax="569" yMax="668">
      <contour>
        <pt x="233" y="244" on="1"/>
        <pt x="208" y="244" on="1"/>
        <pt x="208" y="0" on="1"/>
        <pt x="64" y="0" on="1"/>
        <pt x="64" y="668" on="1"/>
        <pt x="257" y="668" on="1"/>
        <pt x="333" y="668" on="0"/>
        <pt x="424" y="642" on="0"/>
        <pt x="459" y="610" on="1"/>
        <pt x="520" y="556" on="0"/>
        <pt x="520" y="462" on="1"/>
        <pt x="520" y="347" on="0"/>
        <pt x="452" y="296" on="1"/>
        <pt x="429" y="278" on="0"/>
        <pt x="398" y="266" on="1"/>
        <pt x="569" y="33" on="1"/>
        <pt x="461" y="-33" on="1"/>
        <pt x="263" y="245" on="1"/>
        <pt x="254" y="244" on="0"/>
      </contour>
      <contour>
        <pt x="346" y="371" on="1"/>
        <pt x="381" y="395" on="0"/>
        <pt x="381" y="508" on="0"/>
        <pt x="324" y="562" on="0"/>
        <pt x="234" y="562" on="1"/>
        <pt x="208" y="562" on="1"/>
        <pt x="208" y="350" on="1"/>
        <pt x="219" y="350" on="1"/>
        <pt x="318" y="350" on="0"/>
      </contour>
    </TTGlyph>
    <TTGlyph name="S" xMin="29" yMin="-13" xMax="472" yMax="681">
      <contour>
        <pt x="472" y="187" on="1"/>
        <pt x="472" y="98" on="0"/>
        <pt x="349" y="-13" on="0"/>
        <pt x="245" y="-13" on="1"/>
        <pt x="195" y="-13" on="0"/>
        <pt x="70" y="14" on="0"/>
        <pt x="29" y="33" on="1"/>
        <pt x="66" y="152" on="1"/>
        <pt x="158" y="110" on="0"/>
        <pt x="240" y="110" on="1"/>
        <pt x="333" y="110" on="0"/>
        <pt x="333" y="182" on="1"/>
        <pt x="333" y="217" on="0"/>
        <pt x="271" y="267" on="0"/>
        <pt x="165" y="316" on="0"/>
        <pt x="120" y="342" on="0"/>
        <pt x="93" y="366" on="1"/>
        <pt x="42" y="411" on="0"/>
        <pt x="42" y="583" on="0"/>
        <pt x="163" y="681" on="0"/>
        <pt x="342" y="681" on="0"/>
        <pt x="445" y="643" on="1"/>
        <pt x="405" y="534" on="1"/>
        <pt x="323" y="563" on="0"/>
        <pt x="265" y="563" on="1"/>
        <pt x="182" y="563" on="0"/>
        <pt x="181" y="497" on="1"/>
        <pt x="181" y="470" on="0"/>
        <pt x="217" y="443" on="0"/>
        <pt x="233" y="432" on="0"/>
        <pt x="282" y="407" on="0"/>
        <pt x="324" y="384" on="0"/>
        <pt x="359" y="363" on="0"/>
        <pt x="417" y="319" on="0"/>
        <pt x="432" y="300" on="1"/>
        <pt x="472" y="250" on="0"/>
      </contour>
    </TTGlyph>
    <TTGlyph name="Scaron" xMin="29" yMin="-13" xMax="472" yMax="896">
      <contour>
        <pt x="472" y="187" on="1"/>
        <pt x="472" y="98" on="0"/>
        <pt x="349" y="-13" on="0"/>
        <pt x="245" y="-13" on="1"/>
        <pt x="195" y="-13" on="0"/>
        <pt x="70" y="14" on="0"/>
        <pt x="29" y="33" on="1"/>
        <pt x="66" y="152" on="1"/>
        <pt x="158" y="110" on="0"/>
        <pt x="240" y="110" on="1"/>
        <pt x="333" y="110" on="0"/>
        <pt x="333" y="182" on="1"/>
        <pt x="333" y="217" on="0"/>
        <pt x="271" y="267" on="0"/>
        <pt x="165" y="316" on="0"/>
        <pt x="120" y="342" on="0"/>
        <pt x="93" y="366" on="1"/>
        <pt x="42" y="411" on="0"/>
        <pt x="42" y="583" on="0"/>
        <pt x="163" y="681" on="0"/>
        <pt x="342" y="681" on="0"/>
        <pt x="445" y="643" on="1"/>
        <pt x="405" y="534" on="1"/>
        <pt x="323" y="563" on="0"/>
        <pt x="265" y="563" on="1"/>
        <pt x="182" y="563" on="0"/>
        <pt x="181" y="497" on="1"/>
        <pt x="181" y="470" on="0"/>
        <pt x="217" y="443" on="0"/>
        <pt x="233" y="432" on="0"/>
        <pt x="282" y="407" on="0"/>
        <pt x="324" y="384" on="0"/>
        <pt x="359" y="363" on="0"/>
        <pt x="417" y="319" on="0"/>
        <pt x="432" y="300" on="1"/>
        <pt x="472" y="250" on="0"/>
      </contour>
      <contour>
        <pt x="152" y="896" on="1"/>
        <pt x="236" y="811" on="1"/>
        <pt x="320" y="896" on="1"/>
        <pt x="384" y="844" on="1"/>
        <pt x="273" y="725" on="1"/>
        <pt x="199" y="725" on="1"/>
        <pt x="88" y="844" on="1"/>
      </contour>
    </TTGlyph>
    <TTGlyph name="T" xMin="10" yMin="0" xMax="505" yMax="668">
      <contour>
        <pt x="184" y="553" on="1"/>
        <pt x="10" y="553" on="1"/>
        <pt x="10" y="668" on="1"/>
        <pt x="505" y="668" on="1"/>
        <pt x="505" y="553" on="1"/>
        <pt x="328" y="553" on="1"/>
        <pt x="328" y="0" on="1"/>
        <pt x="184" y="0" on="1"/>
      </contour>
    </TTGlyph>
    <TTGlyph name="Thorn" xMin="64" yMin="0" xMax="484" yMax="697">
      <contour>
        <pt x="484" y="395" on="1"/>
        <pt x="484" y="282" on="0"/>
        <pt x="419" y="234" on="1"/>
        <pt x="383" y="206" on="0"/>
        <pt x="284" y="183" on="0"/>
        <pt x="199" y="183" on="1"/>
        <pt x="168" y="183" on="1"/>
        <pt x="168" y="0" on="1"/>
        <pt x="64" y="0" on="1"/>
        <pt x="64" y="697" on="1"/>
        <pt x="168" y="697" on="1"/>
        <pt x="168" y="597" on="1"/>
        <pt x="224" y="597" on="1"/>
        <pt x="301" y="597" on="0"/>
        <pt x="391" y="573" on="0"/>
        <pt x="425" y="542" on="1"/>
        <pt x="484" y="490" on="0"/>
      </contour>
      <contour>
        <pt x="210" y="276" on="1"/>
        <pt x="308" y="276" on="0"/>
        <pt x="379" y="326" on="0"/>
        <pt x="379" y="443" on="0"/>
        <pt x="317" y="504" on="0"/>
        <pt x="225" y="504" on="1"/>
        <pt x="168" y="504" on="1"/>
        <pt x="168" y="276" on="1"/>
      </contour>
    </TTGlyph>
    <TTGlyph name="U" xMin="59" yMin="-12" xMax="547" yMax="667">
      <contour>
        <pt x="59" y="246" on="1"/>
        <pt x="59" y="667" on="1"/>
        <pt x="204" y="667" on="1"/>
        <pt x="204" y="251" on="1"/>
        <pt x="204" y="165" on="0"/>
        <pt x="224" y="138" on="1"/>
        <pt x="244" y="108" on="0"/>
        <pt x="363" y="108" on="0"/>
        <pt x="382" y="139" on="1"/>
        <pt x="402" y="165" on="0"/>
        <pt x="402" y="251" on="1"/>
        <pt x="402" y="667" on="1"/>
        <pt x="547" y="667" on="1"/>
        <pt x="547" y="246" on="1"/>
        <pt x="547" y="130" on="0"/>
        <pt x="500" y="64" on="1"/>
        <pt x="440" y="-10" on="0"/>
        <pt x="303" y="-12" on="1"/>
        <pt x="166" y="-12" on="0"/>
        <pt x="105" y="64" on="1"/>
        <pt x="59" y="131" on="0"/>
      </contour>
    </TTGlyph>
    <TTGlyph name="Uacute" xMin="59" yMin="-12" xMax="547" yMax="922">
      <contour>
        <pt x="59" y="246" on="1"/>
        <pt x="59" y="667" on="1"/>
        <pt x="204" y="667" on="1"/>
        <pt x="204" y="251" on="1"/>
        <pt x="204" y="165" on="0"/>
        <pt x="224" y="138" on="1"/>
        <pt x="244" y="108" on="0"/>
        <pt x="363" y="108" on="0"/>
        <pt x="382" y="139" on="1"/>
        <pt x="402" y="165" on="0"/>
        <pt x="402" y="251" on="1"/>
        <pt x="402" y="667" on="1"/>
        <pt x="547" y="667" on="1"/>
        <pt x="547" y="246" on="1"/>
        <pt x="547" y="130" on="0"/>
        <pt x="500" y="64" on="1"/>
        <pt x="440" y="-10" on="0"/>
        <pt x="303" y="-12" on="1"/>
        <pt x="166" y="-12" on="0"/>
        <pt x="105" y="64" on="1"/>
        <pt x="59" y="131" on="0"/>
      </contour>
      <contour>
        <pt x="440" y="811" on="1"/>
        <pt x="236" y="735" on="1"/>
        <pt x="202" y="813" on="1"/>
        <pt x="391" y="922" on="1"/>
      </contour>
    </TTGlyph>
    <TTGlyph name="Ucircumflex" xMin="59" yMin="-12" xMax="547" yMax="882">
      <contour>
        <pt x="59" y="246" on="1"/>
        <pt x="59" y="667" on="1"/>
        <pt x="204" y="667" on="1"/>
        <pt x="204" y="251" on="1"/>
        <pt x="204" y="165" on="0"/>
        <pt x="224" y="138" on="1"/>
        <pt x="244" y="108" on="0"/>
        <pt x="363" y="108" on="0"/>
        <pt x="382" y="139" on="1"/>
        <pt x="402" y="165" on="0"/>
        <pt x="402" y="251" on="1"/>
        <pt x="402" y="667" on="1"/>
        <pt x="547" y="667" on="1"/>
        <pt x="547" y="246" on="1"/>
        <pt x="547" y="130" on="0"/>
        <pt x="500" y="64" on="1"/>
        <pt x="440" y="-10" on="0"/>
        <pt x="303" y="-12" on="1"/>
        <pt x="166" y="-12" on="0"/>
        <pt x="105" y="64" on="1"/>
        <pt x="59" y="131" on="0"/>
      </contour>
      <contour>
        <pt x="306" y="796" on="1"/>
        <pt x="222" y="711" on="1"/>
        <pt x="158" y="763" on="1"/>
        <pt x="269" y="882" on="1"/>
        <pt x="343" y="882" on="1"/>
        <pt x="454" y="763" on="1"/>
        <pt x="390" y="711" on="1"/>
      </contour>
    </TTGlyph>
    <TTGlyph name="Udieresis" xMin="59" yMin="-12" xMax="547" yMax="854">
      <contour>
        <pt x="59" y="246" on="1"/>
        <pt x="59" y="667" on="1"/>
        <pt x="204" y="667" on="1"/>
        <pt x="204" y="251" on="1"/>
        <pt x="204" y="165" on="0"/>
        <pt x="224" y="138" on="1"/>
        <pt x="244" y="108" on="0"/>
        <pt x="363" y="108" on="0"/>
        <pt x="382" y="139" on="1"/>
        <pt x="402" y="165" on="0"/>
        <pt x="402" y="251" on="1"/>
        <pt x="402" y="667" on="1"/>
        <pt x="547" y="667" on="1"/>
        <pt x="547" y="246" on="1"/>
        <pt x="547" y="130" on="0"/>
        <pt x="500" y="64" on="1"/>
        <pt x="440" y="-10" on="0"/>
        <pt x="303" y="-12" on="1"/>
        <pt x="166" y="-12" on="0"/>
        <pt x="105" y="64" on="1"/>
        <pt x="59" y="131" on="0"/>
      </contour>
      <contour>
        <pt x="145" y="814" on="0"/>
        <pt x="184" y="854" on="0"/>
        <pt x="243" y="854" on="0"/>
        <pt x="283" y="814" on="0"/>
        <pt x="283" y="756" on="0"/>
        <pt x="243" y="715" on="0"/>
        <pt x="184" y="715" on="0"/>
        <pt x="145" y="756" on="0"/>
      </contour>
      <contour>
        <pt x="329" y="814" on="0"/>
        <pt x="369" y="854" on="0"/>
        <pt x="427" y="854" on="0"/>
        <pt x="467" y="814" on="0"/>
        <pt x="467" y="756" on="0"/>
        <pt x="427" y="715" on="0"/>
        <pt x="369" y="715" on="0"/>
        <pt x="329" y="756" on="0"/>
      </contour>
    </TTGlyph>
    <TTGlyph name="Ugrave" xMin="59" yMin="-12" xMax="547" yMax="919">
      <contour>
        <pt x="59" y="246" on="1"/>
        <pt x="59" y="667" on="1"/>
        <pt x="204" y="667" on="1"/>
        <pt x="204" y="251" on="1"/>
        <pt x="204" y="165" on="0"/>
        <pt x="224" y="138" on="1"/>
        <pt x="244" y="108" on="0"/>
        <pt x="363" y="108" on="0"/>
        <pt x="382" y="139" on="1"/>
        <pt x="402" y="165" on="0"/>
        <pt x="402" y="251" on="1"/>
        <pt x="402" y="667" on="1"/>
        <pt x="547" y="667" on="1"/>
        <pt x="547" y="246" on="1"/>
        <pt x="547" y="130" on="0"/>
        <pt x="500" y="64" on="1"/>
        <pt x="440" y="-10" on="0"/>
        <pt x="303" y="-12" on="1"/>
        <pt x="166" y="-12" on="0"/>
        <pt x="105" y="64" on="1"/>
        <pt x="59" y="131" on="0"/>
      </contour>
      <contour>
        <pt x="382" y="732" on="1"/>
        <pt x="178" y="808" on="1"/>
        <pt x="227" y="919" on="1"/>
        <pt x="416" y="810" on="1"/>
      </contour>
    </TTGlyph>
    <TTGlyph name="V" xMin="-4" yMin="0" xMax="557" yMax="668">
      <contour>
        <pt x="276" y="160" on="1"/>
        <pt x="415" y="668" on="1"/>
        <pt x="557" y="668" on="1"/>
        <pt x="347" y="0" on="1"/>
        <pt x="206" y="0" on="1"/>
        <pt x="-4" y="668" on="1"/>
        <pt x="138" y="668" on="1"/>
      </contour>
    </TTGlyph>
    <TTGlyph name="W" xMin="36" yMin="0" xMax="759" yMax="668">
      <contour>
        <pt x="345" y="612" on="1"/>
        <pt x="450" y="612" on="1"/>
        <pt x="590" y="164" on="1"/>
        <pt x="626" y="668" on="1"/>
        <pt x="759" y="668" on="1"/>
        <pt x="692" y="0" on="1"/>
        <pt x="542" y="0" on="1"/>
        <pt x="397" y="494" on="1"/>
        <pt x="253" y="0" on="1"/>
        <pt x="103" y="0" on="1"/>
        <pt x="36" y="668" on="1"/>
        <pt x="168" y="668" on="1"/>
        <pt x="204" y="163" on="1"/>
      </contour>
    </TTGlyph>
    <TTGlyph name="X" xMin="9" yMin="0" xMax="591" yMax="667">
      <contour>
        <pt x="591" y="0" on="1"/>
        <pt x="430" y="0" on="1"/>
        <pt x="297" y="231" on="1"/>
        <pt x="163" y="0" on="1"/>
        <pt x="9" y="0" on="1"/>
        <pt x="224" y="334" on="1"/>
        <pt x="19" y="667" on="1"/>
        <pt x="173" y="667" on="1"/>
        <pt x="299" y="440" on="1"/>
        <pt x="424" y="667" on="1"/>
        <pt x="580" y="667" on="1"/>
        <pt x="372" y="340" on="1"/>
      </contour>
    </TTGlyph>
    <TTGlyph name="Y" xMin="-8" yMin="0" xMax="556" yMax="668">
      <contour>
        <pt x="346" y="0" on="1"/>
        <pt x="202" y="0" on="1"/>
        <pt x="202" y="264" on="1"/>
        <pt x="-8" y="668" on="1"/>
        <pt x="138" y="668" on="1"/>
        <pt x="274" y="383" on="1"/>
        <pt x="410" y="668" on="1"/>
        <pt x="556" y="668" on="1"/>
        <pt x="346" y="264" on="1"/>
      </contour>
    </TTGlyph>
    <TTGlyph name="Yacute" xMin="-8" yMin="0" xMax="556" yMax="922">
      <contour>
        <pt x="346" y="0" on="1"/>
        <pt x="202" y="0" on="1"/>
        <pt x="202" y="264" on="1"/>
        <pt x="-8" y="668" on="1"/>
        <pt x="138" y="668" on="1"/>
        <pt x="274" y="383" on="1"/>
        <pt x="410" y="668" on="1"/>
        <pt x="556" y="668" on="1"/>
        <pt x="346" y="264" on="1"/>
      </contour>
      <contour>
        <pt x="413" y="811" on="1"/>
        <pt x="209" y="735" on="1"/>
        <pt x="175" y="813" on="1"/>
        <pt x="364" y="922" on="1"/>
      </contour>
    </TTGlyph>
    <TTGlyph name="Ydieresis" xMin="-8" yMin="0" xMax="556" yMax="854">
      <contour>
        <pt x="346" y="0" on="1"/>
        <pt x="202" y="0" on="1"/>
        <pt x="202" y="264" on="1"/>
        <pt x="-8" y="668" on="1"/>
        <pt x="138" y="668" on="1"/>
        <pt x="274" y="383" on="1"/>
        <pt x="410" y="668" on="1"/>
        <pt x="556" y="668" on="1"/>
        <pt x="346" y="264" on="1"/>
      </contour>
      <contour>
        <pt x="108" y="814" on="0"/>
        <pt x="147" y="854" on="0"/>
        <pt x="206" y="854" on="0"/>
        <pt x="246" y="814" on="0"/>
        <pt x="246" y="756" on="0"/>
        <pt x="206" y="715" on="0"/>
        <pt x="147" y="715" on="0"/>
        <pt x="108" y="756" on="0"/>
      </contour>
      <contour>
        <pt x="292" y="814" on="0"/>
        <pt x="332" y="854" on="0"/>
        <pt x="390" y="854" on="0"/>
        <pt x="430" y="814" on="0"/>
        <pt x="430" y="756" on="0"/>
        <pt x="390" y="715" on="0"/>
        <pt x="332" y="715" on="0"/>
        <pt x="292" y="756" on="0"/>
      </contour>
    </TTGlyph>
    <TTGlyph name="Z" xMin="32" yMin="0" xMax="496" yMax="668">
      <contour>
        <pt x="496" y="117" on="1"/>
        <pt x="496" y="0" on="1"/>
        <pt x="43" y="0" on="1"/>
        <pt x="32" y="88" on="1"/>
        <pt x="315" y="552" on="1"/>
        <pt x="48" y="552" on="1"/>
        <pt x="33" y="668" on="1"/>
        <pt x="466" y="668" on="1"/>
        <pt x="475" y="575" on="1"/>
        <pt x="194" y="117" on="1"/>
      </contour>
    </TTGlyph>
    <TTGlyph name="Zcaron" xMin="32" yMin="0" xMax="496" yMax="896">
      <contour>
        <pt x="496" y="117" on="1"/>
        <pt x="496" y="0" on="1"/>
        <pt x="43" y="0" on="1"/>
        <pt x="32" y="88" on="1"/>
        <pt x="315" y="552" on="1"/>
        <pt x="48" y="552" on="1"/>
        <pt x="33" y="668" on="1"/>
        <pt x="466" y="668" on="1"/>
        <pt x="475" y="575" on="1"/>
        <pt x="194" y="117" on="1"/>
      </contour>
      <contour>
        <pt x="185" y="896" on="1"/>
        <pt x="269" y="811" on="1"/>
        <pt x="353" y="896" on="1"/>
        <pt x="417" y="844" on="1"/>
        <pt x="306" y="725" on="1"/>
        <pt x="232" y="725" on="1"/>
        <pt x="121" y="844" on="1"/>
      </contour>
    </TTGlyph>
    <TTGlyph name="a" xMin="21" yMin="-13" xMax="516" yMax="524">
      <contour>
        <pt x="516" y="17" on="1"/>
        <pt x="465" y="-11" on="0"/>
        <pt x="344" y="-11" on="0"/>
        <pt x="315" y="35" on="1"/>
        <pt x="257" y="-13" on="0"/>
        <pt x="101" y="-13" on="0"/>
        <pt x="21" y="66" on="0"/>
        <pt x="21" y="134" on="1"/>
        <pt x="21" y="179" on="0"/>
        <pt x="59" y="243" on="0"/>
        <pt x="89" y="258" on="1"/>
        <pt x="144" y="284" on="0"/>
        <pt x="263" y="284" on="0"/>
        <pt x="299" y="281" on="1"/>
        <pt x="299" y="330" on="1"/>
        <pt x="299" y="382" on="0"/>
        <pt x="257" y="412" on="0"/>
        <pt x="156" y="412" on="0"/>
        <pt x="93" y="391" on="1"/>
        <pt x="64" y="479" on="1"/>
        <pt x="101" y="501" on="0"/>
        <pt x="208" y="524" on="0"/>
        <pt x="246" y="524" on="1"/>
        <pt x="348" y="524" on="0"/>
        <pt x="435" y="437" on="0"/>
        <pt x="435" y="332" on="1"/>
        <pt x="435" y="122" on="1"/>
        <pt x="435" y="94" on="0"/>
        <pt x="460" y="94" on="1"/>
        <pt x="473" y="94" on="0"/>
        <pt x="497" y="100" on="1"/>
      </contour>
      <contour>
        <pt x="217" y="80" on="1"/>
        <pt x="259" y="80" on="0"/>
        <pt x="299" y="106" on="1"/>
        <pt x="299" y="211" on="1"/>
        <pt x="271" y="213" on="0"/>
        <pt x="250" y="213" on="1"/>
        <pt x="151" y="213" on="0"/>
        <pt x="151" y="149" on="1"/>
        <pt x="151" y="80" on="0"/>
      </contour>
    </TTGlyph>
    <TTGlyph name="a.alt" xMin="34" yMin="-12" xMax="561" yMax="520">
      <contour>
        <pt x="355" y="31" on="1"/>
        <pt x="304" y="-12" on="0"/>
        <pt x="130" y="-12" on="0"/>
        <pt x="34" y="125" on="0"/>
        <pt x="34" y="380" on="0"/>
        <pt x="144" y="514" on="0"/>
        <pt x="235" y="514" on="1"/>
        <pt x="292" y="514" on="0"/>
        <pt x="359" y="485" on="1"/>
        <pt x="367" y="520" on="1"/>
        <pt x="483" y="520" on="1"/>
        <pt x="483" y="122" on="1"/>
        <pt x="483" y="94" on="0"/>
        <pt x="506" y="94" on="1"/>
        <pt x="519" y="94" on="0"/>
        <pt x="543" y="100" on="1"/>
        <pt x="561" y="17" on="1"/>
        <pt x="510" y="-11" on="0"/>
        <pt x="380" y="-11" on="0"/>
      </contour>
      <contour>
        <pt x="269" y="407" on="1"/>
        <pt x="172" y="407" on="0"/>
        <pt x="172" y="83" on="0"/>
        <pt x="262" y="83" on="1"/>
        <pt x="311" y="83" on="0"/>
        <pt x="345" y="110" on="1"/>
        <pt x="345" y="393" on="1"/>
        <pt x="312" y="407" on="0"/>
      </contour>
    </TTGlyph>
    <TTGlyph name="aacute" xMin="21" yMin="-13" xMax="516" yMax="774">
      <contour>
        <pt x="516" y="17" on="1"/>
        <pt x="465" y="-11" on="0"/>
        <pt x="344" y="-11" on="0"/>
        <pt x="315" y="35" on="1"/>
        <pt x="257" y="-13" on="0"/>
        <pt x="101" y="-13" on="0"/>
        <pt x="21" y="66" on="0"/>
        <pt x="21" y="134" on="1"/>
        <pt x="21" y="179" on="0"/>
        <pt x="59" y="243" on="0"/>
        <pt x="89" y="258" on="1"/>
        <pt x="144" y="284" on="0"/>
        <pt x="263" y="284" on="0"/>
        <pt x="299" y="281" on="1"/>
        <pt x="299" y="330" on="1"/>
        <pt x="299" y="382" on="0"/>
        <pt x="257" y="412" on="0"/>
        <pt x="156" y="412" on="0"/>
        <pt x="93" y="391" on="1"/>
        <pt x="64" y="479" on="1"/>
        <pt x="101" y="501" on="0"/>
        <pt x="208" y="524" on="0"/>
        <pt x="246" y="524" on="1"/>
        <pt x="348" y="524" on="0"/>
        <pt x="435" y="437" on="0"/>
        <pt x="435" y="332" on="1"/>
        <pt x="435" y="122" on="1"/>
        <pt x="435" y="94" on="0"/>
        <pt x="460" y="94" on="1"/>
        <pt x="473" y="94" on="0"/>
        <pt x="497" y="100" on="1"/>
      </contour>
      <contour>
        <pt x="217" y="80" on="1"/>
        <pt x="259" y="80" on="0"/>
        <pt x="299" y="106" on="1"/>
        <pt x="299" y="211" on="1"/>
        <pt x="271" y="213" on="0"/>
        <pt x="250" y="213" on="1"/>
        <pt x="151" y="213" on="0"/>
        <pt x="151" y="149" on="1"/>
        <pt x="151" y="80" on="0"/>
      </contour>
      <contour>
        <pt x="359" y="663" on="1"/>
        <pt x="155" y="587" on="1"/>
        <pt x="121" y="665" on="1"/>
        <pt x="310" y="774" on="1"/>
      </contour>
    </TTGlyph>
    <TTGlyph name="acircumflex" xMin="21" yMin="-13" xMax="516" yMax="762">
      <contour>
        <pt x="239" y="676" on="1"/>
        <pt x="155" y="591" on="1"/>
        <pt x="91" y="643" on="1"/>
        <pt x="202" y="762" on="1"/>
        <pt x="276" y="762" on="1"/>
        <pt x="387" y="643" on="1"/>
        <pt x="323" y="591" on="1"/>
      </contour>
      <contour>
        <pt x="516" y="17" on="1"/>
        <pt x="465" y="-11" on="0"/>
        <pt x="344" y="-11" on="0"/>
        <pt x="315" y="35" on="1"/>
        <pt x="257" y="-13" on="0"/>
        <pt x="101" y="-13" on="0"/>
        <pt x="21" y="66" on="0"/>
        <pt x="21" y="134" on="1"/>
        <pt x="21" y="179" on="0"/>
        <pt x="59" y="243" on="0"/>
        <pt x="89" y="258" on="1"/>
        <pt x="144" y="284" on="0"/>
        <pt x="263" y="284" on="0"/>
        <pt x="299" y="281" on="1"/>
        <pt x="299" y="330" on="1"/>
        <pt x="299" y="382" on="0"/>
        <pt x="257" y="412" on="0"/>
        <pt x="156" y="412" on="0"/>
        <pt x="93" y="391" on="1"/>
        <pt x="64" y="479" on="1"/>
        <pt x="101" y="501" on="0"/>
        <pt x="208" y="524" on="0"/>
        <pt x="246" y="524" on="1"/>
        <pt x="348" y="524" on="0"/>
        <pt x="435" y="437" on="0"/>
        <pt x="435" y="332" on="1"/>
        <pt x="435" y="122" on="1"/>
        <pt x="435" y="94" on="0"/>
        <pt x="460" y="94" on="1"/>
        <pt x="473" y="94" on="0"/>
        <pt x="497" y="100" on="1"/>
      </contour>
      <contour>
        <pt x="217" y="80" on="1"/>
        <pt x="259" y="80" on="0"/>
        <pt x="299" y="106" on="1"/>
        <pt x="299" y="211" on="1"/>
        <pt x="271" y="213" on="0"/>
        <pt x="250" y="213" on="1"/>
        <pt x="151" y="213" on="0"/>
        <pt x="151" y="149" on="1"/>
        <pt x="151" y="80" on="0"/>
      </contour>
    </TTGlyph>
    <TTGlyph name="acute" xMin="50" yMin="587" xMax="288" yMax="774">
      <contour>
        <pt x="288" y="663" on="1"/>
        <pt x="84" y="587" on="1"/>
        <pt x="50" y="665" on="1"/>
        <pt x="239" y="774" on="1"/>
      </contour>
    </TTGlyph>
    <TTGlyph name="adieresis" xMin="21" yMin="-13" xMax="516" yMax="735">
      <contour>
        <pt x="516" y="17" on="1"/>
        <pt x="465" y="-11" on="0"/>
        <pt x="344" y="-11" on="0"/>
        <pt x="315" y="35" on="1"/>
        <pt x="257" y="-13" on="0"/>
        <pt x="101" y="-13" on="0"/>
        <pt x="21" y="66" on="0"/>
        <pt x="21" y="134" on="1"/>
        <pt x="21" y="179" on="0"/>
        <pt x="59" y="243" on="0"/>
        <pt x="89" y="258" on="1"/>
        <pt x="144" y="284" on="0"/>
        <pt x="263" y="284" on="0"/>
        <pt x="299" y="281" on="1"/>
        <pt x="299" y="330" on="1"/>
        <pt x="299" y="382" on="0"/>
        <pt x="257" y="412" on="0"/>
        <pt x="156" y="412" on="0"/>
        <pt x="93" y="391" on="1"/>
        <pt x="64" y="479" on="1"/>
        <pt x="101" y="501" on="0"/>
        <pt x="208" y="524" on="0"/>
        <pt x="246" y="524" on="1"/>
        <pt x="348" y="524" on="0"/>
        <pt x="435" y="437" on="0"/>
        <pt x="435" y="332" on="1"/>
        <pt x="435" y="122" on="1"/>
        <pt x="435" y="94" on="0"/>
        <pt x="460" y="94" on="1"/>
        <pt x="473" y="94" on="0"/>
        <pt x="497" y="100" on="1"/>
      </contour>
      <contour>
        <pt x="217" y="80" on="1"/>
        <pt x="259" y="80" on="0"/>
        <pt x="299" y="106" on="1"/>
        <pt x="299" y="211" on="1"/>
        <pt x="271" y="213" on="0"/>
        <pt x="250" y="213" on="1"/>
        <pt x="151" y="213" on="0"/>
        <pt x="151" y="149" on="1"/>
        <pt x="151" y="80" on="0"/>
      </contour>
      <contour>
        <pt x="87" y="695" on="0"/>
        <pt x="126" y="735" on="0"/>
        <pt x="185" y="735" on="0"/>
        <pt x="225" y="695" on="0"/>
        <pt x="225" y="637" on="0"/>
        <pt x="185" y="596" on="0"/>
        <pt x="126" y="596" on="0"/>
        <pt x="87" y="637" on="0"/>
      </contour>
      <contour>
        <pt x="271" y="695" on="0"/>
        <pt x="311" y="735" on="0"/>
        <pt x="369" y="735" on="0"/>
        <pt x="409" y="695" on="0"/>
        <pt x="409" y="637" on="0"/>
        <pt x="369" y="596" on="0"/>
        <pt x="311" y="596" on="0"/>
        <pt x="271" y="637" on="0"/>
      </contour>
    </TTGlyph>
    <TTGlyph name="ae" xMin="21" yMin="-13" xMax="714" yMax="524">
      <contour>
        <pt x="430" y="242" on="1"/>
        <pt x="432" y="92" on="0"/>
        <pt x="562" y="92" on="1"/>
        <pt x="623" y="92" on="0"/>
        <pt x="683" y="115" on="1"/>
        <pt x="707" y="20" on="1"/>
        <pt x="630" y="-13" on="0"/>
        <pt x="437" y="-13" on="0"/>
        <pt x="379" y="43" on="1"/>
        <pt x="350" y="22" on="0"/>
        <pt x="246" y="-13" on="0"/>
        <pt x="195" y="-13" on="1"/>
        <pt x="111" y="-13" on="0"/>
        <pt x="21" y="65" on="0"/>
        <pt x="21" y="134" on="1"/>
        <pt x="21" y="179" on="0"/>
        <pt x="59" y="243" on="0"/>
        <pt x="89" y="258" on="1"/>
        <pt x="144" y="284" on="0"/>
        <pt x="270" y="284" on="0"/>
        <pt x="306" y="281" on="1"/>
        <pt x="306" y="330" on="1"/>
        <pt x="306" y="382" on="0"/>
        <pt x="264" y="412" on="0"/>
        <pt x="156" y="412" on="0"/>
        <pt x="93" y="391" on="1"/>
        <pt x="64" y="479" on="1"/>
        <pt x="101" y="501" on="0"/>
        <pt x="208" y="524" on="0"/>
        <pt x="302" y="524" on="0"/>
        <pt x="369" y="496" on="0"/>
        <pt x="388" y="457" on="1"/>
        <pt x="435" y="522" on="0"/>
        <pt x="617" y="522" on="0"/>
        <pt x="714" y="427" on="0"/>
        <pt x="714" y="342" on="1"/>
        <pt x="714" y="300" on="0"/>
        <pt x="701" y="242" on="1"/>
      </contour>
      <contour>
        <pt x="151" y="149" on="1"/>
        <pt x="151" y="80" on="0"/>
        <pt x="229" y="80" on="1"/>
        <pt x="303" y="80" on="0"/>
        <pt x="342" y="106" on="1"/>
        <pt x="323" y="149" on="0"/>
        <pt x="316" y="211" on="1"/>
        <pt x="288" y="213" on="0"/>
        <pt x="257" y="213" on="1"/>
        <pt x="151" y="213" on="0"/>
      </contour>
      <contour>
        <pt x="602" y="318" on="1"/>
        <pt x="602" y="324" on="1"/>
        <pt x="602" y="423" on="0"/>
        <pt x="529" y="423" on="1"/>
        <pt x="444" y="423" on="0"/>
        <pt x="427" y="318" on="1"/>
      </contour>
    </TTGlyph>
    <TTGlyph name="agrave" xMin="21" yMin="-13" xMax="516" yMax="774">
      <contour>
        <pt x="516" y="17" on="1"/>
        <pt x="465" y="-11" on="0"/>
        <pt x="344" y="-11" on="0"/>
        <pt x="315" y="35" on="1"/>
        <pt x="257" y="-13" on="0"/>
        <pt x="101" y="-13" on="0"/>
        <pt x="21" y="66" on="0"/>
        <pt x="21" y="134" on="1"/>
        <pt x="21" y="179" on="0"/>
        <pt x="59" y="243" on="0"/>
        <pt x="89" y="258" on="1"/>
        <pt x="144" y="284" on="0"/>
        <pt x="263" y="284" on="0"/>
        <pt x="299" y="281" on="1"/>
        <pt x="299" y="330" on="1"/>
        <pt x="299" y="382" on="0"/>
        <pt x="257" y="412" on="0"/>
        <pt x="156" y="412" on="0"/>
        <pt x="93" y="391" on="1"/>
        <pt x="64" y="479" on="1"/>
        <pt x="101" y="501" on="0"/>
        <pt x="208" y="524" on="0"/>
        <pt x="246" y="524" on="1"/>
        <pt x="348" y="524" on="0"/>
        <pt x="435" y="437" on="0"/>
        <pt x="435" y="332" on="1"/>
        <pt x="435" y="122" on="1"/>
        <pt x="435" y="94" on="0"/>
        <pt x="460" y="94" on="1"/>
        <pt x="473" y="94" on="0"/>
        <pt x="497" y="100" on="1"/>
      </contour>
      <contour>
        <pt x="217" y="80" on="1"/>
        <pt x="259" y="80" on="0"/>
        <pt x="299" y="106" on="1"/>
        <pt x="299" y="211" on="1"/>
        <pt x="271" y="213" on="0"/>
        <pt x="250" y="213" on="1"/>
        <pt x="151" y="213" on="0"/>
        <pt x="151" y="149" on="1"/>
        <pt x="151" y="80" on="0"/>
      </contour>
      <contour>
        <pt x="320" y="587" on="1"/>
        <pt x="116" y="663" on="1"/>
        <pt x="165" y="774" on="1"/>
        <pt x="354" y="665" on="1"/>
      </contour>
    </TTGlyph>
    <TTGlyph name="ampersand" xMin="35" yMin="-33" xMax="673" yMax="683">
      <contour>
        <pt x="202" y="297" on="0"/>
        <pt x="162" y="231" on="0"/>
        <pt x="162" y="154" on="0"/>
        <pt x="217" y="95" on="0"/>
        <pt x="336" y="95" on="0"/>
        <pt x="383" y="139" on="1"/>
        <pt x="237" y="314" on="1"/>
      </contour>
      <contour>
        <pt x="111" y="607" on="0"/>
        <pt x="209" y="683" on="0"/>
        <pt x="361" y="683" on="0"/>
        <pt x="462" y="646" on="1"/>
        <pt x="429" y="549" on="1"/>
        <pt x="352" y="582" on="0"/>
        <pt x="239" y="582" on="0"/>
        <pt x="239" y="530" on="1"/>
        <pt x="239" y="493" on="0"/>
        <pt x="287" y="436" on="1"/>
        <pt x="458" y="230" on="1"/>
        <pt x="501" y="314" on="0"/>
        <pt x="509" y="426" on="1"/>
        <pt x="617" y="426" on="1"/>
        <pt x="611" y="261" on="0"/>
        <pt x="528" y="151" on="1"/>
        <pt x="581" y="105" on="0"/>
        <pt x="673" y="60" on="1"/>
        <pt x="620" y="-33" on="1"/>
        <pt x="583" y="-17" on="0"/>
        <pt x="482" y="40" on="0"/>
        <pt x="450" y="65" on="1"/>
        <pt x="376" y="-13" on="0"/>
        <pt x="164" y="-13" on="0"/>
        <pt x="35" y="91" on="0"/>
        <pt x="35" y="190" on="1"/>
        <pt x="35" y="317" on="0"/>
        <pt x="178" y="390" on="1"/>
        <pt x="111" y="476" on="0"/>
      </contour>
    </TTGlyph>
    <TTGlyph name="aring" xMin="21" yMin="-13" xMax="516" yMax="802">
      <contour>
        <pt x="516" y="17" on="1"/>
        <pt x="465" y="-11" on="0"/>
        <pt x="344" y="-11" on="0"/>
        <pt x="315" y="35" on="1"/>
        <pt x="257" y="-13" on="0"/>
        <pt x="101" y="-13" on="0"/>
        <pt x="21" y="66" on="0"/>
        <pt x="21" y="134" on="1"/>
        <pt x="21" y="179" on="0"/>
        <pt x="59" y="243" on="0"/>
        <pt x="89" y="258" on="1"/>
        <pt x="144" y="284" on="0"/>
        <pt x="263" y="284" on="0"/>
        <pt x="299" y="281" on="1"/>
        <pt x="299" y="330" on="1"/>
        <pt x="299" y="382" on="0"/>
        <pt x="257" y="412" on="0"/>
        <pt x="156" y="412" on="0"/>
        <pt x="93" y="391" on="1"/>
        <pt x="64" y="479" on="1"/>
        <pt x="101" y="501" on="0"/>
        <pt x="208" y="524" on="0"/>
        <pt x="246" y="524" on="1"/>
        <pt x="348" y="524" on="0"/>
        <pt x="435" y="437" on="0"/>
        <pt x="435" y="332" on="1"/>
        <pt x="435" y="122" on="1"/>
        <pt x="435" y="94" on="0"/>
        <pt x="460" y="94" on="1"/>
        <pt x="473" y="94" on="0"/>
        <pt x="497" y="100" on="1"/>
      </contour>
      <contour>
        <pt x="217" y="80" on="1"/>
        <pt x="259" y="80" on="0"/>
        <pt x="299" y="106" on="1"/>
        <pt x="299" y="211" on="1"/>
        <pt x="271" y="213" on="0"/>
        <pt x="250" y="213" on="1"/>
        <pt x="151" y="213" on="0"/>
        <pt x="151" y="149" on="1"/>
        <pt x="151" y="80" on="0"/>
      </contour>
      <contour>
        <pt x="346" y="744" on="0"/>
        <pt x="346" y="658" on="0"/>
        <pt x="292" y="597" on="0"/>
        <pt x="192" y="597" on="0"/>
        <pt x="140" y="657" on="0"/>
        <pt x="140" y="743" on="0"/>
        <pt x="193" y="802" on="0"/>
        <pt x="293" y="802" on="0"/>
      </contour>
      <contour>
        <pt x="243" y="660" on="1"/>
        <pt x="279" y="660" on="0"/>
        <pt x="279" y="738" on="0"/>
        <pt x="208" y="738" on="0"/>
        <pt x="208" y="699" on="1"/>
        <pt x="208" y="683" on="0"/>
        <pt x="225" y="660" on="0"/>
      </contour>
    </TTGlyph>
    <TTGlyph name="asciicircum" xMin="28" yMin="295" xMax="470" yMax="643">
      <contour>
        <pt x="204" y="643" on="1"/>
        <pt x="292" y="643" on="1"/>
        <pt x="470" y="295" on="1"/>
        <pt x="348" y="295" on="1"/>
        <pt x="249" y="495" on="1"/>
        <pt x="148" y="295" on="1"/>
        <pt x="28" y="295" on="1"/>
      </contour>
    </TTGlyph>
    <TTGlyph name="asciitilde" xMin="34" yMin="196" xMax="534" yMax="375">
      <contour>
        <pt x="398" y="308" on="1"/>
        <pt x="439" y="308" on="0"/>
        <pt x="471" y="354" on="1"/>
        <pt x="534" y="299" on="1"/>
        <pt x="476" y="196" on="0"/>
        <pt x="390" y="196" on="1"/>
        <pt x="343" y="196" on="0"/>
        <pt x="207" y="262" on="0"/>
        <pt x="129" y="262" on="0"/>
        <pt x="97" y="216" on="1"/>
        <pt x="34" y="271" on="1"/>
        <pt x="92" y="375" on="0"/>
        <pt x="171" y="375" on="1"/>
        <pt x="223" y="375" on="0"/>
        <pt x="299" y="339" on="1"/>
        <pt x="369" y="308" on="0"/>
      </contour>
    </TTGlyph>
    <TTGlyph name="asterisk" xMin="34" yMin="368" xMax="358" yMax="686">
      <contour>
        <pt x="260" y="527" on="1"/>
        <pt x="358" y="489" on="1"/>
        <pt x="307" y="407" on="1"/>
        <pt x="233" y="473" on="1"/>
        <pt x="243" y="368" on="1"/>
        <pt x="148" y="368" on="1"/>
        <pt x="158" y="476" on="1"/>
        <pt x="83" y="407" on="1"/>
        <pt x="34" y="491" on="1"/>
        <pt x="132" y="526" on="1"/>
        <pt x="35" y="562" on="1"/>
        <pt x="82" y="649" on="1"/>
        <pt x="158" y="579" on="1"/>
        <pt x="148" y="686" on="1"/>
        <pt x="242" y="686" on="1"/>
        <pt x="233" y="580" on="1"/>
        <pt x="308" y="648" on="1"/>
        <pt x="358" y="562" on="1"/>
      </contour>
    </TTGlyph>
    <TTGlyph name="at" xMin="36" yMin="-86" xMax="775" yMax="680">
      <contour>
        <pt x="441" y="415" on="1"/>
        <pt x="396" y="415" on="0"/>
        <pt x="336" y="334" on="0"/>
        <pt x="336" y="273" on="1"/>
        <pt x="336" y="192" on="0"/>
        <pt x="388" y="192" on="1"/>
        <pt x="414" y="192" on="0"/>
        <pt x="450" y="238" on="0"/>
        <pt x="452" y="273" on="1"/>
        <pt x="463" y="412" on="1"/>
        <pt x="456" y="415" on="0"/>
      </contour>
      <contour>
        <pt x="394" y="-86" on="1"/>
        <pt x="239" y="-86" on="0"/>
        <pt x="140" y="-2" on="1"/>
        <pt x="91" y="41" on="0"/>
        <pt x="36" y="185" on="0"/>
        <pt x="36" y="280" on="1"/>
        <pt x="36" y="460" on="0"/>
        <pt x="251" y="680" on="0"/>
        <pt x="438" y="680" on="1"/>
        <pt x="604" y="680" on="0"/>
        <pt x="775" y="509" on="0"/>
        <pt x="775" y="358" on="1"/>
        <pt x="775" y="101" on="0"/>
        <pt x="586" y="101" on="1"/>
        <pt x="557" y="101" on="0"/>
        <pt x="500" y="134" on="0"/>
        <pt x="488" y="159" on="1"/>
        <pt x="470" y="135" on="0"/>
        <pt x="409" y="100" on="0"/>
        <pt x="379" y="100" on="1"/>
        <pt x="310" y="100" on="0"/>
        <pt x="226" y="188" on="0"/>
        <pt x="226" y="266" on="1"/>
        <pt x="226" y="372" on="0"/>
        <pt x="348" y="504" on="0"/>
        <pt x="440" y="504" on="1"/>
        <pt x="500" y="504" on="0"/>
        <pt x="580" y="469" on="1"/>
        <pt x="562" y="261" on="1"/>
        <pt x="561" y="249" on="0"/>
        <pt x="561" y="210" on="0"/>
        <pt x="580" y="194" on="0"/>
        <pt x="604" y="194" on="1"/>
        <pt x="667" y="194" on="0"/>
        <pt x="667" y="359" on="1"/>
        <pt x="667" y="464" on="0"/>
        <pt x="551" y="582" on="0"/>
        <pt x="436" y="582" on="1"/>
        <pt x="300" y="582" on="0"/>
        <pt x="148" y="422" on="0"/>
        <pt x="148" y="282" on="1"/>
        <pt x="148" y="109" on="0"/>
        <pt x="265" y="45" on="1"/>
        <pt x="326" y="12" on="0"/>
        <pt x="493" y="12" on="0"/>
        <pt x="614" y="54" on="1"/>
        <pt x="639" y="-32" on="1"/>
        <pt x="516" y="-86" on="0"/>
      </contour>
    </TTGlyph>
    <TTGlyph name="atilde" xMin="21" yMin="-13" xMax="516" yMax="728">
      <contour>
        <pt x="516" y="17" on="1"/>
        <pt x="465" y="-11" on="0"/>
        <pt x="344" y="-11" on="0"/>
        <pt x="315" y="35" on="1"/>
        <pt x="257" y="-13" on="0"/>
        <pt x="101" y="-13" on="0"/>
        <pt x="21" y="66" on="0"/>
        <pt x="21" y="134" on="1"/>
        <pt x="21" y="179" on="0"/>
        <pt x="59" y="243" on="0"/>
        <pt x="89" y="258" on="1"/>
        <pt x="144" y="284" on="0"/>
        <pt x="263" y="284" on="0"/>
        <pt x="299" y="281" on="1"/>
        <pt x="299" y="330" on="1"/>
        <pt x="299" y="382" on="0"/>
        <pt x="257" y="412" on="0"/>
        <pt x="156" y="412" on="0"/>
        <pt x="93" y="391" on="1"/>
        <pt x="64" y="479" on="1"/>
        <pt x="101" y="501" on="0"/>
        <pt x="208" y="524" on="0"/>
        <pt x="246" y="524" on="1"/>
        <pt x="348" y="524" on="0"/>
        <pt x="435" y="437" on="0"/>
        <pt x="435" y="332" on="1"/>
        <pt x="435" y="122" on="1"/>
        <pt x="435" y="94" on="0"/>
        <pt x="460" y="94" on="1"/>
        <pt x="473" y="94" on="0"/>
        <pt x="497" y="100" on="1"/>
      </contour>
      <contour>
        <pt x="217" y="80" on="1"/>
        <pt x="259" y="80" on="0"/>
        <pt x="299" y="106" on="1"/>
        <pt x="299" y="211" on="1"/>
        <pt x="271" y="213" on="0"/>
        <pt x="250" y="213" on="1"/>
        <pt x="151" y="213" on="0"/>
        <pt x="151" y="149" on="1"/>
        <pt x="151" y="80" on="0"/>
      </contour>
      <contour>
        <pt x="196" y="728" on="0"/>
        <pt x="286" y="685" on="0"/>
        <pt x="332" y="685" on="0"/>
        <pt x="361" y="720" on="1"/>
        <pt x="410" y="666" on="1"/>
        <pt x="392" y="636" on="0"/>
        <pt x="331" y="591" on="0"/>
        <pt x="276" y="591" on="0"/>
        <pt x="188" y="634" on="0"/>
        <pt x="143" y="634" on="0"/>
        <pt x="114" y="599" on="1"/>
        <pt x="65" y="653" on="1"/>
        <pt x="83" y="683" on="0"/>
        <pt x="142" y="728" on="0"/>
      </contour>
    </TTGlyph>
    <TTGlyph name="b" xMin="52" yMin="-13" xMax="508" yMax="701">
      <contour>
        <pt x="192" y="701" on="1"/>
        <pt x="192" y="480" on="1"/>
        <pt x="213" y="497" on="0"/>
        <pt x="284" y="522" on="0"/>
        <pt x="320" y="522" on="1"/>
        <pt x="402" y="522" on="0"/>
        <pt x="508" y="397" on="0"/>
        <pt x="508" y="281" on="1"/>
        <pt x="508" y="138" on="0"/>
        <pt x="392" y="-13" on="0"/>
        <pt x="264" y="-13" on="1"/>
        <pt x="209" y="-13" on="0"/>
        <pt x="83" y="8" on="0"/>
        <pt x="52" y="22" on="1"/>
        <pt x="52" y="701" on="1"/>
      </contour>
      <contour>
        <pt x="244" y="100" on="1"/>
        <pt x="313" y="100" on="0"/>
        <pt x="367" y="184" on="0"/>
        <pt x="367" y="344" on="0"/>
        <pt x="324" y="408" on="0"/>
        <pt x="236" y="408" on="0"/>
        <pt x="192" y="381" on="1"/>
        <pt x="192" y="105" on="1"/>
        <pt x="219" y="100" on="0"/>
      </contour>
    </TTGlyph>
    <TTGlyph name="backslash" xMin="19" yMin="-118" xMax="409" yMax="762">
      <contour>
        <pt x="302" y="-118" on="1"/>
        <pt x="19" y="731" on="1"/>
        <pt x="124" y="762" on="1"/>
        <pt x="409" y="-89" on="1"/>
      </contour>
    </TTGlyph>
    <TTGlyph name="bar" xMin="59" yMin="-43" xMax="175" yMax="694">
      <contour>
        <pt x="59" y="-43" on="1"/>
        <pt x="59" y="694" on="1"/>
        <pt x="175" y="694" on="1"/>
        <pt x="175" y="-43" on="1"/>
      </contour>
    </TTGlyph>
    <TTGlyph name="braceleft" xMin="18" yMin="-130" xMax="343" yMax="754">
      <contour>
        <pt x="248" y="-35" on="1"/>
        <pt x="343" y="-35" on="1"/>
        <pt x="343" y="-130" on="1"/>
        <pt x="254" y="-130" on="1"/>
        <pt x="181" y="-130" on="0"/>
        <pt x="94" y="-38" on="0"/>
        <pt x="91" y="43" on="1"/>
        <pt x="90" y="66" on="0"/>
        <pt x="87" y="171" on="0"/>
        <pt x="86" y="199" on="0"/>
        <pt x="85" y="225" on="0"/>
        <pt x="84" y="237" on="0"/>
        <pt x="82" y="245" on="1"/>
        <pt x="77" y="260" on="0"/>
        <pt x="61" y="260" on="1"/>
        <pt x="18" y="260" on="1"/>
        <pt x="18" y="364" on="1"/>
        <pt x="61" y="364" on="1"/>
        <pt x="82" y="364" on="0"/>
        <pt x="84" y="393" on="1"/>
        <pt x="86" y="411" on="0"/>
        <pt x="86" y="432" on="1"/>
        <pt x="89" y="533" on="0"/>
        <pt x="91" y="581" on="1"/>
        <pt x="94" y="662" on="0"/>
        <pt x="181" y="754" on="0"/>
        <pt x="254" y="754" on="1"/>
        <pt x="343" y="754" on="1"/>
        <pt x="343" y="659" on="1"/>
        <pt x="248" y="659" on="1"/>
        <pt x="208" y="659" on="0"/>
        <pt x="208" y="579" on="1"/>
        <pt x="206" y="450" on="1"/>
        <pt x="204" y="350" on="0"/>
        <pt x="161" y="312" on="1"/>
        <pt x="204" y="274" on="0"/>
        <pt x="206" y="174" on="1"/>
        <pt x="208" y="45" on="1"/>
        <pt x="208" y="-35" on="0"/>
      </contour>
    </TTGlyph>
    <TTGlyph name="braceright" xMin="26" yMin="-130" xMax="351" yMax="754">
      <contour>
        <pt x="121" y="659" on="1"/>
        <pt x="26" y="659" on="1"/>
        <pt x="26" y="754" on="1"/>
        <pt x="115" y="754" on="1"/>
        <pt x="188" y="754" on="0"/>
        <pt x="275" y="662" on="0"/>
        <pt x="278" y="581" on="1"/>
        <pt x="279" y="558" on="0"/>
        <pt x="282" y="453" on="0"/>
        <pt x="283" y="425" on="0"/>
        <pt x="284" y="399" on="0"/>
        <pt x="285" y="387" on="0"/>
        <pt x="288" y="379" on="1"/>
        <pt x="292" y="364" on="0"/>
        <pt x="308" y="364" on="1"/>
        <pt x="351" y="364" on="1"/>
        <pt x="351" y="260" on="1"/>
        <pt x="308" y="260" on="1"/>
        <pt x="287" y="260" on="0"/>
        <pt x="284" y="231" on="1"/>
        <pt x="283" y="213" on="0"/>
        <pt x="282" y="192" on="1"/>
        <pt x="280" y="91" on="0"/>
        <pt x="278" y="43" on="1"/>
        <pt x="275" y="-38" on="0"/>
        <pt x="188" y="-130" on="0"/>
        <pt x="115" y="-130" on="1"/>
        <pt x="26" y="-130" on="1"/>
        <pt x="26" y="-35" on="1"/>
        <pt x="121" y="-35" on="1"/>
        <pt x="161" y="-35" on="0"/>
        <pt x="161" y="45" on="1"/>
        <pt x="163" y="174" on="1"/>
        <pt x="165" y="274" on="0"/>
        <pt x="208" y="312" on="1"/>
        <pt x="165" y="350" on="0"/>
        <pt x="163" y="450" on="1"/>
        <pt x="161" y="579" on="1"/>
        <pt x="161" y="659" on="0"/>
      </contour>
    </TTGlyph>
    <TTGlyph name="bracketleft" xMin="58" yMin="-131" xMax="319" yMax="748">
      <contour>
        <pt x="58" y="-131" on="1"/>
        <pt x="58" y="748" on="1"/>
        <pt x="319" y="748" on="1"/>
        <pt x="319" y="648" on="1"/>
        <pt x="189" y="640" on="1"/>
        <pt x="189" y="-24" on="1"/>
        <pt x="319" y="-30" on="1"/>
        <pt x="319" y="-131" on="1"/>
      </contour>
    </TTGlyph>
    <TTGlyph name="bracketright" xMin="27" yMin="-131" xMax="288" yMax="748">
      <contour>
        <pt x="288" y="748" on="1"/>
        <pt x="288" y="-131" on="1"/>
        <pt x="27" y="-131" on="1"/>
        <pt x="27" y="-30" on="1"/>
        <pt x="157" y="-24" on="1"/>
        <pt x="157" y="640" on="1"/>
        <pt x="27" y="648" on="1"/>
        <pt x="27" y="748" on="1"/>
      </contour>
    </TTGlyph>
    <TTGlyph name="breve" xMin="42" yMin="548" xMax="258" yMax="658">
      <contour>
        <pt x="110" y="658" on="1"/>
        <pt x="110" y="641" on="0"/>
        <pt x="129" y="611" on="0"/>
        <pt x="172" y="611" on="0"/>
        <pt x="191" y="640" on="0"/>
        <pt x="191" y="658" on="1"/>
        <pt x="258" y="658" on="1"/>
        <pt x="258" y="613" on="0"/>
        <pt x="202" y="548" on="0"/>
        <pt x="96" y="548" on="0"/>
        <pt x="42" y="612" on="0"/>
        <pt x="42" y="658" on="1"/>
      </contour>
    </TTGlyph>
    <TTGlyph name="brokenbar" xMin="60" yMin="-43" xMax="176" yMax="694">
      <contour>
        <pt x="60" y="407" on="1"/>
        <pt x="60" y="694" on="1"/>
        <pt x="176" y="694" on="1"/>
        <pt x="176" y="407" on="1"/>
      </contour>
      <contour>
        <pt x="60" y="-43" on="1"/>
        <pt x="60" y="242" on="1"/>
        <pt x="176" y="242" on="1"/>
        <pt x="176" y="-43" on="1"/>
      </contour>
    </TTGlyph>
    <TTGlyph name="bullet" xMin="62" yMin="197" xMax="295" yMax="431">
      <contour>
        <pt x="62" y="264" on="0"/>
        <pt x="62" y="364" on="0"/>
        <pt x="129" y="431" on="0"/>
        <pt x="228" y="431" on="0"/>
        <pt x="295" y="364" on="0"/>
        <pt x="295" y="264" on="0"/>
        <pt x="228" y="197" on="0"/>
        <pt x="129" y="197" on="0"/>
      </contour>
    </TTGlyph>
    <TTGlyph name="c" xMin="32" yMin="-13" xMax="412" yMax="522">
      <contour>
        <pt x="271" y="-13" on="1"/>
        <pt x="168" y="-13" on="0"/>
        <pt x="32" y="120" on="0"/>
        <pt x="32" y="389" on="0"/>
        <pt x="166" y="522" on="0"/>
        <pt x="271" y="522" on="1"/>
        <pt x="333" y="522" on="0"/>
        <pt x="412" y="499" on="1"/>
        <pt x="385" y="398" on="1"/>
        <pt x="324" y="412" on="0"/>
        <pt x="287" y="412" on="1"/>
        <pt x="228" y="412" on="0"/>
        <pt x="165" y="341" on="0"/>
        <pt x="165" y="161" on="0"/>
        <pt x="234" y="91" on="0"/>
        <pt x="296" y="91" on="1"/>
        <pt x="328" y="91" on="0"/>
        <pt x="394" y="101" on="1"/>
        <pt x="411" y="10" on="1"/>
        <pt x="332" y="-13" on="0"/>
      </contour>
    </TTGlyph>
    <TTGlyph name="caron" xMin="61" yMin="571" xMax="357" yMax="742">
      <contour>
        <pt x="125" y="742" on="1"/>
        <pt x="209" y="657" on="1"/>
        <pt x="293" y="742" on="1"/>
        <pt x="357" y="690" on="1"/>
        <pt x="246" y="571" on="1"/>
        <pt x="172" y="571" on="1"/>
        <pt x="61" y="690" on="1"/>
      </contour>
    </TTGlyph>
    <TTGlyph name="ccedilla" xMin="32" yMin="-295" xMax="412" yMax="522">
      <contour>
        <pt x="353" y="-133" on="1"/>
        <pt x="353" y="-230" on="0"/>
        <pt x="225" y="-295" on="1"/>
        <pt x="174" y="-230" on="1"/>
        <pt x="232" y="-187" on="0"/>
        <pt x="232" y="-139" on="1"/>
        <pt x="232" y="-111" on="0"/>
        <pt x="211" y="-57" on="1"/>
        <pt x="335" y="-57" on="1"/>
        <pt x="353" y="-96" on="0"/>
      </contour>
      <contour>
        <pt x="271" y="-13" on="1"/>
        <pt x="168" y="-13" on="0"/>
        <pt x="32" y="120" on="0"/>
        <pt x="32" y="389" on="0"/>
        <pt x="166" y="522" on="0"/>
        <pt x="271" y="522" on="1"/>
        <pt x="333" y="522" on="0"/>
        <pt x="412" y="499" on="1"/>
        <pt x="385" y="398" on="1"/>
        <pt x="324" y="412" on="0"/>
        <pt x="287" y="412" on="1"/>
        <pt x="228" y="412" on="0"/>
        <pt x="165" y="341" on="0"/>
        <pt x="165" y="161" on="0"/>
        <pt x="234" y="91" on="0"/>
        <pt x="296" y="91" on="1"/>
        <pt x="328" y="91" on="0"/>
        <pt x="394" y="101" on="1"/>
        <pt x="411" y="10" on="1"/>
        <pt x="332" y="-13" on="0"/>
      </contour>
    </TTGlyph>
    <TTGlyph name="cedilla" xMin="53" yMin="-295" xMax="232" yMax="-57">
      <contour>
        <pt x="232" y="-133" on="1"/>
        <pt x="232" y="-230" on="0"/>
        <pt x="104" y="-295" on="1"/>
        <pt x="53" y="-230" on="1"/>
        <pt x="111" y="-187" on="0"/>
        <pt x="111" y="-139" on="1"/>
        <pt x="111" y="-111" on="0"/>
        <pt x="90" y="-57" on="1"/>
        <pt x="214" y="-57" on="1"/>
        <pt x="232" y="-96" on="0"/>
      </contour>
    </TTGlyph>
    <TTGlyph name="cent" xMin="26" yMin="-36" xMax="406" yMax="719">
      <contour>
        <pt x="281" y="496" on="1"/>
        <pt x="222" y="496" on="0"/>
        <pt x="159" y="425" on="0"/>
        <pt x="159" y="245" on="0"/>
        <pt x="228" y="175" on="0"/>
        <pt x="290" y="175" on="1"/>
        <pt x="322" y="175" on="0"/>
        <pt x="388" y="185" on="1"/>
        <pt x="405" y="94" on="1"/>
        <pt x="353" y="78" on="0"/>
        <pt x="305" y="72" on="1"/>
        <pt x="311" y="-36" on="1"/>
        <pt x="221" y="-36" on="1"/>
        <pt x="227" y="73" on="1"/>
        <pt x="138" y="85" on="0"/>
        <pt x="26" y="217" on="0"/>
        <pt x="26" y="460" on="0"/>
        <pt x="136" y="592" on="0"/>
        <pt x="227" y="603" on="1"/>
        <pt x="221" y="719" on="1"/>
        <pt x="311" y="719" on="1"/>
        <pt x="304" y="604" on="1"/>
        <pt x="342" y="601" on="0"/>
        <pt x="406" y="583" on="1"/>
        <pt x="379" y="482" on="1"/>
        <pt x="318" y="496" on="0"/>
      </contour>
    </TTGlyph>
    <TTGlyph name="circumflex" xMin="42" yMin="591" xMax="338" yMax="762">
      <contour>
        <pt x="190" y="676" on="1"/>
        <pt x="106" y="591" on="1"/>
        <pt x="42" y="643" on="1"/>
        <pt x="153" y="762" on="1"/>
        <pt x="227" y="762" on="1"/>
        <pt x="338" y="643" on="1"/>
        <pt x="274" y="591" on="1"/>
      </contour>
    </TTGlyph>
    <TTGlyph name="colon" xMin="50" yMin="-7" xMax="216" yMax="455">
      <contour>
        <pt x="50" y="110" on="0"/>
        <pt x="98" y="158" on="0"/>
        <pt x="166" y="158" on="0"/>
        <pt x="214" y="110" on="0"/>
        <pt x="214" y="43" on="0"/>
        <pt x="166" y="-7" on="0"/>
        <pt x="98" y="-7" on="0"/>
        <pt x="50" y="42" on="0"/>
      </contour>
      <contour>
        <pt x="52" y="407" on="0"/>
        <pt x="100" y="455" on="0"/>
        <pt x="168" y="455" on="0"/>
        <pt x="216" y="407" on="0"/>
        <pt x="216" y="340" on="0"/>
        <pt x="168" y="290" on="0"/>
        <pt x="100" y="290" on="0"/>
        <pt x="52" y="339" on="0"/>
      </contour>
    </TTGlyph>
    <TTGlyph name="comma" xMin="-20" yMin="-128" xMax="172" yMax="116">
      <contour>
        <pt x="172" y="59" on="1"/>
        <pt x="172" y="-46" on="0"/>
        <pt x="83" y="-128" on="1"/>
        <pt x="-20" y="-128" on="1"/>
        <pt x="62" y="-33" on="0"/>
        <pt x="62" y="44" on="1"/>
        <pt x="62" y="77" on="0"/>
        <pt x="45" y="116" on="1"/>
        <pt x="160" y="116" on="1"/>
        <pt x="172" y="90" on="0"/>
      </contour>
    </TTGlyph>
    <TTGlyph name="copyright" xMin="38" yMin="-18" xMax="678" yMax="622">
      <contour>
        <pt x="452" y="414" on="1"/>
        <pt x="414" y="438" on="0"/>
        <pt x="325" y="438" on="0"/>
        <pt x="265" y="370" on="0"/>
        <pt x="265" y="226" on="0"/>
        <pt x="325" y="157" on="0"/>
        <pt x="412" y="157" on="0"/>
        <pt x="459" y="184" on="1"/>
        <pt x="481" y="135" on="1"/>
        <pt x="429" y="98" on="0"/>
        <pt x="295" y="98" on="0"/>
        <pt x="195" y="199" on="0"/>
        <pt x="195" y="397" on="0"/>
        <pt x="295" y="498" on="0"/>
        <pt x="428" y="498" on="0"/>
        <pt x="476" y="466" on="1"/>
      </contour>
      <contour>
        <pt x="678" y="436" on="0"/>
        <pt x="678" y="168" on="0"/>
        <pt x="492" y="-18" on="0"/>
        <pt x="224" y="-18" on="0"/>
        <pt x="38" y="168" on="0"/>
        <pt x="38" y="436" on="0"/>
        <pt x="224" y="622" on="0"/>
        <pt x="492" y="622" on="0"/>
      </contour>
      <contour>
        <pt x="603" y="192" on="0"/>
        <pt x="603" y="412" on="0"/>
        <pt x="464" y="555" on="0"/>
        <pt x="252" y="555" on="0"/>
        <pt x="112" y="410" on="0"/>
        <pt x="112" y="190" on="0"/>
        <pt x="252" y="45" on="0"/>
        <pt x="464" y="45" on="0"/>
      </contour>
    </TTGlyph>
    <TTGlyph name="currency" xMin="31" yMin="-32" xMax="503" yMax="532">
      <contour>
        <pt x="178" y="68" on="1"/>
        <pt x="100" y="-32" on="1"/>
        <pt x="31" y="21" on="1"/>
        <pt x="110" y="122" on="1"/>
        <pt x="67" y="179" on="0"/>
        <pt x="67" y="325" on="0"/>
        <pt x="115" y="384" on="1"/>
        <pt x="115" y="384" on="0"/>
        <pt x="39" y="479" on="1"/>
        <pt x="108" y="532" on="1"/>
        <pt x="183" y="436" on="1"/>
        <pt x="226" y="454" on="0"/>
        <pt x="319" y="454" on="0"/>
        <pt x="354" y="438" on="1"/>
        <pt x="400" y="499" on="0"/>
        <pt x="428" y="532" on="1"/>
        <pt x="496" y="479" on="1"/>
        <pt x="426" y="388" on="1"/>
        <pt x="480" y="329" on="0"/>
        <pt x="480" y="174" on="0"/>
        <pt x="429" y="115" on="1"/>
        <pt x="503" y="21" on="1"/>
        <pt x="434" y="-32" on="1"/>
        <pt x="361" y="64" on="1"/>
        <pt x="328" y="47" on="0"/>
        <pt x="222" y="47" on="0"/>
      </contour>
      <contour>
        <pt x="161" y="202" on="0"/>
        <pt x="225" y="136" on="0"/>
        <pt x="322" y="136" on="0"/>
        <pt x="386" y="202" on="0"/>
        <pt x="386" y="299" on="0"/>
        <pt x="322" y="366" on="0"/>
        <pt x="225" y="366" on="0"/>
        <pt x="161" y="299" on="0"/>
      </contour>
    </TTGlyph>
    <TTGlyph name="d" xMin="34" yMin="-9" xMax="481" yMax="710">
      <contour>
        <pt x="34" y="244" on="1"/>
        <pt x="34" y="522" on="0"/>
        <pt x="251" y="522" on="1"/>
        <pt x="306" y="522" on="0"/>
        <pt x="340" y="504" on="1"/>
        <pt x="340" y="710" on="1"/>
        <pt x="481" y="710" on="1"/>
        <pt x="481" y="-7" on="1"/>
        <pt x="365" y="-7" on="1"/>
        <pt x="357" y="31" on="1"/>
        <pt x="301" y="-9" on="0"/>
        <pt x="224" y="-9" on="1"/>
        <pt x="130" y="-9" on="0"/>
        <pt x="34" y="127" on="0"/>
      </contour>
      <contour>
        <pt x="265" y="412" on="1"/>
        <pt x="168" y="412" on="0"/>
        <pt x="168" y="247" on="1"/>
        <pt x="168" y="96" on="0"/>
        <pt x="258" y="96" on="1"/>
        <pt x="304" y="96" on="0"/>
        <pt x="341" y="119" on="1"/>
        <pt x="341" y="398" on="1"/>
        <pt x="308" y="412" on="0"/>
      </contour>
    </TTGlyph>
    <TTGlyph name="dagger" xMin="24" yMin="0" xMax="394" yMax="669">
      <contour>
        <pt x="394" y="480" on="1"/>
        <pt x="394" y="392" on="1"/>
        <pt x="232" y="407" on="1"/>
        <pt x="257" y="0" on="1"/>
        <pt x="151" y="0" on="1"/>
        <pt x="176" y="407" on="1"/>
        <pt x="24" y="392" on="1"/>
        <pt x="24" y="480" on="1"/>
        <pt x="176" y="465" on="1"/>
        <pt x="149" y="669" on="1"/>
        <pt x="259" y="669" on="1"/>
        <pt x="232" y="465" on="1"/>
      </contour>
    </TTGlyph>
    <TTGlyph name="daggerdbl" xMin="43" yMin="0" xMax="376" yMax="674">
      <contour>
        <pt x="254" y="341" on="1"/>
        <pt x="233" y="215" on="1"/>
        <pt x="376" y="228" on="1"/>
        <pt x="376" y="150" on="1"/>
        <pt x="233" y="163" on="1"/>
        <pt x="257" y="0" on="1"/>
        <pt x="163" y="0" on="1"/>
        <pt x="186" y="163" on="1"/>
        <pt x="43" y="150" on="1"/>
        <pt x="43" y="228" on="1"/>
        <pt x="186" y="215" on="1"/>
        <pt x="166" y="341" on="1"/>
        <pt x="186" y="459" on="1"/>
        <pt x="43" y="446" on="1"/>
        <pt x="43" y="525" on="1"/>
        <pt x="186" y="511" on="1"/>
        <pt x="163" y="674" on="1"/>
        <pt x="257" y="674" on="1"/>
        <pt x="233" y="511" on="1"/>
        <pt x="376" y="525" on="1"/>
        <pt x="376" y="446" on="1"/>
        <pt x="233" y="459" on="1"/>
      </contour>
    </TTGlyph>
    <TTGlyph name="degree" xMin="35" yMin="443" xMax="276" yMax="683">
      <contour>
        <pt x="276" y="615" on="0"/>
        <pt x="276" y="515" on="0"/>
        <pt x="213" y="443" on="0"/>
        <pt x="96" y="443" on="0"/>
        <pt x="35" y="513" on="0"/>
        <pt x="35" y="614" on="0"/>
        <pt x="97" y="683" on="0"/>
        <pt x="214" y="683" on="0"/>
      </contour>
      <contour>
        <pt x="155" y="507" on="1"/>
        <pt x="208" y="507" on="0"/>
        <pt x="208" y="618" on="0"/>
        <pt x="155" y="618" on="1"/>
        <pt x="129" y="618" on="0"/>
        <pt x="104" y="586" on="0"/>
        <pt x="104" y="540" on="0"/>
        <pt x="129" y="507" on="0"/>
      </contour>
    </TTGlyph>
    <TTGlyph name="dieresis" xMin="17" yMin="596" xMax="339" yMax="735">
      <contour>
        <pt x="17" y="695" on="0"/>
        <pt x="56" y="735" on="0"/>
        <pt x="115" y="735" on="0"/>
        <pt x="155" y="695" on="0"/>
        <pt x="155" y="637" on="0"/>
        <pt x="115" y="596" on="0"/>
        <pt x="56" y="596" on="0"/>
        <pt x="17" y="637" on="0"/>
      </contour>
      <contour>
        <pt x="201" y="695" on="0"/>
        <pt x="241" y="735" on="0"/>
        <pt x="299" y="735" on="0"/>
        <pt x="339" y="695" on="0"/>
        <pt x="339" y="637" on="0"/>
        <pt x="299" y="596" on="0"/>
        <pt x="241" y="596" on="0"/>
        <pt x="201" y="637" on="0"/>
      </contour>
    </TTGlyph>
    <TTGlyph name="divide" xMin="40" yMin="51" xMax="497" yMax="501">
      <contour>
        <pt x="203" y="465" on="0"/>
        <pt x="242" y="501" on="0"/>
        <pt x="296" y="501" on="0"/>
        <pt x="333" y="465" on="0"/>
        <pt x="333" y="412" on="0"/>
        <pt x="296" y="372" on="0"/>
        <pt x="242" y="372" on="0"/>
        <pt x="203" y="412" on="0"/>
      </contour>
      <contour>
        <pt x="497" y="332" on="1"/>
        <pt x="497" y="223" on="1"/>
        <pt x="40" y="223" on="1"/>
        <pt x="40" y="332" on="1"/>
      </contour>
      <contour>
        <pt x="203" y="144" on="0"/>
        <pt x="242" y="180" on="0"/>
        <pt x="296" y="180" on="0"/>
        <pt x="333" y="144" on="0"/>
        <pt x="333" y="91" on="0"/>
        <pt x="296" y="51" on="0"/>
        <pt x="242" y="51" on="0"/>
        <pt x="203" y="91" on="0"/>
      </contour>
    </TTGlyph>
    <TTGlyph name="dollar" xMin="26" yMin="-111" xMax="469" yMax="786">
      <contour>
        <pt x="237" y="110" on="1"/>
        <pt x="330" y="110" on="0"/>
        <pt x="330" y="182" on="1"/>
        <pt x="330" y="217" on="0"/>
        <pt x="268" y="267" on="0"/>
        <pt x="162" y="316" on="0"/>
        <pt x="117" y="342" on="0"/>
        <pt x="90" y="366" on="1"/>
        <pt x="39" y="411" on="0"/>
        <pt x="39" y="572" on="0"/>
        <pt x="132" y="666" on="0"/>
        <pt x="208" y="677" on="1"/>
        <pt x="204" y="786" on="1"/>
        <pt x="295" y="786" on="1"/>
        <pt x="291" y="679" on="1"/>
        <pt x="355" y="674" on="0"/>
        <pt x="442" y="643" on="1"/>
        <pt x="402" y="534" on="1"/>
        <pt x="320" y="563" on="0"/>
        <pt x="262" y="563" on="1"/>
        <pt x="179" y="563" on="0"/>
        <pt x="178" y="497" on="1"/>
        <pt x="178" y="470" on="0"/>
        <pt x="214" y="443" on="0"/>
        <pt x="230" y="432" on="0"/>
        <pt x="279" y="407" on="0"/>
        <pt x="321" y="384" on="0"/>
        <pt x="356" y="363" on="0"/>
        <pt x="414" y="319" on="0"/>
        <pt x="430" y="300" on="1"/>
        <pt x="469" y="250" on="0"/>
        <pt x="469" y="109" on="0"/>
        <pt x="375" y="4" on="0"/>
        <pt x="292" y="-9" on="1"/>
        <pt x="296" y="-111" on="1"/>
        <pt x="205" y="-111" on="1"/>
        <pt x="208" y="-11" on="1"/>
        <pt x="100" y="-2" on="0"/>
        <pt x="26" y="33" on="1"/>
        <pt x="63" y="152" on="1"/>
        <pt x="155" y="110" on="0"/>
      </contour>
    </TTGlyph>
    <TTGlyph name="dotaccent" xMin="28" yMin="515" xMax="192" yMax="680">
      <contour>
        <pt x="28" y="632" on="0"/>
        <pt x="76" y="680" on="0"/>
        <pt x="144" y="680" on="0"/>
        <pt x="192" y="632" on="0"/>
        <pt x="192" y="565" on="0"/>
        <pt x="144" y="515" on="0"/>
        <pt x="76" y="515" on="0"/>
        <pt x="28" y="564" on="0"/>
      </contour>
    </TTGlyph>
    <TTGlyph name="dotlessi" xMin="53" yMin="0" xMax="193" yMax="524">
      <contour>
        <pt x="193" y="0" on="1"/>
        <pt x="53" y="0" on="1"/>
        <pt x="53" y="512" on="1"/>
        <pt x="193" y="524" on="1"/>
      </contour>
    </TTGlyph>
    <TTGlyph name="e" xMin="33" yMin="-13" xMax="448" yMax="522">
      <contour>
        <pt x="164" y="242" on="1"/>
        <pt x="166" y="92" on="0"/>
        <pt x="296" y="92" on="1"/>
        <pt x="357" y="92" on="0"/>
        <pt x="417" y="115" on="1"/>
        <pt x="441" y="20" on="1"/>
        <pt x="364" y="-13" on="0"/>
        <pt x="270" y="-13" on="1"/>
        <pt x="33" y="-13" on="0"/>
        <pt x="33" y="266" on="1"/>
        <pt x="33" y="376" on="0"/>
        <pt x="151" y="522" on="0"/>
        <pt x="262" y="522" on="1"/>
        <pt x="351" y="522" on="0"/>
        <pt x="448" y="427" on="0"/>
        <pt x="448" y="342" on="1"/>
        <pt x="448" y="292" on="0"/>
        <pt x="435" y="242" on="1"/>
      </contour>
      <contour>
        <pt x="336" y="318" on="1"/>
        <pt x="336" y="324" on="1"/>
        <pt x="336" y="423" on="0"/>
        <pt x="266" y="423" on="1"/>
        <pt x="182" y="423" on="0"/>
        <pt x="165" y="318" on="1"/>
      </contour>
    </TTGlyph>
    <TTGlyph name="eacute" xMin="33" yMin="-13" xMax="448" yMax="774">
      <contour>
        <pt x="377" y="663" on="1"/>
        <pt x="173" y="587" on="1"/>
        <pt x="139" y="665" on="1"/>
        <pt x="328" y="774" on="1"/>
      </contour>
      <contour>
        <pt x="164" y="242" on="1"/>
        <pt x="166" y="92" on="0"/>
        <pt x="296" y="92" on="1"/>
        <pt x="357" y="92" on="0"/>
        <pt x="417" y="115" on="1"/>
        <pt x="441" y="20" on="1"/>
        <pt x="364" y="-13" on="0"/>
        <pt x="270" y="-13" on="1"/>
        <pt x="33" y="-13" on="0"/>
        <pt x="33" y="266" on="1"/>
        <pt x="33" y="376" on="0"/>
        <pt x="151" y="522" on="0"/>
        <pt x="262" y="522" on="1"/>
        <pt x="351" y="522" on="0"/>
        <pt x="448" y="427" on="0"/>
        <pt x="448" y="342" on="1"/>
        <pt x="448" y="292" on="0"/>
        <pt x="435" y="242" on="1"/>
      </contour>
      <contour>
        <pt x="336" y="318" on="1"/>
        <pt x="336" y="324" on="1"/>
        <pt x="336" y="423" on="0"/>
        <pt x="266" y="423" on="1"/>
        <pt x="182" y="423" on="0"/>
        <pt x="165" y="318" on="1"/>
      </contour>
    </TTGlyph>
    <TTGlyph name="ecircumflex" xMin="33" yMin="-13" xMax="448" yMax="762">
      <contour>
        <pt x="448" y="342" on="1"/>
        <pt x="448" y="292" on="0"/>
        <pt x="435" y="242" on="1"/>
        <pt x="164" y="242" on="1"/>
        <pt x="166" y="92" on="0"/>
        <pt x="296" y="92" on="1"/>
        <pt x="357" y="92" on="0"/>
        <pt x="417" y="115" on="1"/>
        <pt x="441" y="20" on="1"/>
        <pt x="364" y="-13" on="0"/>
        <pt x="270" y="-13" on="1"/>
        <pt x="33" y="-13" on="0"/>
        <pt x="33" y="266" on="1"/>
        <pt x="33" y="376" on="0"/>
        <pt x="151" y="522" on="0"/>
        <pt x="262" y="522" on="1"/>
        <pt x="351" y="522" on="0"/>
        <pt x="448" y="427" on="0"/>
      </contour>
      <contour>
        <pt x="336" y="318" on="1"/>
        <pt x="336" y="324" on="1"/>
        <pt x="336" y="423" on="0"/>
        <pt x="266" y="423" on="1"/>
        <pt x="182" y="423" on="0"/>
        <pt x="165" y="318" on="1"/>
      </contour>
      <contour>
        <pt x="256" y="676" on="1"/>
        <pt x="172" y="591" on="1"/>
        <pt x="108" y="643" on="1"/>
        <pt x="219" y="762" on="1"/>
        <pt x="293" y="762" on="1"/>
        <pt x="404" y="643" on="1"/>
        <pt x="340" y="591" on="1"/>
      </contour>
    </TTGlyph>
    <TTGlyph name="edieresis" xMin="33" yMin="-13" xMax="448" yMax="735">
      <contour>
        <pt x="96" y="695" on="0"/>
        <pt x="135" y="735" on="0"/>
        <pt x="194" y="735" on="0"/>
        <pt x="234" y="695" on="0"/>
        <pt x="234" y="637" on="0"/>
        <pt x="194" y="596" on="0"/>
        <pt x="135" y="596" on="0"/>
        <pt x="96" y="637" on="0"/>
      </contour>
      <contour>
        <pt x="280" y="695" on="0"/>
        <pt x="320" y="735" on="0"/>
        <pt x="378" y="735" on="0"/>
        <pt x="418" y="695" on="0"/>
        <pt x="418" y="637" on="0"/>
        <pt x="378" y="596" on="0"/>
        <pt x="320" y="596" on="0"/>
        <pt x="280" y="637" on="0"/>
      </contour>
      <contour>
        <pt x="164" y="242" on="1"/>
        <pt x="166" y="92" on="0"/>
        <pt x="296" y="92" on="1"/>
        <pt x="357" y="92" on="0"/>
        <pt x="417" y="115" on="1"/>
        <pt x="441" y="20" on="1"/>
        <pt x="364" y="-13" on="0"/>
        <pt x="270" y="-13" on="1"/>
        <pt x="33" y="-13" on="0"/>
        <pt x="33" y="266" on="1"/>
        <pt x="33" y="376" on="0"/>
        <pt x="151" y="522" on="0"/>
        <pt x="262" y="522" on="1"/>
        <pt x="351" y="522" on="0"/>
        <pt x="448" y="427" on="0"/>
        <pt x="448" y="342" on="1"/>
        <pt x="448" y="292" on="0"/>
        <pt x="435" y="242" on="1"/>
      </contour>
      <contour>
        <pt x="336" y="318" on="1"/>
        <pt x="336" y="324" on="1"/>
        <pt x="336" y="423" on="0"/>
        <pt x="266" y="423" on="1"/>
        <pt x="182" y="423" on="0"/>
        <pt x="165" y="318" on="1"/>
      </contour>
    </TTGlyph>
    <TTGlyph name="egrave" xMin="33" yMin="-13" xMax="448" yMax="774">
      <contour>
        <pt x="334" y="587" on="1"/>
        <pt x="130" y="663" on="1"/>
        <pt x="179" y="774" on="1"/>
        <pt x="368" y="665" on="1"/>
      </contour>
      <contour>
        <pt x="164" y="242" on="1"/>
        <pt x="166" y="92" on="0"/>
        <pt x="296" y="92" on="1"/>
        <pt x="357" y="92" on="0"/>
        <pt x="417" y="115" on="1"/>
        <pt x="441" y="20" on="1"/>
        <pt x="364" y="-13" on="0"/>
        <pt x="270" y="-13" on="1"/>
        <pt x="33" y="-13" on="0"/>
        <pt x="33" y="266" on="1"/>
        <pt x="33" y="376" on="0"/>
        <pt x="151" y="522" on="0"/>
        <pt x="262" y="522" on="1"/>
        <pt x="351" y="522" on="0"/>
        <pt x="448" y="427" on="0"/>
        <pt x="448" y="342" on="1"/>
        <pt x="448" y="292" on="0"/>
        <pt x="435" y="242" on="1"/>
      </contour>
      <contour>
        <pt x="336" y="318" on="1"/>
        <pt x="336" y="324" on="1"/>
        <pt x="336" y="423" on="0"/>
        <pt x="266" y="423" on="1"/>
        <pt x="182" y="423" on="0"/>
        <pt x="165" y="318" on="1"/>
      </contour>
    </TTGlyph>
    <TTGlyph name="eight" xMin="37" yMin="-12" xMax="480" yMax="681">
      <contour>
        <pt x="480" y="106" on="0"/>
        <pt x="369" y="-12" on="0"/>
        <pt x="152" y="-12" on="0"/>
        <pt x="37" y="94" on="0"/>
        <pt x="37" y="187" on="1"/>
        <pt x="37" y="236" on="0"/>
        <pt x="96" y="328" on="0"/>
        <pt x="147" y="358" on="1"/>
        <pt x="67" y="407" on="0"/>
        <pt x="67" y="589" on="0"/>
        <pt x="176" y="681" on="0"/>
        <pt x="351" y="681" on="0"/>
        <pt x="455" y="593" on="0"/>
        <pt x="455" y="515" on="1"/>
        <pt x="455" y="414" on="0"/>
        <pt x="362" y="359" on="1"/>
        <pt x="480" y="302" on="0"/>
        <pt x="480" y="190" on="1"/>
      </contour>
      <contour>
        <pt x="331" y="536" on="0"/>
        <pt x="292" y="567" on="0"/>
        <pt x="233" y="567" on="0"/>
        <pt x="191" y="538" on="0"/>
        <pt x="191" y="473" on="0"/>
        <pt x="234" y="417" on="0"/>
        <pt x="266" y="402" on="1"/>
        <pt x="295" y="419" on="0"/>
        <pt x="331" y="481" on="0"/>
      </contour>
      <contour>
        <pt x="167" y="190" on="1"/>
        <pt x="167" y="149" on="0"/>
        <pt x="219" y="104" on="0"/>
        <pt x="301" y="104" on="0"/>
        <pt x="350" y="155" on="0"/>
        <pt x="350" y="237" on="0"/>
        <pt x="294" y="285" on="0"/>
        <pt x="243" y="305" on="1"/>
        <pt x="242" y="305" on="0"/>
        <pt x="236" y="308" on="0"/>
        <pt x="235" y="308" on="1"/>
        <pt x="234" y="309" on="1"/>
        <pt x="167" y="268" on="0"/>
      </contour>
    </TTGlyph>
    <TTGlyph name="ellipsis" xMin="39" yMin="-7" xMax="664" yMax="158">
      <contour>
        <pt x="39" y="110" on="0"/>
        <pt x="87" y="158" on="0"/>
        <pt x="155" y="158" on="0"/>
        <pt x="203" y="110" on="0"/>
        <pt x="203" y="43" on="0"/>
        <pt x="155" y="-7" on="0"/>
        <pt x="87" y="-7" on="0"/>
        <pt x="39" y="42" on="0"/>
      </contour>
      <contour>
        <pt x="270" y="110" on="0"/>
        <pt x="318" y="158" on="0"/>
        <pt x="386" y="158" on="0"/>
        <pt x="434" y="110" on="0"/>
        <pt x="434" y="43" on="0"/>
        <pt x="386" y="-7" on="0"/>
        <pt x="318" y="-7" on="0"/>
        <pt x="270" y="42" on="0"/>
      </contour>
      <contour>
        <pt x="500" y="110" on="0"/>
        <pt x="548" y="158" on="0"/>
        <pt x="616" y="158" on="0"/>
        <pt x="664" y="110" on="0"/>
        <pt x="664" y="43" on="0"/>
        <pt x="616" y="-7" on="0"/>
        <pt x="548" y="-7" on="0"/>
        <pt x="500" y="42" on="0"/>
      </contour>
    </TTGlyph>
    <TTGlyph name="emdash" xMin="51" yMin="223" xMax="658" yMax="332">
      <contour>
        <pt x="658" y="332" on="1"/>
        <pt x="658" y="223" on="1"/>
        <pt x="51" y="223" on="1"/>
        <pt x="51" y="332" on="1"/>
      </contour>
    </TTGlyph>
    <TTGlyph name="endash" xMin="51" yMin="223" xMax="508" yMax="332">
      <contour>
        <pt x="508" y="332" on="1"/>
        <pt x="508" y="223" on="1"/>
        <pt x="51" y="223" on="1"/>
        <pt x="51" y="332" on="1"/>
      </contour>
    </TTGlyph>
    <TTGlyph name="equal" xMin="55" yMin="128" xMax="433" yMax="431">
      <contour>
        <pt x="433" y="431" on="1"/>
        <pt x="433" y="324" on="1"/>
        <pt x="55" y="324" on="1"/>
        <pt x="55" y="431" on="1"/>
      </contour>
      <contour>
        <pt x="433" y="236" on="1"/>
        <pt x="433" y="128" on="1"/>
        <pt x="55" y="128" on="1"/>
        <pt x="55" y="236" on="1"/>
      </contour>
    </TTGlyph>
    <TTGlyph name="eth" xMin="35" yMin="-12" xMax="461" yMax="764">
      <contour>
        <pt x="461" y="132" on="0"/>
        <pt x="348" y="-12" on="0"/>
        <pt x="144" y="-12" on="0"/>
        <pt x="35" y="131" on="0"/>
        <pt x="35" y="352" on="0"/>
        <pt x="133" y="459" on="0"/>
        <pt x="217" y="459" on="1"/>
        <pt x="273" y="459" on="0"/>
        <pt x="311" y="437" on="1"/>
        <pt x="300" y="524" on="0"/>
        <pt x="248" y="571" on="1"/>
        <pt x="174" y="495" on="1"/>
        <pt x="114" y="553" on="1"/>
        <pt x="171" y="611" on="1"/>
        <pt x="129" y="623" on="0"/>
        <pt x="53" y="627" on="1"/>
        <pt x="71" y="719" on="1"/>
        <pt x="179" y="719" on="0"/>
        <pt x="254" y="694" on="1"/>
        <pt x="321" y="764" on="1"/>
        <pt x="379" y="704" on="1"/>
        <pt x="332" y="656" on="1"/>
        <pt x="461" y="564" on="0"/>
        <pt x="461" y="307" on="1"/>
      </contour>
      <contour>
        <pt x="169" y="244" on="1"/>
        <pt x="169" y="104" on="0"/>
        <pt x="246" y="104" on="1"/>
        <pt x="271" y="104" on="0"/>
        <pt x="287" y="122" on="1"/>
        <pt x="322" y="160" on="0"/>
        <pt x="322" y="335" on="1"/>
        <pt x="290" y="351" on="0"/>
        <pt x="240" y="351" on="1"/>
        <pt x="169" y="349" on="0"/>
      </contour>
    </TTGlyph>
    <TTGlyph name="exclam" xMin="43" yMin="-7" xMax="207" yMax="702">
      <contour>
        <pt x="197" y="702" on="1"/>
        <pt x="175" y="216" on="1"/>
        <pt x="70" y="216" on="1"/>
        <pt x="51" y="702" on="1"/>
      </contour>
      <contour>
        <pt x="43" y="110" on="0"/>
        <pt x="91" y="158" on="0"/>
        <pt x="159" y="158" on="0"/>
        <pt x="207" y="110" on="0"/>
        <pt x="207" y="43" on="0"/>
        <pt x="159" y="-7" on="0"/>
        <pt x="91" y="-7" on="0"/>
        <pt x="43" y="42" on="0"/>
      </contour>
    </TTGlyph>
    <TTGlyph name="exclamdown" xMin="37" yMin="-178" xMax="201" yMax="531">
      <contour>
        <pt x="47" y="-178" on="1"/>
        <pt x="69" y="308" on="1"/>
        <pt x="174" y="308" on="1"/>
        <pt x="193" y="-178" on="1"/>
      </contour>
      <contour>
        <pt x="201" y="414" on="0"/>
        <pt x="153" y="366" on="0"/>
        <pt x="85" y="366" on="0"/>
        <pt x="37" y="414" on="0"/>
        <pt x="37" y="481" on="0"/>
        <pt x="85" y="531" on="0"/>
        <pt x="153" y="531" on="0"/>
        <pt x="201" y="482" on="0"/>
      </contour>
    </TTGlyph>
    <TTGlyph name="f" xMin="15" yMin="-186" xMax="474" yMax="737">
      <contour>
        <pt x="445" y="613" on="1"/>
        <pt x="403" y="623" on="0"/>
        <pt x="287" y="623" on="0"/>
        <pt x="249" y="578" on="0"/>
        <pt x="249" y="527" on="1"/>
        <pt x="249" y="512" on="1"/>
        <pt x="402" y="512" on="1"/>
        <pt x="393" y="416" on="1"/>
        <pt x="249" y="416" on="1"/>
        <pt x="249" y="-186" on="1"/>
        <pt x="109" y="-172" on="1"/>
        <pt x="109" y="416" on="1"/>
        <pt x="15" y="422" on="1"/>
        <pt x="15" y="504" on="1"/>
        <pt x="110" y="511" on="1"/>
        <pt x="110" y="540" on="1"/>
        <pt x="110" y="643" on="0"/>
        <pt x="222" y="737" on="0"/>
        <pt x="340" y="737" on="1"/>
        <pt x="400" y="737" on="0"/>
        <pt x="474" y="713" on="1"/>
      </contour>
    </TTGlyph>
    <TTGlyph name="fi" xMin="15" yMin="-186" xMax="564" yMax="737">
      <contour>
        <pt x="564" y="0" on="1"/>
        <pt x="424" y="0" on="1"/>
        <pt x="424" y="416" on="1"/>
        <pt x="249" y="416" on="1"/>
        <pt x="249" y="-186" on="1"/>
        <pt x="109" y="-172" on="1"/>
        <pt x="109" y="416" on="1"/>
        <pt x="15" y="422" on="1"/>
        <pt x="15" y="504" on="1"/>
        <pt x="110" y="511" on="1"/>
        <pt x="110" y="540" on="1"/>
        <pt x="110" y="644" on="0"/>
        <pt x="224" y="737" on="0"/>
        <pt x="347" y="737" on="1"/>
        <pt x="422" y="737" on="0"/>
        <pt x="496" y="713" on="1"/>
        <pt x="467" y="613" on="1"/>
        <pt x="424" y="623" on="0"/>
        <pt x="289" y="623" on="0"/>
        <pt x="249" y="578" on="0"/>
        <pt x="249" y="527" on="1"/>
        <pt x="249" y="512" on="1"/>
        <pt x="424" y="512" on="1"/>
        <pt x="564" y="524" on="1"/>
      </contour>
    </TTGlyph>
    <TTGlyph name="five" xMin="28" yMin="-13" xMax="451" yMax="669">
      <contour>
        <pt x="220" y="105" on="1"/>
        <pt x="263" y="105" on="0"/>
        <pt x="317" y="162" on="0"/>
        <pt x="317" y="277" on="0"/>
        <pt x="267" y="330" on="0"/>
        <pt x="179" y="330" on="0"/>
        <pt x="138" y="289" on="1"/>
        <pt x="65" y="324" on="1"/>
        <pt x="65" y="669" on="1"/>
        <pt x="414" y="669" on="1"/>
        <pt x="414" y="554" on="1"/>
        <pt x="182" y="554" on="1"/>
        <pt x="182" y="427" on="1"/>
        <pt x="214" y="450" on="0"/>
        <pt x="264" y="450" on="1"/>
        <pt x="345" y="450" on="0"/>
        <pt x="451" y="333" on="0"/>
        <pt x="451" y="125" on="0"/>
        <pt x="335" y="-13" on="0"/>
        <pt x="128" y="-13" on="0"/>
        <pt x="28" y="48" on="1"/>
        <pt x="71" y="147" on="1"/>
        <pt x="155" y="105" on="0"/>
      </contour>
    </TTGlyph>
    <TTGlyph name="fl" xMin="15" yMin="-186" xMax="731" yMax="745">
      <contour>
        <pt x="731" y="9" on="1"/>
        <pt x="680" y="-13" on="0"/>
        <pt x="584" y="-13" on="0"/>
        <pt x="522" y="9" on="0"/>
        <pt x="491" y="37" on="0"/>
        <pt x="475" y="91" on="0"/>
        <pt x="472" y="128" on="0"/>
        <pt x="472" y="161" on="1"/>
        <pt x="472" y="614" on="1"/>
        <pt x="433" y="629" on="0"/>
        <pt x="292" y="629" on="0"/>
        <pt x="249" y="583" on="0"/>
        <pt x="249" y="527" on="1"/>
        <pt x="249" y="512" on="1"/>
        <pt x="392" y="512" on="1"/>
        <pt x="383" y="416" on="1"/>
        <pt x="249" y="416" on="1"/>
        <pt x="249" y="-186" on="1"/>
        <pt x="109" y="-172" on="1"/>
        <pt x="109" y="416" on="1"/>
        <pt x="15" y="422" on="1"/>
        <pt x="15" y="504" on="1"/>
        <pt x="110" y="511" on="1"/>
        <pt x="110" y="540" on="1"/>
        <pt x="110" y="658" on="0"/>
        <pt x="185" y="704" on="1"/>
        <pt x="252" y="745" on="0"/>
        <pt x="476" y="745" on="0"/>
        <pt x="613" y="700" on="1"/>
        <pt x="613" y="153" on="1"/>
        <pt x="613" y="124" on="0"/>
        <pt x="630" y="100" on="0"/>
        <pt x="682" y="100" on="0"/>
        <pt x="710" y="107" on="1"/>
      </contour>
    </TTGlyph>
    <TTGlyph name="florin" xMin="17" yMin="-243" xMax="607" yMax="737">
      <contour>
        <pt x="242" y="-33" on="1"/>
        <pt x="242" y="416" on="1"/>
        <pt x="148" y="422" on="1"/>
        <pt x="148" y="504" on="1"/>
        <pt x="243" y="511" on="1"/>
        <pt x="243" y="540" on="1"/>
        <pt x="243" y="643" on="0"/>
        <pt x="355" y="737" on="0"/>
        <pt x="473" y="737" on="1"/>
        <pt x="533" y="737" on="0"/>
        <pt x="607" y="713" on="1"/>
        <pt x="578" y="613" on="1"/>
        <pt x="536" y="623" on="0"/>
        <pt x="420" y="623" on="0"/>
        <pt x="382" y="578" on="0"/>
        <pt x="382" y="527" on="1"/>
        <pt x="382" y="512" on="1"/>
        <pt x="535" y="512" on="1"/>
        <pt x="526" y="416" on="1"/>
        <pt x="382" y="416" on="1"/>
        <pt x="382" y="-46" on="1"/>
        <pt x="382" y="-149" on="0"/>
        <pt x="269" y="-243" on="0"/>
        <pt x="151" y="-243" on="1"/>
        <pt x="91" y="-243" on="0"/>
        <pt x="17" y="-219" on="1"/>
        <pt x="46" y="-119" on="1"/>
        <pt x="89" y="-129" on="0"/>
        <pt x="204" y="-129" on="0"/>
        <pt x="242" y="-84" on="0"/>
      </contour>
    </TTGlyph>
    <TTGlyph name="four" xMin="19" yMin="0" xMax="545" yMax="669">
      <contour>
        <pt x="545" y="176" on="1"/>
        <pt x="441" y="176" on="1"/>
        <pt x="441" y="0" on="1"/>
        <pt x="308" y="0" on="1"/>
        <pt x="308" y="176" on="1"/>
        <pt x="19" y="176" on="1"/>
        <pt x="19" y="250" on="1"/>
        <pt x="285" y="669" on="1"/>
        <pt x="441" y="669" on="1"/>
        <pt x="441" y="271" on="1"/>
        <pt x="545" y="271" on="1"/>
      </contour>
      <contour>
        <pt x="308" y="271" on="1"/>
        <pt x="307" y="505" on="1"/>
        <pt x="166" y="271" on="1"/>
      </contour>
    </TTGlyph>
    <TTGlyph name="fraction" xMin="-2" yMin="-84" xMax="388" yMax="796">
      <contour>
        <pt x="388" y="765" on="1"/>
        <pt x="105" y="-84" on="1"/>
        <pt x="-2" y="-55" on="1"/>
        <pt x="283" y="796" on="1"/>
      </contour>
    </TTGlyph>
    <TTGlyph name="g" xMin="15" yMin="-244" xMax="492" yMax="535">
      <contour>
        <pt x="283" y="-23" on="1"/>
        <pt x="182" y="-23" on="1"/>
        <pt x="131" y="-40" on="0"/>
        <pt x="131" y="-84" on="1"/>
        <pt x="131" y="-140" on="0"/>
        <pt x="359" y="-140" on="0"/>
        <pt x="359" y="-67" on="1"/>
        <pt x="359" y="-45" on="0"/>
        <pt x="326" y="-23" on="0"/>
      </contour>
      <contour>
        <pt x="230" y="419" on="1"/>
        <pt x="161" y="419" on="0"/>
        <pt x="161" y="329" on="1"/>
        <pt x="161" y="285" on="0"/>
        <pt x="194" y="245" on="0"/>
        <pt x="266" y="245" on="0"/>
        <pt x="298" y="285" on="0"/>
        <pt x="298" y="376" on="0"/>
        <pt x="266" y="419" on="0"/>
      </contour>
      <contour>
        <pt x="227" y="525" on="1"/>
        <pt x="315" y="520" on="1"/>
        <pt x="393" y="520" on="0"/>
        <pt x="480" y="535" on="1"/>
        <pt x="492" y="458" on="1"/>
        <pt x="473" y="453" on="0"/>
        <pt x="388" y="441" on="1"/>
        <pt x="423" y="392" on="0"/>
        <pt x="423" y="330" on="1"/>
        <pt x="423" y="244" on="0"/>
        <pt x="324" y="136" on="0"/>
        <pt x="231" y="136" on="1"/>
        <pt x="198" y="136" on="0"/>
        <pt x="178" y="141" on="1"/>
        <pt x="172" y="123" on="0"/>
        <pt x="172" y="110" on="1"/>
        <pt x="172" y="77" on="0"/>
        <pt x="229" y="77" on="1"/>
        <pt x="315" y="77" on="1"/>
        <pt x="392" y="77" on="0"/>
        <pt x="478" y="8" on="0"/>
        <pt x="478" y="-53" on="1"/>
        <pt x="478" y="-142" on="0"/>
        <pt x="342" y="-244" on="0"/>
        <pt x="126" y="-244" on="0"/>
        <pt x="15" y="-171" on="0"/>
        <pt x="15" y="-104" on="1"/>
        <pt x="15" y="-65" on="0"/>
        <pt x="67" y="5" on="0"/>
        <pt x="114" y="26" on="1"/>
        <pt x="82" y="47" on="0"/>
        <pt x="82" y="126" on="0"/>
        <pt x="112" y="166" on="1"/>
        <pt x="76" y="192" on="0"/>
        <pt x="36" y="279" on="0"/>
        <pt x="36" y="330" on="1"/>
        <pt x="36" y="417" on="0"/>
        <pt x="133" y="525" on="0"/>
      </contour>
    </TTGlyph>
    <TTGlyph name="germandbls" xMin="53" yMin="-129" xMax="586" yMax="720">
      <contour>
        <pt x="406" y="420" on="0"/>
        <pt x="384" y="388" on="0"/>
        <pt x="384" y="356" on="0"/>
        <pt x="401" y="331" on="0"/>
        <pt x="419" y="321" on="0"/>
        <pt x="468" y="299" on="0"/>
        <pt x="495" y="286" on="0"/>
        <pt x="543" y="256" on="0"/>
        <pt x="554" y="242" on="1"/>
        <pt x="586" y="202" on="0"/>
        <pt x="586" y="153" on="1"/>
        <pt x="586" y="76" on="0"/>
        <pt x="487" y="-13" on="0"/>
        <pt x="402" y="-13" on="1"/>
        <pt x="361" y="-13" on="0"/>
        <pt x="253" y="18" on="0"/>
        <pt x="226" y="37" on="1"/>
        <pt x="261" y="135" on="1"/>
        <pt x="354" y="96" on="0"/>
        <pt x="460" y="96" on="0"/>
        <pt x="460" y="145" on="1"/>
        <pt x="460" y="165" on="0"/>
        <pt x="417" y="196" on="0"/>
        <pt x="356" y="223" on="0"/>
        <pt x="296" y="257" on="0"/>
        <pt x="253" y="321" on="0"/>
        <pt x="253" y="399" on="0"/>
        <pt x="286" y="457" on="0"/>
        <pt x="305" y="473" on="1"/>
        <pt x="357" y="517" on="0"/>
        <pt x="357" y="548" on="1"/>
        <pt x="357" y="612" on="0"/>
        <pt x="288" y="612" on="1"/>
        <pt x="237" y="612" on="0"/>
        <pt x="191" y="555" on="0"/>
        <pt x="191" y="493" on="1"/>
        <pt x="191" y="-129" on="1"/>
        <pt x="53" y="-129" on="1"/>
        <pt x="53" y="495" on="1"/>
        <pt x="53" y="609" on="0"/>
        <pt x="178" y="720" on="0"/>
        <pt x="390" y="720" on="0"/>
        <pt x="491" y="630" on="0"/>
        <pt x="491" y="556" on="1"/>
        <pt x="491" y="505" on="0"/>
        <pt x="454" y="466" on="1"/>
        <pt x="438" y="449" on="0"/>
      </contour>
    </TTGlyph>
    <TTGlyph name="grave" xMin="58" yMin="587" xMax="296" yMax="774">
      <contour>
        <pt x="262" y="587" on="1"/>
        <pt x="58" y="663" on="1"/>
        <pt x="107" y="774" on="1"/>
        <pt x="296" y="665" on="1"/>
      </contour>
    </TTGlyph>
    <TTGlyph name="greater" xMin="52" yMin="60" xMax="408" yMax="502">
      <contour>
        <pt x="408" y="324" on="1"/>
        <pt x="408" y="236" on="1"/>
        <pt x="52" y="60" on="1"/>
        <pt x="52" y="180" on="1"/>
        <pt x="260" y="281" on="1"/>
        <pt x="52" y="380" on="1"/>
        <pt x="52" y="502" on="1"/>
      </contour>
    </TTGlyph>
    <TTGlyph name="guillemotleft" xMin="36" yMin="61" xMax="525" yMax="491">
      <contour>
        <pt x="525" y="421" on="1"/>
        <pt x="386" y="276" on="1"/>
        <pt x="525" y="134" on="1"/>
        <pt x="443" y="61" on="1"/>
        <pt x="267" y="247" on="1"/>
        <pt x="267" y="306" on="1"/>
        <pt x="443" y="491" on="1"/>
      </contour>
      <contour>
        <pt x="294" y="421" on="1"/>
        <pt x="154" y="276" on="1"/>
        <pt x="294" y="134" on="1"/>
        <pt x="212" y="61" on="1"/>
        <pt x="36" y="247" on="1"/>
        <pt x="36" y="306" on="1"/>
        <pt x="212" y="491" on="1"/>
      </contour>
    </TTGlyph>
    <TTGlyph name="guillemotright" xMin="37" yMin="63" xMax="526" yMax="493">
      <contour>
        <pt x="176" y="278" on="1"/>
        <pt x="37" y="423" on="1"/>
        <pt x="119" y="493" on="1"/>
        <pt x="295" y="308" on="1"/>
        <pt x="295" y="249" on="1"/>
        <pt x="119" y="63" on="1"/>
        <pt x="37" y="136" on="1"/>
      </contour>
      <contour>
        <pt x="408" y="278" on="1"/>
        <pt x="268" y="423" on="1"/>
        <pt x="350" y="493" on="1"/>
        <pt x="526" y="308" on="1"/>
        <pt x="526" y="249" on="1"/>
        <pt x="350" y="63" on="1"/>
        <pt x="268" y="136" on="1"/>
      </contour>
    </TTGlyph>
    <TTGlyph name="guilsinglleft" xMin="35" yMin="63" xMax="293" yMax="493">
      <contour>
        <pt x="293" y="423" on="1"/>
        <pt x="153" y="278" on="1"/>
        <pt x="293" y="136" on="1"/>
        <pt x="211" y="63" on="1"/>
        <pt x="35" y="249" on="1"/>
        <pt x="35" y="308" on="1"/>
        <pt x="211" y="493" on="1"/>
      </contour>
    </TTGlyph>
    <TTGlyph name="guilsinglright" xMin="37" yMin="63" xMax="295" yMax="493">
      <contour>
        <pt x="177" y="278" on="1"/>
        <pt x="37" y="423" on="1"/>
        <pt x="119" y="493" on="1"/>
        <pt x="295" y="308" on="1"/>
        <pt x="295" y="249" on="1"/>
        <pt x="119" y="63" on="1"/>
        <pt x="37" y="136" on="1"/>
      </contour>
    </TTGlyph>
    <TTGlyph name="h" xMin="53" yMin="0" xMax="496" yMax="706">
      <contour>
        <pt x="223" y="490" on="0"/>
        <pt x="305" y="522" on="0"/>
        <pt x="389" y="522" on="0"/>
        <pt x="451" y="497" on="0"/>
        <pt x="467" y="472" on="1"/>
        <pt x="496" y="427" on="0"/>
        <pt x="496" y="351" on="1"/>
        <pt x="496" y="0" on="1"/>
        <pt x="350" y="0" on="1"/>
        <pt x="350" y="326" on="1"/>
        <pt x="350" y="390" on="0"/>
        <pt x="323" y="402" on="1"/>
        <pt x="310" y="408" on="0"/>
        <pt x="288" y="408" on="1"/>
        <pt x="232" y="408" on="0"/>
        <pt x="193" y="371" on="1"/>
        <pt x="193" y="0" on="1"/>
        <pt x="53" y="0" on="1"/>
        <pt x="53" y="697" on="1"/>
        <pt x="193" y="706" on="1"/>
        <pt x="193" y="467" on="1"/>
      </contour>
    </TTGlyph>
    <TTGlyph name="hungarumlaut" xMin="47" yMin="494" xMax="487" yMax="726">
      <contour>
        <pt x="266" y="644" on="1"/>
        <pt x="109" y="494" on="1"/>
        <pt x="47" y="552" on="1"/>
        <pt x="177" y="726" on="1"/>
      </contour>
      <contour>
        <pt x="487" y="644" on="1"/>
        <pt x="330" y="494" on="1"/>
        <pt x="268" y="552" on="1"/>
        <pt x="398" y="726" on="1"/>
      </contour>
    </TTGlyph>
    <TTGlyph name="hyphen" xMin="51" yMin="223" xMax="458" yMax="332">
      <contour>
        <pt x="458" y="332" on="1"/>
        <pt x="458" y="223" on="1"/>
        <pt x="51" y="223" on="1"/>
        <pt x="51" y="332" on="1"/>
      </contour>
    </TTGlyph>
    <TTGlyph name="i" xMin="40" yMin="0" xMax="204" yMax="759">
      <contour>
        <pt x="193" y="0" on="1"/>
        <pt x="53" y="0" on="1"/>
        <pt x="53" y="512" on="1"/>
        <pt x="193" y="524" on="1"/>
      </contour>
      <contour>
        <pt x="40" y="711" on="0"/>
        <pt x="88" y="759" on="0"/>
        <pt x="156" y="759" on="0"/>
        <pt x="204" y="711" on="0"/>
        <pt x="204" y="644" on="0"/>
        <pt x="156" y="594" on="0"/>
        <pt x="88" y="594" on="0"/>
        <pt x="40" y="643" on="0"/>
      </contour>
    </TTGlyph>
    <TTGlyph name="iacute" xMin="38" yMin="0" xMax="276" yMax="774">
      <contour>
        <pt x="276" y="663" on="1"/>
        <pt x="72" y="587" on="1"/>
        <pt x="38" y="665" on="1"/>
        <pt x="227" y="774" on="1"/>
      </contour>
      <contour>
        <pt x="193" y="0" on="1"/>
        <pt x="53" y="0" on="1"/>
        <pt x="53" y="512" on="1"/>
        <pt x="193" y="524" on="1"/>
      </contour>
    </TTGlyph>
    <TTGlyph name="icircumflex" xMin="-21" yMin="0" xMax="275" yMax="762">
      <contour>
        <pt x="127" y="676" on="1"/>
        <pt x="43" y="591" on="1"/>
        <pt x="-21" y="643" on="1"/>
        <pt x="90" y="762" on="1"/>
        <pt x="164" y="762" on="1"/>
        <pt x="275" y="643" on="1"/>
        <pt x="211" y="591" on="1"/>
      </contour>
      <contour>
        <pt x="193" y="0" on="1"/>
        <pt x="53" y="0" on="1"/>
        <pt x="53" y="512" on="1"/>
        <pt x="193" y="524" on="1"/>
      </contour>
    </TTGlyph>
    <TTGlyph name="idieresis" xMin="-32" yMin="0" xMax="290" yMax="735">
      <contour>
        <pt x="-32" y="695" on="0"/>
        <pt x="7" y="735" on="0"/>
        <pt x="66" y="735" on="0"/>
        <pt x="106" y="695" on="0"/>
        <pt x="106" y="637" on="0"/>
        <pt x="66" y="596" on="0"/>
        <pt x="7" y="596" on="0"/>
        <pt x="-32" y="637" on="0"/>
      </contour>
      <contour>
        <pt x="152" y="695" on="0"/>
        <pt x="192" y="735" on="0"/>
        <pt x="250" y="735" on="0"/>
        <pt x="290" y="695" on="0"/>
        <pt x="290" y="637" on="0"/>
        <pt x="250" y="596" on="0"/>
        <pt x="192" y="596" on="0"/>
        <pt x="152" y="637" on="0"/>
      </contour>
      <contour>
        <pt x="193" y="0" on="1"/>
        <pt x="53" y="0" on="1"/>
        <pt x="53" y="512" on="1"/>
        <pt x="193" y="524" on="1"/>
      </contour>
    </TTGlyph>
    <TTGlyph name="igrave" xMin="-19" yMin="0" xMax="219" yMax="774">
      <contour>
        <pt x="185" y="587" on="1"/>
        <pt x="-19" y="663" on="1"/>
        <pt x="30" y="774" on="1"/>
        <pt x="219" y="665" on="1"/>
      </contour>
      <contour>
        <pt x="193" y="0" on="1"/>
        <pt x="53" y="0" on="1"/>
        <pt x="53" y="512" on="1"/>
        <pt x="193" y="524" on="1"/>
      </contour>
    </TTGlyph>
    <TTGlyph name="j" xMin="-77" yMin="-207" xMax="206" yMax="762">
      <contour>
        <pt x="192" y="51" on="1"/>
        <pt x="192" y="-194" on="0"/>
        <pt x="-66" y="-207" on="1"/>
        <pt x="-77" y="-99" on="1"/>
        <pt x="-6" y="-87" on="0"/>
        <pt x="53" y="-17" on="0"/>
        <pt x="53" y="60" on="1"/>
        <pt x="53" y="508" on="1"/>
        <pt x="192" y="522" on="1"/>
      </contour>
      <contour>
        <pt x="38" y="713" on="0"/>
        <pt x="87" y="762" on="0"/>
        <pt x="157" y="762" on="0"/>
        <pt x="206" y="713" on="0"/>
        <pt x="206" y="644" on="0"/>
        <pt x="157" y="593" on="0"/>
        <pt x="87" y="593" on="0"/>
        <pt x="38" y="643" on="0"/>
      </contour>
    </TTGlyph>
    <TTGlyph name="k" xMin="53" yMin="0" xMax="554" yMax="709">
      <contour>
        <pt x="193" y="0" on="1"/>
        <pt x="53" y="0" on="1"/>
        <pt x="53" y="699" on="1"/>
        <pt x="193" y="709" on="1"/>
        <pt x="193" y="293" on="1"/>
        <pt x="363" y="512" on="1"/>
        <pt x="515" y="512" on="1"/>
        <pt x="330" y="281" on="1"/>
        <pt x="554" y="0" on="1"/>
        <pt x="394" y="0" on="1"/>
        <pt x="193" y="261" on="1"/>
      </contour>
    </TTGlyph>
    <TTGlyph name="l" xMin="54" yMin="-13" xMax="313" yMax="700">
      <contour>
        <pt x="313" y="9" on="1"/>
        <pt x="262" y="-13" on="0"/>
        <pt x="166" y="-13" on="0"/>
        <pt x="104" y="9" on="0"/>
        <pt x="73" y="37" on="0"/>
        <pt x="57" y="91" on="0"/>
        <pt x="54" y="128" on="0"/>
        <pt x="54" y="161" on="1"/>
        <pt x="54" y="700" on="1"/>
        <pt x="195" y="700" on="1"/>
        <pt x="195" y="153" on="1"/>
        <pt x="195" y="124" on="0"/>
        <pt x="212" y="100" on="0"/>
        <pt x="264" y="100" on="0"/>
        <pt x="292" y="107" on="1"/>
      </contour>
    </TTGlyph>
    <TTGlyph name="less" xMin="31" yMin="60" xMax="387" yMax="502">
      <contour>
        <pt x="31" y="236" on="1"/>
        <pt x="31" y="324" on="1"/>
        <pt x="387" y="502" on="1"/>
        <pt x="387" y="380" on="1"/>
        <pt x="179" y="281" on="1"/>
        <pt x="387" y="180" on="1"/>
        <pt x="387" y="60" on="1"/>
      </contour>
    </TTGlyph>
    <TTGlyph name="logicalnot" xMin="51" yMin="225" xMax="508" yMax="442">
      <contour>
        <pt x="508" y="225" on="1"/>
        <pt x="398" y="225" on="1"/>
        <pt x="398" y="333" on="1"/>
        <pt x="51" y="333" on="1"/>
        <pt x="51" y="442" on="1"/>
        <pt x="508" y="442" on="1"/>
      </contour>
    </TTGlyph>
    <TTGlyph name="lslash" xMin="24" yMin="-13" xMax="426" yMax="700">
      <contour>
        <pt x="364" y="9" on="1"/>
        <pt x="313" y="-13" on="0"/>
        <pt x="217" y="-13" on="0"/>
        <pt x="155" y="9" on="0"/>
        <pt x="124" y="37" on="0"/>
        <pt x="108" y="91" on="0"/>
        <pt x="105" y="128" on="0"/>
        <pt x="105" y="161" on="1"/>
        <pt x="105" y="274" on="1"/>
        <pt x="24" y="274" on="1"/>
        <pt x="24" y="383" on="1"/>
        <pt x="105" y="383" on="1"/>
        <pt x="105" y="700" on="1"/>
        <pt x="246" y="700" on="1"/>
        <pt x="246" y="383" on="1"/>
        <pt x="426" y="383" on="1"/>
        <pt x="426" y="274" on="1"/>
        <pt x="246" y="274" on="1"/>
        <pt x="246" y="153" on="1"/>
        <pt x="246" y="124" on="0"/>
        <pt x="263" y="100" on="0"/>
        <pt x="315" y="100" on="0"/>
        <pt x="343" y="107" on="1"/>
      </contour>
    </TTGlyph>
    <TTGlyph name="m" xMin="53" yMin="0" xMax="786" yMax="522">
      <contour>
        <pt x="206" y="482" on="0"/>
        <pt x="297" y="522" on="0"/>
        <pt x="399" y="522" on="0"/>
        <pt x="455" y="488" on="0"/>
        <pt x="472" y="453" on="1"/>
        <pt x="499" y="481" on="0"/>
        <pt x="592" y="522" on="0"/>
        <pt x="639" y="522" on="1"/>
        <pt x="725" y="522" on="0"/>
        <pt x="786" y="433" on="0"/>
        <pt x="786" y="351" on="1"/>
        <pt x="786" y="0" on="1"/>
        <pt x="646" y="0" on="1"/>
        <pt x="646" y="326" on="1"/>
        <pt x="646" y="390" on="0"/>
        <pt x="619" y="402" on="1"/>
        <pt x="606" y="408" on="0"/>
        <pt x="584" y="408" on="1"/>
        <pt x="528" y="408" on="0"/>
        <pt x="489" y="371" on="1"/>
        <pt x="490" y="364" on="0"/>
        <pt x="490" y="350" on="1"/>
        <pt x="490" y="0" on="1"/>
        <pt x="350" y="0" on="1"/>
        <pt x="350" y="326" on="1"/>
        <pt x="350" y="390" on="0"/>
        <pt x="323" y="402" on="1"/>
        <pt x="310" y="408" on="0"/>
        <pt x="288" y="408" on="1"/>
        <pt x="232" y="408" on="0"/>
        <pt x="193" y="371" on="1"/>
        <pt x="193" y="0" on="1"/>
        <pt x="53" y="0" on="1"/>
        <pt x="53" y="513" on="1"/>
        <pt x="168" y="513" on="1"/>
        <pt x="180" y="456" on="1"/>
      </contour>
    </TTGlyph>
    <TTGlyph name="macron" xMin="45" yMin="541" xMax="487" yMax="650">
      <contour>
        <pt x="487" y="650" on="1"/>
        <pt x="487" y="541" on="1"/>
        <pt x="45" y="541" on="1"/>
        <pt x="45" y="650" on="1"/>
      </contour>
    </TTGlyph>
    <TTGlyph name="minus" xMin="55" yMin="223" xMax="467" yMax="332">
      <contour>
        <pt x="467" y="332" on="1"/>
        <pt x="467" y="223" on="1"/>
        <pt x="55" y="223" on="1"/>
        <pt x="55" y="332" on="1"/>
      </contour>
    </TTGlyph>
    <TTGlyph name="mu" xMin="61" yMin="-201" xMax="582" yMax="513">
      <contour>
        <pt x="249" y="-3" on="1"/>
        <pt x="222" y="-3" on="0"/>
        <pt x="201" y="6" on="1"/>
        <pt x="201" y="-201" on="1"/>
        <pt x="61" y="-201" on="1"/>
        <pt x="61" y="513" on="1"/>
        <pt x="201" y="513" on="1"/>
        <pt x="201" y="183" on="1"/>
        <pt x="201" y="143" on="0"/>
        <pt x="225" y="101" on="0"/>
        <pt x="320" y="101" on="0"/>
        <pt x="361" y="132" on="1"/>
        <pt x="361" y="513" on="1"/>
        <pt x="501" y="513" on="1"/>
        <pt x="501" y="122" on="1"/>
        <pt x="501" y="94" on="0"/>
        <pt x="526" y="94" on="1"/>
        <pt x="539" y="94" on="0"/>
        <pt x="563" y="100" on="1"/>
        <pt x="582" y="17" on="1"/>
        <pt x="531" y="-11" on="0"/>
        <pt x="473" y="-11" on="1"/>
        <pt x="398" y="-11" on="0"/>
        <pt x="374" y="53" on="1"/>
        <pt x="318" y="-3" on="0"/>
      </contour>
    </TTGlyph>
    <TTGlyph name="multiply" xMin="39" yMin="73" xMax="477" yMax="506">
      <contour>
        <pt x="477" y="152" on="1"/>
        <pt x="399" y="75" on="1"/>
        <pt x="259" y="213" on="1"/>
        <pt x="119" y="73" on="1"/>
        <pt x="39" y="150" on="1"/>
        <pt x="179" y="290" on="1"/>
        <pt x="41" y="427" on="1"/>
        <pt x="120" y="506" on="1"/>
        <pt x="257" y="369" on="1"/>
        <pt x="395" y="506" on="1"/>
        <pt x="475" y="428" on="1"/>
        <pt x="338" y="292" on="1"/>
      </contour>
    </TTGlyph>
    <TTGlyph name="n" xMin="53" yMin="0" xMax="496" yMax="522">
      <contour>
        <pt x="346" y="522" on="1"/>
        <pt x="433" y="522" on="0"/>
        <pt x="496" y="433" on="0"/>
        <pt x="496" y="351" on="1"/>
        <pt x="496" y="0" on="1"/>
        <pt x="356" y="0" on="1"/>
        <pt x="356" y="326" on="1"/>
        <pt x="356" y="365" on="0"/>
        <pt x="331" y="408" on="0"/>
        <pt x="235" y="408" on="0"/>
        <pt x="196" y="371" on="1"/>
        <pt x="196" y="0" on="1"/>
        <pt x="53" y="0" on="1"/>
        <pt x="53" y="513" on="1"/>
        <pt x="171" y="513" on="1"/>
        <pt x="183" y="456" on="1"/>
        <pt x="212" y="483" on="0"/>
        <pt x="301" y="522" on="0"/>
      </contour>
    </TTGlyph>
    <TTGlyph name="nine" xMin="33" yMin="-12" xMax="459" yMax="679">
      <contour>
        <pt x="247" y="679" on="1"/>
        <pt x="459" y="679" on="0"/>
        <pt x="459" y="384" on="1"/>
        <pt x="459" y="193" on="0"/>
        <pt x="309" y="-12" on="0"/>
        <pt x="186" y="-12" on="1"/>
        <pt x="123" y="-12" on="0"/>
        <pt x="61" y="16" on="1"/>
        <pt x="92" y="123" on="1"/>
        <pt x="127" y="110" on="0"/>
        <pt x="226" y="110" on="0"/>
        <pt x="296" y="180" on="0"/>
        <pt x="309" y="254" on="1"/>
        <pt x="289" y="236" on="0"/>
        <pt x="234" y="218" on="0"/>
        <pt x="215" y="218" on="1"/>
        <pt x="131" y="218" on="0"/>
        <pt x="33" y="326" on="0"/>
        <pt x="33" y="539" on="0"/>
        <pt x="143" y="679" on="0"/>
      </contour>
      <contour>
        <pt x="320" y="473" on="0"/>
        <pt x="282" y="563" on="0"/>
        <pt x="207" y="563" on="0"/>
        <pt x="167" y="496" on="0"/>
        <pt x="167" y="384" on="0"/>
        <pt x="206" y="334" on="0"/>
        <pt x="281" y="333" on="0"/>
        <pt x="320" y="356" on="1"/>
      </contour>
    </TTGlyph>
    <TTGlyph name="ntilde" xMin="53" yMin="0" xMax="496" yMax="728">
      <contour>
        <pt x="226" y="728" on="0"/>
        <pt x="316" y="685" on="0"/>
        <pt x="361" y="685" on="0"/>
        <pt x="390" y="720" on="1"/>
        <pt x="439" y="666" on="1"/>
        <pt x="421" y="636" on="0"/>
        <pt x="360" y="591" on="0"/>
        <pt x="305" y="591" on="0"/>
        <pt x="217" y="634" on="0"/>
        <pt x="172" y="634" on="0"/>
        <pt x="143" y="599" on="1"/>
        <pt x="94" y="653" on="1"/>
        <pt x="112" y="683" on="0"/>
        <pt x="171" y="728" on="0"/>
      </contour>
      <contour>
        <pt x="346" y="522" on="1"/>
        <pt x="433" y="522" on="0"/>
        <pt x="496" y="433" on="0"/>
        <pt x="496" y="351" on="1"/>
        <pt x="496" y="0" on="1"/>
        <pt x="356" y="0" on="1"/>
        <pt x="356" y="326" on="1"/>
        <pt x="356" y="365" on="0"/>
        <pt x="331" y="408" on="0"/>
        <pt x="235" y="408" on="0"/>
        <pt x="196" y="371" on="1"/>
        <pt x="196" y="0" on="1"/>
        <pt x="53" y="0" on="1"/>
        <pt x="53" y="513" on="1"/>
        <pt x="171" y="513" on="1"/>
        <pt x="183" y="456" on="1"/>
        <pt x="212" y="483" on="0"/>
        <pt x="301" y="522" on="0"/>
      </contour>
    </TTGlyph>
    <TTGlyph name="numbersign" xMin="38" yMin="-13" xMax="601" yMax="668">
      <contour>
        <pt x="355" y="277" on="1"/>
        <pt x="372" y="372" on="1"/>
        <pt x="267" y="372" on="1"/>
        <pt x="250" y="277" on="1"/>
      </contour>
      <contour>
        <pt x="601" y="172" on="1"/>
        <pt x="447" y="172" on="1"/>
        <pt x="415" y="-13" on="1"/>
        <pt x="304" y="-13" on="1"/>
        <pt x="336" y="172" on="1"/>
        <pt x="231" y="172" on="1"/>
        <pt x="199" y="-13" on="1"/>
        <pt x="88" y="-13" on="1"/>
        <pt x="120" y="172" on="1"/>
        <pt x="38" y="172" on="1"/>
        <pt x="38" y="277" on="1"/>
        <pt x="139" y="277" on="1"/>
        <pt x="156" y="372" on="1"/>
        <pt x="44" y="372" on="1"/>
        <pt x="44" y="476" on="1"/>
        <pt x="174" y="476" on="1"/>
        <pt x="209" y="668" on="1"/>
        <pt x="319" y="668" on="1"/>
        <pt x="285" y="476" on="1"/>
        <pt x="390" y="476" on="1"/>
        <pt x="425" y="668" on="1"/>
        <pt x="535" y="668" on="1"/>
        <pt x="501" y="476" on="1"/>
        <pt x="601" y="476" on="1"/>
        <pt x="601" y="372" on="1"/>
        <pt x="483" y="372" on="1"/>
        <pt x="466" y="277" on="1"/>
        <pt x="601" y="277" on="1"/>
      </contour>
    </TTGlyph>
    <TTGlyph name="o" xMin="33" yMin="-13" xMax="478" yMax="522">
      <contour>
        <pt x="478" y="116" on="0"/>
        <pt x="354" y="-13" on="0"/>
        <pt x="152" y="-13" on="0"/>
        <pt x="33" y="115" on="0"/>
        <pt x="33" y="393" on="0"/>
        <pt x="156" y="522" on="0"/>
        <pt x="256" y="522" on="1"/>
        <pt x="478" y="522" on="0"/>
        <pt x="478" y="255" on="1"/>
      </contour>
      <contour>
        <pt x="342" y="348" on="0"/>
        <pt x="298" y="414" on="0"/>
        <pt x="213" y="414" on="0"/>
        <pt x="168" y="348" on="0"/>
        <pt x="168" y="254" on="1"/>
        <pt x="168" y="94" on="0"/>
        <pt x="255" y="94" on="1"/>
        <pt x="296" y="94" on="0"/>
        <pt x="342" y="165" on="0"/>
      </contour>
    </TTGlyph>
    <TTGlyph name="oacute" xMin="33" yMin="-13" xMax="478" yMax="774">
      <contour>
        <pt x="478" y="116" on="0"/>
        <pt x="354" y="-13" on="0"/>
        <pt x="152" y="-13" on="0"/>
        <pt x="33" y="115" on="0"/>
        <pt x="33" y="393" on="0"/>
        <pt x="156" y="522" on="0"/>
        <pt x="256" y="522" on="1"/>
        <pt x="478" y="522" on="0"/>
        <pt x="478" y="255" on="1"/>
      </contour>
      <contour>
        <pt x="342" y="348" on="0"/>
        <pt x="298" y="414" on="0"/>
        <pt x="213" y="414" on="0"/>
        <pt x="168" y="348" on="0"/>
        <pt x="168" y="254" on="1"/>
        <pt x="168" y="94" on="0"/>
        <pt x="255" y="94" on="1"/>
        <pt x="296" y="94" on="0"/>
        <pt x="342" y="165" on="0"/>
      </contour>
      <contour>
        <pt x="408" y="663" on="1"/>
        <pt x="204" y="587" on="1"/>
        <pt x="170" y="665" on="1"/>
        <pt x="359" y="774" on="1"/>
      </contour>
    </TTGlyph>
    <TTGlyph name="ocircumflex" xMin="33" yMin="-13" xMax="478" yMax="762">
      <contour>
        <pt x="152" y="-13" on="0"/>
        <pt x="33" y="115" on="0"/>
        <pt x="33" y="393" on="0"/>
        <pt x="156" y="522" on="0"/>
        <pt x="256" y="522" on="1"/>
        <pt x="478" y="522" on="0"/>
        <pt x="478" y="255" on="1"/>
        <pt x="478" y="116" on="0"/>
        <pt x="354" y="-13" on="0"/>
      </contour>
      <contour>
        <pt x="213" y="414" on="0"/>
        <pt x="168" y="348" on="0"/>
        <pt x="168" y="254" on="1"/>
        <pt x="168" y="94" on="0"/>
        <pt x="255" y="94" on="1"/>
        <pt x="296" y="94" on="0"/>
        <pt x="342" y="165" on="0"/>
        <pt x="342" y="348" on="0"/>
        <pt x="298" y="414" on="0"/>
      </contour>
      <contour>
        <pt x="253" y="676" on="1"/>
        <pt x="169" y="591" on="1"/>
        <pt x="105" y="643" on="1"/>
        <pt x="216" y="762" on="1"/>
        <pt x="290" y="762" on="1"/>
        <pt x="401" y="643" on="1"/>
        <pt x="337" y="591" on="1"/>
      </contour>
    </TTGlyph>
    <TTGlyph name="odieresis" xMin="33" yMin="-13" xMax="478" yMax="735">
      <contour>
        <pt x="478" y="116" on="0"/>
        <pt x="354" y="-13" on="0"/>
        <pt x="152" y="-13" on="0"/>
        <pt x="33" y="115" on="0"/>
        <pt x="33" y="393" on="0"/>
        <pt x="156" y="522" on="0"/>
        <pt x="256" y="522" on="1"/>
        <pt x="478" y="522" on="0"/>
        <pt x="478" y="255" on="1"/>
      </contour>
      <contour>
        <pt x="342" y="348" on="0"/>
        <pt x="298" y="414" on="0"/>
        <pt x="213" y="414" on="0"/>
        <pt x="168" y="348" on="0"/>
        <pt x="168" y="254" on="1"/>
        <pt x="168" y="94" on="0"/>
        <pt x="255" y="94" on="1"/>
        <pt x="296" y="94" on="0"/>
        <pt x="342" y="165" on="0"/>
      </contour>
      <contour>
        <pt x="92" y="695" on="0"/>
        <pt x="131" y="735" on="0"/>
        <pt x="190" y="735" on="0"/>
        <pt x="230" y="695" on="0"/>
        <pt x="230" y="637" on="0"/>
        <pt x="190" y="596" on="0"/>
        <pt x="131" y="596" on="0"/>
        <pt x="92" y="637" on="0"/>
      </contour>
      <contour>
        <pt x="276" y="695" on="0"/>
        <pt x="316" y="735" on="0"/>
        <pt x="374" y="735" on="0"/>
        <pt x="414" y="695" on="0"/>
        <pt x="414" y="637" on="0"/>
        <pt x="374" y="596" on="0"/>
        <pt x="316" y="596" on="0"/>
        <pt x="276" y="637" on="0"/>
      </contour>
    </TTGlyph>
    <TTGlyph name="oe" xMin="33" yMin="-13" xMax="771" yMax="522">
      <contour>
        <pt x="615" y="92" on="1"/>
        <pt x="680" y="92" on="0"/>
        <pt x="740" y="115" on="1"/>
        <pt x="764" y="20" on="1"/>
        <pt x="688" y="-13" on="0"/>
        <pt x="593" y="-13" on="1"/>
        <pt x="472" y="-13" on="0"/>
        <pt x="416" y="67" on="1"/>
        <pt x="361" y="-13" on="0"/>
        <pt x="152" y="-13" on="0"/>
        <pt x="33" y="115" on="0"/>
        <pt x="33" y="393" on="0"/>
        <pt x="156" y="522" on="0"/>
        <pt x="367" y="522" on="0"/>
        <pt x="419" y="441" on="1"/>
        <pt x="475" y="522" on="0"/>
        <pt x="585" y="522" on="1"/>
        <pt x="674" y="522" on="0"/>
        <pt x="771" y="427" on="0"/>
        <pt x="771" y="342" on="1"/>
        <pt x="771" y="292" on="0"/>
        <pt x="758" y="242" on="1"/>
        <pt x="482" y="242" on="1"/>
        <pt x="483" y="92" on="0"/>
      </contour>
      <contour>
        <pt x="346" y="348" on="0"/>
        <pt x="301" y="414" on="0"/>
        <pt x="213" y="414" on="0"/>
        <pt x="168" y="348" on="0"/>
        <pt x="168" y="254" on="1"/>
        <pt x="168" y="94" on="0"/>
        <pt x="255" y="94" on="1"/>
        <pt x="299" y="94" on="0"/>
        <pt x="346" y="164" on="0"/>
      </contour>
      <contour>
        <pt x="659" y="318" on="1"/>
        <pt x="659" y="324" on="1"/>
        <pt x="659" y="423" on="0"/>
        <pt x="589" y="423" on="1"/>
        <pt x="515" y="423" on="0"/>
        <pt x="490" y="348" on="1"/>
        <pt x="486" y="334" on="0"/>
        <pt x="483" y="318" on="1"/>
      </contour>
    </TTGlyph>
    <TTGlyph name="ogonek" xMin="45" yMin="-243" xMax="262" yMax="-13">
      <contour>
        <pt x="160" y="-105" on="1"/>
        <pt x="160" y="-134" on="0"/>
        <pt x="197" y="-134" on="1"/>
        <pt x="216" y="-134" on="0"/>
        <pt x="244" y="-125" on="1"/>
        <pt x="262" y="-218" on="1"/>
        <pt x="201" y="-243" on="0"/>
        <pt x="101" y="-243" on="0"/>
        <pt x="45" y="-186" on="0"/>
        <pt x="45" y="-107" on="0"/>
        <pt x="78" y="-37" on="0"/>
        <pt x="106" y="-13" on="1"/>
        <pt x="216" y="-13" on="1"/>
        <pt x="160" y="-63" on="0"/>
      </contour>
    </TTGlyph>
    <TTGlyph name="ograve" xMin="33" yMin="-13" xMax="478" yMax="774">
      <contour>
        <pt x="478" y="116" on="0"/>
        <pt x="354" y="-13" on="0"/>
        <pt x="152" y="-13" on="0"/>
        <pt x="33" y="115" on="0"/>
        <pt x="33" y="393" on="0"/>
        <pt x="156" y="522" on="0"/>
        <pt x="256" y="522" on="1"/>
        <pt x="478" y="522" on="0"/>
        <pt x="478" y="255" on="1"/>
      </contour>
      <contour>
        <pt x="342" y="348" on="0"/>
        <pt x="298" y="414" on="0"/>
        <pt x="213" y="414" on="0"/>
        <pt x="168" y="348" on="0"/>
        <pt x="168" y="254" on="1"/>
        <pt x="168" y="94" on="0"/>
        <pt x="255" y="94" on="1"/>
        <pt x="296" y="94" on="0"/>
        <pt x="342" y="165" on="0"/>
      </contour>
      <contour>
        <pt x="335" y="587" on="1"/>
        <pt x="131" y="663" on="1"/>
        <pt x="180" y="774" on="1"/>
        <pt x="369" y="665" on="1"/>
      </contour>
    </TTGlyph>
    <TTGlyph name="one" xMin="7" yMin="1" xMax="313" yMax="668">
      <contour>
        <pt x="313" y="1" on="1"/>
        <pt x="174" y="1" on="1"/>
        <pt x="174" y="536" on="1"/>
        <pt x="51" y="483" on="1"/>
        <pt x="7" y="582" on="1"/>
        <pt x="205" y="668" on="1"/>
        <pt x="313" y="668" on="1"/>
      </contour>
    </TTGlyph>
    <TTGlyph name="onehalf" xMin="19" yMin="-84" xMax="810" yMax="796">
      <contour>
        <pt x="239" y="272" on="1"/>
        <pt x="136" y="272" on="1"/>
        <pt x="136" y="580" on="1"/>
        <pt x="50" y="544" on="1"/>
        <pt x="19" y="625" on="1"/>
        <pt x="162" y="687" on="1"/>
        <pt x="239" y="687" on="1"/>
      </contour>
      <contour>
        <pt x="533" y="-2" on="1"/>
        <pt x="533" y="73" on="1"/>
        <pt x="603" y="143" on="0"/>
        <pt x="658" y="209" on="1"/>
        <pt x="702" y="264" on="0"/>
        <pt x="702" y="292" on="1"/>
        <pt x="702" y="334" on="0"/>
        <pt x="659" y="334" on="1"/>
        <pt x="630" y="334" on="0"/>
        <pt x="572" y="313" on="1"/>
        <pt x="546" y="390" on="1"/>
        <pt x="614" y="422" on="0"/>
        <pt x="727" y="422" on="0"/>
        <pt x="797" y="354" on="0"/>
        <pt x="797" y="300" on="1"/>
        <pt x="797" y="224" on="0"/>
        <pt x="691" y="115" on="1"/>
        <pt x="671" y="93" on="0"/>
        <pt x="665" y="86" on="1"/>
        <pt x="810" y="86" on="1"/>
        <pt x="810" y="-2" on="1"/>
      </contour>
      <contour>
        <pt x="605" y="765" on="1"/>
        <pt x="322" y="-84" on="1"/>
        <pt x="215" y="-55" on="1"/>
        <pt x="500" y="796" on="1"/>
      </contour>
    </TTGlyph>
    <TTGlyph name="onequarter" xMin="19" yMin="-84" xMax="847" yMax="796">
      <contour>
        <pt x="847" y="109" on="1"/>
        <pt x="784" y="109" on="1"/>
        <pt x="784" y="0" on="1"/>
        <pt x="689" y="0" on="1"/>
        <pt x="689" y="109" on="1"/>
        <pt x="525" y="109" on="1"/>
        <pt x="525" y="164" on="1"/>
        <pt x="665" y="408" on="1"/>
        <pt x="784" y="408" on="1"/>
        <pt x="784" y="181" on="1"/>
        <pt x="847" y="181" on="1"/>
      </contour>
      <contour>
        <pt x="689" y="181" on="1"/>
        <pt x="689" y="305" on="1"/>
        <pt x="623" y="181" on="1"/>
      </contour>
      <contour>
        <pt x="239" y="272" on="1"/>
        <pt x="136" y="272" on="1"/>
        <pt x="136" y="580" on="1"/>
        <pt x="50" y="544" on="1"/>
        <pt x="19" y="625" on="1"/>
        <pt x="162" y="687" on="1"/>
        <pt x="239" y="687" on="1"/>
      </contour>
      <contour>
        <pt x="621" y="765" on="1"/>
        <pt x="338" y="-84" on="1"/>
        <pt x="231" y="-55" on="1"/>
        <pt x="516" y="796" on="1"/>
      </contour>
    </TTGlyph>
    <TTGlyph name="onesuperior" xMin="12" yMin="251" xMax="232" yMax="666">
      <contour>
        <pt x="232" y="251" on="1"/>
        <pt x="129" y="251" on="1"/>
        <pt x="129" y="559" on="1"/>
        <pt x="43" y="523" on="1"/>
        <pt x="12" y="604" on="1"/>
        <pt x="155" y="666" on="1"/>
        <pt x="232" y="666" on="1"/>
      </contour>
    </TTGlyph>
    <TTGlyph name="ordfeminine" xMin="34" yMin="403" xMax="310" yMax="703">
      <contour>
        <pt x="310" y="421" on="1"/>
        <pt x="280" y="404" on="0"/>
        <pt x="214" y="404" on="0"/>
        <pt x="197" y="428" on="1"/>
        <pt x="164" y="403" on="0"/>
        <pt x="79" y="403" on="0"/>
        <pt x="34" y="448" on="0"/>
        <pt x="35" y="534" on="0"/>
        <pt x="98" y="571" on="0"/>
        <pt x="168" y="571" on="0"/>
        <pt x="187" y="569" on="1"/>
        <pt x="187" y="595" on="1"/>
        <pt x="187" y="621" on="0"/>
        <pt x="165" y="637" on="0"/>
        <pt x="116" y="637" on="0"/>
        <pt x="75" y="624" on="1"/>
        <pt x="57" y="677" on="1"/>
        <pt x="99" y="703" on="0"/>
        <pt x="217" y="703" on="0"/>
        <pt x="265" y="654" on="0"/>
        <pt x="265" y="596" on="1"/>
        <pt x="265" y="479" on="1"/>
        <pt x="265" y="467" on="0"/>
        <pt x="288" y="467" on="0"/>
        <pt x="299" y="471" on="1"/>
      </contour>
      <contour>
        <pt x="177" y="527" on="1"/>
        <pt x="162" y="528" on="1"/>
        <pt x="110" y="528" on="0"/>
        <pt x="110" y="459" on="0"/>
        <pt x="143" y="459" on="1"/>
        <pt x="166" y="459" on="0"/>
        <pt x="187" y="472" on="1"/>
        <pt x="187" y="527" on="1"/>
      </contour>
    </TTGlyph>
    <TTGlyph name="ordmasculine" xMin="37" yMin="402" xMax="288" yMax="703">
      <contour>
        <pt x="288" y="475" on="0"/>
        <pt x="218" y="402" on="0"/>
        <pt x="104" y="402" on="0"/>
        <pt x="37" y="473" on="0"/>
        <pt x="37" y="630" on="0"/>
        <pt x="107" y="703" on="0"/>
        <pt x="163" y="703" on="1"/>
        <pt x="288" y="703" on="0"/>
        <pt x="288" y="553" on="1"/>
      </contour>
      <contour>
        <pt x="186" y="639" on="0"/>
        <pt x="140" y="639" on="0"/>
        <pt x="116" y="603" on="0"/>
        <pt x="116" y="552" on="1"/>
        <pt x="116" y="465" on="0"/>
        <pt x="209" y="465" on="0"/>
        <pt x="209" y="552" on="1"/>
        <pt x="209" y="603" on="0"/>
      </contour>
    </TTGlyph>
    <TTGlyph name="oslash" xMin="33" yMin="-78" xMax="478" yMax="597">
      <contour>
        <pt x="97" y="45" on="1"/>
        <pt x="33" y="114" on="0"/>
        <pt x="33" y="393" on="0"/>
        <pt x="156" y="522" on="0"/>
        <pt x="256" y="522" on="1"/>
        <pt x="292" y="522" on="0"/>
        <pt x="327" y="514" on="1"/>
        <pt x="367" y="597" on="1"/>
        <pt x="442" y="561" on="1"/>
        <pt x="401" y="476" on="1"/>
        <pt x="478" y="410" on="0"/>
        <pt x="478" y="116" on="0"/>
        <pt x="354" y="-13" on="0"/>
        <pt x="250" y="-13" on="1"/>
        <pt x="210" y="-13" on="0"/>
        <pt x="169" y="0" on="1"/>
        <pt x="131" y="-78" on="1"/>
        <pt x="54" y="-43" on="1"/>
      </contour>
      <contour>
        <pt x="255" y="94" on="1"/>
        <pt x="296" y="94" on="0"/>
        <pt x="342" y="165" on="0"/>
        <pt x="342" y="309" on="0"/>
        <pt x="335" y="340" on="1"/>
        <pt x="219" y="102" on="1"/>
        <pt x="234" y="94" on="0"/>
      </contour>
      <contour>
        <pt x="256" y="414" on="1"/>
        <pt x="213" y="414" on="0"/>
        <pt x="168" y="348" on="0"/>
        <pt x="168" y="254" on="1"/>
        <pt x="168" y="229" on="0"/>
        <pt x="172" y="197" on="1"/>
        <pt x="277" y="412" on="1"/>
        <pt x="263" y="414" on="0"/>
      </contour>
    </TTGlyph>
    <TTGlyph name="otilde" xMin="33" yMin="-13" xMax="478" yMax="728">
      <contour>
        <pt x="478" y="116" on="0"/>
        <pt x="354" y="-13" on="0"/>
        <pt x="152" y="-13" on="0"/>
        <pt x="33" y="115" on="0"/>
        <pt x="33" y="393" on="0"/>
        <pt x="156" y="522" on="0"/>
        <pt x="256" y="522" on="1"/>
        <pt x="478" y="522" on="0"/>
        <pt x="478" y="255" on="1"/>
      </contour>
      <contour>
        <pt x="342" y="348" on="0"/>
        <pt x="298" y="414" on="0"/>
        <pt x="213" y="414" on="0"/>
        <pt x="168" y="348" on="0"/>
        <pt x="168" y="254" on="1"/>
        <pt x="168" y="94" on="0"/>
        <pt x="255" y="94" on="1"/>
        <pt x="296" y="94" on="0"/>
        <pt x="342" y="165" on="0"/>
      </contour>
      <contour>
        <pt x="212" y="728" on="0"/>
        <pt x="302" y="685" on="0"/>
        <pt x="348" y="685" on="0"/>
        <pt x="377" y="720" on="1"/>
        <pt x="426" y="666" on="1"/>
        <pt x="408" y="636" on="0"/>
        <pt x="347" y="591" on="0"/>
        <pt x="292" y="591" on="0"/>
        <pt x="204" y="634" on="0"/>
        <pt x="159" y="634" on="0"/>
        <pt x="130" y="599" on="1"/>
        <pt x="81" y="653" on="1"/>
        <pt x="99" y="683" on="0"/>
        <pt x="158" y="728" on="0"/>
      </contour>
    </TTGlyph>
    <TTGlyph name="p" xMin="53" yMin="-213" xMax="505" yMax="522">
      <contour>
        <pt x="316" y="522" on="1"/>
        <pt x="409" y="522" on="0"/>
        <pt x="505" y="384" on="0"/>
        <pt x="505" y="266" on="1"/>
        <pt x="505" y="-13" on="0"/>
        <pt x="276" y="-13" on="1"/>
        <pt x="238" y="-13" on="0"/>
        <pt x="193" y="5" on="1"/>
        <pt x="193" y="-197" on="1"/>
        <pt x="53" y="-213" on="1"/>
        <pt x="53" y="513" on="1"/>
        <pt x="173" y="513" on="1"/>
        <pt x="185" y="472" on="1"/>
        <pt x="249" y="522" on="0"/>
      </contour>
      <contour>
        <pt x="253" y="100" on="1"/>
        <pt x="367" y="100" on="0"/>
        <pt x="367" y="262" on="1"/>
        <pt x="367" y="408" on="0"/>
        <pt x="272" y="408" on="1"/>
        <pt x="234" y="408" on="0"/>
        <pt x="193" y="383" on="1"/>
        <pt x="193" y="107" on="1"/>
        <pt x="221" y="100" on="0"/>
      </contour>
    </TTGlyph>
    <TTGlyph name="paragraph" xMin="21" yMin="-162" xMax="478" yMax="668">
      <contour>
        <pt x="478" y="604" on="1"/>
        <pt x="406" y="604" on="1"/>
        <pt x="406" y="-162" on="1"/>
        <pt x="332" y="-162" on="1"/>
        <pt x="332" y="604" on="1"/>
        <pt x="258" y="604" on="1"/>
        <pt x="258" y="-162" on="1"/>
        <pt x="180" y="-162" on="1"/>
        <pt x="180" y="351" on="1"/>
        <pt x="114" y="351" on="0"/>
        <pt x="21" y="444" on="0"/>
        <pt x="21" y="576" on="0"/>
        <pt x="114" y="668" on="0"/>
        <pt x="180" y="668" on="1"/>
        <pt x="478" y="668" on="1"/>
      </contour>
    </TTGlyph>
    <TTGlyph name="parenleft" xMin="31" yMin="-133" xMax="284" yMax="752">
      <contour>
        <pt x="197" y="-133" on="1"/>
        <pt x="31" y="94" on="0"/>
        <pt x="31" y="525" on="0"/>
        <pt x="197" y="752" on="1"/>
        <pt x="284" y="692" on="1"/>
        <pt x="164" y="487" on="0"/>
        <pt x="164" y="129" on="0"/>
        <pt x="284" y="-73" on="1"/>
      </contour>
    </TTGlyph>
    <TTGlyph name="parenright" xMin="18" yMin="-133" xMax="271" yMax="752">
      <contour>
        <pt x="105" y="752" on="1"/>
        <pt x="271" y="525" on="0"/>
        <pt x="271" y="94" on="0"/>
        <pt x="105" y="-133" on="1"/>
        <pt x="18" y="-73" on="1"/>
        <pt x="138" y="129" on="0"/>
        <pt x="138" y="487" on="0"/>
        <pt x="18" y="692" on="1"/>
      </contour>
    </TTGlyph>
    <TTGlyph name="percent" xMin="44" yMin="-10" xMax="805" yMax="700">
      <contour>
        <pt x="310" y="0" on="1"/>
        <pt x="180" y="0" on="1"/>
        <pt x="533" y="691" on="1"/>
        <pt x="662" y="691" on="1"/>
      </contour>
      <contour>
        <pt x="122" y="323" on="0"/>
        <pt x="44" y="402" on="0"/>
        <pt x="44" y="510" on="1"/>
        <pt x="44" y="622" on="0"/>
        <pt x="96" y="664" on="1"/>
        <pt x="140" y="700" on="0"/>
        <pt x="268" y="700" on="0"/>
        <pt x="346" y="619" on="0"/>
        <pt x="346" y="511" on="1"/>
        <pt x="346" y="400" on="0"/>
        <pt x="294" y="358" on="1"/>
        <pt x="251" y="323" on="0"/>
      </contour>
      <contour>
        <pt x="223" y="633" on="0"/>
        <pt x="167" y="633" on="0"/>
        <pt x="138" y="580" on="0"/>
        <pt x="138" y="439" on="0"/>
        <pt x="167" y="389" on="0"/>
        <pt x="223" y="389" on="0"/>
        <pt x="252" y="440" on="0"/>
        <pt x="252" y="580" on="0"/>
      </contour>
      <contour>
        <pt x="581" y="-10" on="0"/>
        <pt x="503" y="69" on="0"/>
        <pt x="503" y="177" on="1"/>
        <pt x="503" y="289" on="0"/>
        <pt x="555" y="332" on="1"/>
        <pt x="599" y="367" on="0"/>
        <pt x="727" y="367" on="0"/>
        <pt x="805" y="286" on="0"/>
        <pt x="805" y="178" on="1"/>
        <pt x="805" y="67" on="0"/>
        <pt x="754" y="25" on="1"/>
        <pt x="710" y="-10" on="0"/>
      </contour>
      <contour>
        <pt x="682" y="300" on="0"/>
        <pt x="626" y="300" on="0"/>
        <pt x="597" y="247" on="0"/>
        <pt x="597" y="106" on="0"/>
        <pt x="626" y="56" on="0"/>
        <pt x="682" y="56" on="0"/>
        <pt x="711" y="107" on="0"/>
        <pt x="711" y="247" on="0"/>
      </contour>
    </TTGlyph>
    <TTGlyph name="period" xMin="39" yMin="-7" xMax="203" yMax="158">
      <contour>
        <pt x="39" y="110" on="0"/>
        <pt x="87" y="158" on="0"/>
        <pt x="155" y="158" on="0"/>
        <pt x="203" y="110" on="0"/>
        <pt x="203" y="43" on="0"/>
        <pt x="155" y="-7" on="0"/>
        <pt x="87" y="-7" on="0"/>
        <pt x="39" y="42" on="0"/>
      </contour>
    </TTGlyph>
    <TTGlyph name="periodcentered" xMin="42" yMin="180" xMax="206" yMax="345">
      <contour>
        <pt x="42" y="297" on="0"/>
        <pt x="90" y="345" on="0"/>
        <pt x="158" y="345" on="0"/>
        <pt x="206" y="297" on="0"/>
        <pt x="206" y="230" on="0"/>
        <pt x="158" y="180" on="0"/>
        <pt x="90" y="180" on="0"/>
        <pt x="42" y="229" on="0"/>
      </contour>
    </TTGlyph>
    <TTGlyph name="perthousand" xMin="23" yMin="-96" xMax="1135" yMax="784">
      <contour>
        <pt x="100" y="315" on="0"/>
        <pt x="23" y="395" on="0"/>
        <pt x="23" y="507" on="1"/>
        <pt x="23" y="623" on="0"/>
        <pt x="75" y="666" on="1"/>
        <pt x="118" y="702" on="0"/>
        <pt x="247" y="702" on="0"/>
        <pt x="325" y="620" on="0"/>
        <pt x="325" y="508" on="1"/>
        <pt x="325" y="393" on="0"/>
        <pt x="274" y="350" on="1"/>
        <pt x="231" y="315" on="0"/>
      </contour>
      <contour>
        <pt x="202" y="635" on="0"/>
        <pt x="146" y="635" on="0"/>
        <pt x="117" y="581" on="0"/>
        <pt x="117" y="433" on="0"/>
        <pt x="145" y="381" on="0"/>
        <pt x="202" y="381" on="0"/>
        <pt x="231" y="433" on="0"/>
        <pt x="231" y="580" on="0"/>
      </contour>
      <contour>
        <pt x="568" y="-12" on="0"/>
        <pt x="491" y="68" on="0"/>
        <pt x="491" y="180" on="1"/>
        <pt x="491" y="296" on="0"/>
        <pt x="543" y="339" on="1"/>
        <pt x="586" y="375" on="0"/>
        <pt x="715" y="375" on="0"/>
        <pt x="793" y="293" on="0"/>
        <pt x="793" y="181" on="1"/>
        <pt x="793" y="66" on="0"/>
        <pt x="742" y="24" on="1"/>
        <pt x="699" y="-12" on="0"/>
      </contour>
      <contour>
        <pt x="670" y="308" on="0"/>
        <pt x="614" y="308" on="0"/>
        <pt x="585" y="254" on="0"/>
        <pt x="585" y="106" on="0"/>
        <pt x="613" y="54" on="0"/>
        <pt x="670" y="54" on="0"/>
        <pt x="699" y="106" on="0"/>
        <pt x="699" y="253" on="0"/>
      </contour>
      <contour>
        <pt x="910" y="-12" on="0"/>
        <pt x="833" y="68" on="0"/>
        <pt x="833" y="180" on="1"/>
        <pt x="833" y="296" on="0"/>
        <pt x="885" y="339" on="1"/>
        <pt x="928" y="375" on="0"/>
        <pt x="1057" y="375" on="0"/>
        <pt x="1135" y="293" on="0"/>
        <pt x="1135" y="181" on="1"/>
        <pt x="1135" y="66" on="0"/>
        <pt x="1084" y="24" on="1"/>
        <pt x="1041" y="-12" on="0"/>
      </contour>
      <contour>
        <pt x="1012" y="308" on="0"/>
        <pt x="956" y="308" on="0"/>
        <pt x="927" y="254" on="0"/>
        <pt x="927" y="106" on="0"/>
        <pt x="955" y="54" on="0"/>
        <pt x="1012" y="54" on="0"/>
        <pt x="1041" y="106" on="0"/>
        <pt x="1041" y="253" on="0"/>
      </contour>
      <contour>
        <pt x="592" y="753" on="1"/>
        <pt x="309" y="-96" on="1"/>
        <pt x="202" y="-67" on="1"/>
        <pt x="487" y="784" on="1"/>
      </contour>
    </TTGlyph>
    <TTGlyph name="plus" xMin="37" yMin="77" xMax="446" yMax="478">
      <contour>
        <pt x="297" y="77" on="1"/>
        <pt x="186" y="77" on="1"/>
        <pt x="186" y="223" on="1"/>
        <pt x="37" y="223" on="1"/>
        <pt x="37" y="333" on="1"/>
        <pt x="186" y="333" on="1"/>
        <pt x="186" y="478" on="1"/>
        <pt x="297" y="478" on="1"/>
        <pt x="297" y="333" on="1"/>
        <pt x="446" y="333" on="1"/>
        <pt x="446" y="223" on="1"/>
        <pt x="297" y="223" on="1"/>
      </contour>
    </TTGlyph>
    <TTGlyph name="plus.001" xMin="35" yMin="77" xMax="444" yMax="478">
      <contour>
        <pt x="295" y="77" on="1"/>
        <pt x="184" y="77" on="1"/>
        <pt x="184" y="223" on="1"/>
        <pt x="35" y="223" on="1"/>
        <pt x="35" y="333" on="1"/>
        <pt x="184" y="333" on="1"/>
        <pt x="184" y="478" on="1"/>
        <pt x="295" y="478" on="1"/>
        <pt x="295" y="333" on="1"/>
        <pt x="444" y="333" on="1"/>
        <pt x="444" y="223" on="1"/>
        <pt x="295" y="223" on="1"/>
      </contour>
    </TTGlyph>
    <TTGlyph name="plusminus" xMin="51" yMin="1" xMax="460" yMax="588">
      <contour>
        <pt x="311" y="187" on="1"/>
        <pt x="200" y="187" on="1"/>
        <pt x="200" y="333" on="1"/>
        <pt x="51" y="333" on="1"/>
        <pt x="51" y="443" on="1"/>
        <pt x="200" y="443" on="1"/>
        <pt x="200" y="588" on="1"/>
        <pt x="311" y="588" on="1"/>
        <pt x="311" y="443" on="1"/>
        <pt x="460" y="443" on="1"/>
        <pt x="460" y="333" on="1"/>
        <pt x="311" y="333" on="1"/>
      </contour>
      <contour>
        <pt x="459" y="110" on="1"/>
        <pt x="459" y="1" on="1"/>
        <pt x="52" y="1" on="1"/>
        <pt x="52" y="110" on="1"/>
      </contour>
    </TTGlyph>
    <TTGlyph name="q" xMin="33" yMin="-222" xMax="489" yMax="522">
      <contour>
        <pt x="349" y="19" on="1"/>
        <pt x="298" y="-13" on="0"/>
        <pt x="139" y="-13" on="0"/>
        <pt x="33" y="112" on="0"/>
        <pt x="33" y="228" on="1"/>
        <pt x="33" y="522" on="0"/>
        <pt x="288" y="522" on="1"/>
        <pt x="342" y="522" on="0"/>
        <pt x="458" y="500" on="0"/>
        <pt x="489" y="484" on="1"/>
        <pt x="489" y="-222" on="1"/>
        <pt x="349" y="-213" on="1"/>
      </contour>
      <contour>
        <pt x="292" y="409" on="1"/>
        <pt x="226" y="409" on="0"/>
        <pt x="174" y="325" on="0"/>
        <pt x="174" y="165" on="0"/>
        <pt x="217" y="100" on="0"/>
        <pt x="303" y="100" on="0"/>
        <pt x="349" y="120" on="1"/>
        <pt x="349" y="401" on="1"/>
        <pt x="323" y="409" on="0"/>
      </contour>
    </TTGlyph>
    <TTGlyph name="question" xMin="42" yMin="-29" xMax="343" yMax="700">
      <contour>
        <pt x="152" y="128" on="0"/>
        <pt x="198" y="82" on="0"/>
        <pt x="198" y="18" on="0"/>
        <pt x="153" y="-29" on="0"/>
        <pt x="88" y="-29" on="0"/>
        <pt x="42" y="18" on="0"/>
        <pt x="42" y="83" on="0"/>
        <pt x="88" y="128" on="0"/>
      </contour>
      <contour>
        <pt x="176" y="238" on="1"/>
        <pt x="174" y="184" on="1"/>
        <pt x="60" y="184" on="1"/>
        <pt x="57" y="220" on="0"/>
        <pt x="57" y="251" on="1"/>
        <pt x="61" y="284" on="0"/>
        <pt x="94" y="348" on="0"/>
        <pt x="124" y="383" on="0"/>
        <pt x="170" y="426" on="0"/>
        <pt x="180" y="436" on="1"/>
        <pt x="214" y="470" on="0"/>
        <pt x="214" y="510" on="1"/>
        <pt x="214" y="593" on="0"/>
        <pt x="50" y="608" on="1"/>
        <pt x="75" y="700" on="1"/>
        <pt x="200" y="694" on="0"/>
        <pt x="343" y="591" on="0"/>
        <pt x="343" y="518" on="1"/>
        <pt x="343" y="477" on="0"/>
        <pt x="311" y="418" on="0"/>
        <pt x="284" y="391" on="0"/>
        <pt x="235" y="348" on="0"/>
        <pt x="207" y="319" on="0"/>
        <pt x="179" y="267" on="0"/>
      </contour>
    </TTGlyph>
    <TTGlyph name="questiondown" xMin="21" yMin="-204" xMax="323" yMax="528">
      <contour>
        <pt x="323" y="416" on="0"/>
        <pt x="277" y="371" on="0"/>
        <pt x="212" y="371" on="0"/>
        <pt x="167" y="416" on="0"/>
        <pt x="167" y="481" on="0"/>
        <pt x="212" y="528" on="0"/>
        <pt x="277" y="528" on="0"/>
        <pt x="323" y="481" on="0"/>
      </contour>
      <contour>
        <pt x="188" y="258" on="1"/>
        <pt x="190" y="312" on="1"/>
        <pt x="304" y="312" on="1"/>
        <pt x="307" y="276" on="0"/>
        <pt x="307" y="245" on="1"/>
        <pt x="303" y="212" on="0"/>
        <pt x="270" y="148" on="0"/>
        <pt x="240" y="113" on="0"/>
        <pt x="194" y="70" on="0"/>
        <pt x="184" y="60" on="1"/>
        <pt x="150" y="26" on="0"/>
        <pt x="150" y="-14" on="1"/>
        <pt x="150" y="-97" on="0"/>
        <pt x="314" y="-112" on="1"/>
        <pt x="289" y="-204" on="1"/>
        <pt x="164" y="-198" on="0"/>
        <pt x="21" y="-95" on="0"/>
        <pt x="21" y="-22" on="1"/>
        <pt x="21" y="19" on="0"/>
        <pt x="53" y="78" on="0"/>
        <pt x="80" y="105" on="0"/>
        <pt x="129" y="148" on="0"/>
        <pt x="157" y="177" on="0"/>
        <pt x="185" y="229" on="0"/>
      </contour>
    </TTGlyph>
    <TTGlyph name="quotedbl" xMin="40" yMin="449" xMax="349" yMax="700">
      <contour>
        <pt x="40" y="700" on="1"/>
        <pt x="166" y="700" on="1"/>
        <pt x="148" y="449" on="1"/>
        <pt x="58" y="449" on="1"/>
      </contour>
      <contour>
        <pt x="223" y="700" on="1"/>
        <pt x="349" y="700" on="1"/>
        <pt x="331" y="449" on="1"/>
        <pt x="241" y="449" on="1"/>
      </contour>
    </TTGlyph>
    <TTGlyph name="quotedblbase" xMin="-20" yMin="-128" xMax="362" yMax="116">
      <contour>
        <pt x="172" y="59" on="1"/>
        <pt x="172" y="-46" on="0"/>
        <pt x="83" y="-128" on="1"/>
        <pt x="-20" y="-128" on="1"/>
        <pt x="62" y="-33" on="0"/>
        <pt x="62" y="44" on="1"/>
        <pt x="62" y="77" on="0"/>
        <pt x="45" y="116" on="1"/>
        <pt x="160" y="116" on="1"/>
        <pt x="172" y="90" on="0"/>
      </contour>
      <contour>
        <pt x="362" y="59" on="1"/>
        <pt x="362" y="-46" on="0"/>
        <pt x="273" y="-128" on="1"/>
        <pt x="170" y="-128" on="1"/>
        <pt x="252" y="-33" on="0"/>
        <pt x="252" y="44" on="1"/>
        <pt x="252" y="77" on="0"/>
        <pt x="235" y="116" on="1"/>
        <pt x="350" y="116" on="1"/>
        <pt x="362" y="90" on="0"/>
      </contour>
    </TTGlyph>
    <TTGlyph name="quotedblleft" xMin="41" yMin="476" xMax="423" yMax="720">
      <contour>
        <pt x="41" y="533" on="1"/>
        <pt x="41" y="638" on="0"/>
        <pt x="130" y="720" on="1"/>
        <pt x="233" y="720" on="1"/>
        <pt x="151" y="625" on="0"/>
        <pt x="151" y="548" on="1"/>
        <pt x="151" y="515" on="0"/>
        <pt x="168" y="476" on="1"/>
        <pt x="53" y="476" on="1"/>
        <pt x="41" y="502" on="0"/>
      </contour>
      <contour>
        <pt x="231" y="533" on="1"/>
        <pt x="231" y="638" on="0"/>
        <pt x="320" y="720" on="1"/>
        <pt x="423" y="720" on="1"/>
        <pt x="341" y="625" on="0"/>
        <pt x="341" y="548" on="1"/>
        <pt x="341" y="515" on="0"/>
        <pt x="358" y="476" on="1"/>
        <pt x="243" y="476" on="1"/>
        <pt x="231" y="502" on="0"/>
      </contour>
    </TTGlyph>
    <TTGlyph name="quotedblright" xMin="32" yMin="455" xMax="414" yMax="699">
      <contour>
        <pt x="414" y="642" on="1"/>
        <pt x="414" y="537" on="0"/>
        <pt x="325" y="455" on="1"/>
        <pt x="222" y="455" on="1"/>
        <pt x="304" y="550" on="0"/>
        <pt x="304" y="627" on="1"/>
        <pt x="304" y="660" on="0"/>
        <pt x="287" y="699" on="1"/>
        <pt x="402" y="699" on="1"/>
        <pt x="414" y="673" on="0"/>
      </contour>
      <contour>
        <pt x="224" y="642" on="1"/>
        <pt x="224" y="537" on="0"/>
        <pt x="135" y="455" on="1"/>
        <pt x="32" y="455" on="1"/>
        <pt x="114" y="550" on="0"/>
        <pt x="114" y="627" on="1"/>
        <pt x="114" y="660" on="0"/>
        <pt x="97" y="699" on="1"/>
        <pt x="212" y="699" on="1"/>
        <pt x="224" y="673" on="0"/>
      </contour>
    </TTGlyph>
    <TTGlyph name="quoteleft" xMin="41" yMin="476" xMax="233" yMax="720">
      <contour>
        <pt x="41" y="533" on="1"/>
        <pt x="41" y="638" on="0"/>
        <pt x="130" y="720" on="1"/>
        <pt x="233" y="720" on="1"/>
        <pt x="151" y="625" on="0"/>
        <pt x="151" y="548" on="1"/>
        <pt x="151" y="515" on="0"/>
        <pt x="168" y="476" on="1"/>
        <pt x="53" y="476" on="1"/>
        <pt x="41" y="502" on="0"/>
      </contour>
    </TTGlyph>
    <TTGlyph name="quoteright" xMin="32" yMin="455" xMax="224" yMax="699">
      <contour>
        <pt x="224" y="642" on="1"/>
        <pt x="224" y="537" on="0"/>
        <pt x="135" y="455" on="1"/>
        <pt x="32" y="455" on="1"/>
        <pt x="114" y="550" on="0"/>
        <pt x="114" y="627" on="1"/>
        <pt x="114" y="660" on="0"/>
        <pt x="97" y="699" on="1"/>
        <pt x="212" y="699" on="1"/>
        <pt x="224" y="673" on="0"/>
      </contour>
    </TTGlyph>
    <TTGlyph name="quotesinglbase" xMin="-20" yMin="-128" xMax="172" yMax="116">
      <contour>
        <pt x="172" y="59" on="1"/>
        <pt x="172" y="-46" on="0"/>
        <pt x="83" y="-128" on="1"/>
        <pt x="-20" y="-128" on="1"/>
        <pt x="62" y="-33" on="0"/>
        <pt x="62" y="44" on="1"/>
        <pt x="62" y="77" on="0"/>
        <pt x="45" y="116" on="1"/>
        <pt x="160" y="116" on="1"/>
        <pt x="172" y="90" on="0"/>
      </contour>
    </TTGlyph>
    <TTGlyph name="quotesingle" xMin="40" yMin="449" xMax="166" yMax="700">
      <contour>
        <pt x="40" y="700" on="1"/>
        <pt x="166" y="700" on="1"/>
        <pt x="148" y="449" on="1"/>
        <pt x="58" y="449" on="1"/>
      </contour>
    </TTGlyph>
    <TTGlyph name="r" xMin="53" yMin="0" xMax="374" yMax="524">
      <contour>
        <pt x="308" y="410" on="1"/>
        <pt x="226" y="410" on="0"/>
        <pt x="193" y="363" on="1"/>
        <pt x="193" y="0" on="1"/>
        <pt x="53" y="0" on="1"/>
        <pt x="53" y="513" on="1"/>
        <pt x="169" y="513" on="1"/>
        <pt x="180" y="448" on="1"/>
        <pt x="238" y="524" on="0"/>
        <pt x="328" y="524" on="1"/>
        <pt x="353" y="524" on="0"/>
        <pt x="374" y="519" on="1"/>
        <pt x="351" y="404" on="1"/>
        <pt x="329" y="410" on="0"/>
      </contour>
    </TTGlyph>
    <TTGlyph name="registered" xMin="38" yMin="-18" xMax="678" yMax="622">
      <contour>
        <pt x="678" y="436" on="0"/>
        <pt x="678" y="168" on="0"/>
        <pt x="492" y="-18" on="0"/>
        <pt x="224" y="-18" on="0"/>
        <pt x="38" y="168" on="0"/>
        <pt x="38" y="436" on="0"/>
        <pt x="224" y="622" on="0"/>
        <pt x="492" y="622" on="0"/>
      </contour>
      <contour>
        <pt x="603" y="192" on="0"/>
        <pt x="603" y="412" on="0"/>
        <pt x="464" y="555" on="0"/>
        <pt x="252" y="555" on="0"/>
        <pt x="112" y="410" on="0"/>
        <pt x="112" y="190" on="0"/>
        <pt x="252" y="45" on="0"/>
        <pt x="464" y="45" on="0"/>
      </contour>
      <contour>
        <pt x="331" y="497" on="1"/>
        <pt x="482" y="497" on="0"/>
        <pt x="482" y="381" on="1"/>
        <pt x="482" y="319" on="0"/>
        <pt x="445" y="289" on="1"/>
        <pt x="430" y="276" on="0"/>
        <pt x="412" y="270" on="1"/>
        <pt x="415" y="264" on="0"/>
        <pt x="494" y="160" on="0"/>
        <pt x="515" y="136" on="1"/>
        <pt x="473" y="105" on="1"/>
        <pt x="411" y="172" on="0"/>
        <pt x="354" y="260" on="1"/>
        <pt x="328" y="258" on="0"/>
        <pt x="315" y="258" on="1"/>
        <pt x="294" y="258" on="1"/>
        <pt x="294" y="111" on="1"/>
        <pt x="235" y="111" on="1"/>
        <pt x="235" y="497" on="1"/>
      </contour>
      <contour>
        <pt x="396" y="321" on="1"/>
        <pt x="420" y="338" on="0"/>
        <pt x="420" y="421" on="0"/>
        <pt x="372" y="452" on="0"/>
        <pt x="323" y="452" on="1"/>
        <pt x="294" y="452" on="1"/>
        <pt x="294" y="305" on="1"/>
        <pt x="314" y="305" on="1"/>
        <pt x="377" y="305" on="0"/>
      </contour>
    </TTGlyph>
    <TTGlyph name="ring" xMin="42" yMin="597" xMax="248" yMax="802">
      <contour>
        <pt x="248" y="744" on="0"/>
        <pt x="248" y="658" on="0"/>
        <pt x="194" y="597" on="0"/>
        <pt x="94" y="597" on="0"/>
        <pt x="42" y="657" on="0"/>
        <pt x="42" y="743" on="0"/>
        <pt x="95" y="802" on="0"/>
        <pt x="195" y="802" on="0"/>
      </contour>
      <contour>
        <pt x="145" y="660" on="1"/>
        <pt x="181" y="660" on="0"/>
        <pt x="181" y="738" on="0"/>
        <pt x="110" y="738" on="0"/>
        <pt x="110" y="699" on="1"/>
        <pt x="110" y="683" on="0"/>
        <pt x="127" y="660" on="0"/>
      </contour>
    </TTGlyph>
    <TTGlyph name="s" xMin="23" yMin="-13" xMax="391" yMax="523">
      <contour>
        <pt x="237" y="414" on="1"/>
        <pt x="169" y="414" on="0"/>
        <pt x="169" y="369" on="1"/>
        <pt x="169" y="345" on="0"/>
        <pt x="215" y="311" on="0"/>
        <pt x="280" y="286" on="0"/>
        <pt x="345" y="255" on="0"/>
        <pt x="391" y="197" on="0"/>
        <pt x="391" y="155" on="1"/>
        <pt x="391" y="80" on="0"/>
        <pt x="289" y="-13" on="0"/>
        <pt x="190" y="-13" on="1"/>
        <pt x="145" y="-13" on="0"/>
        <pt x="46" y="7" on="0"/>
        <pt x="23" y="20" on="1"/>
        <pt x="57" y="120" on="1"/>
        <pt x="135" y="94" on="0"/>
        <pt x="260" y="94" on="0"/>
        <pt x="260" y="143" on="1"/>
        <pt x="260" y="164" on="0"/>
        <pt x="214" y="198" on="0"/>
        <pt x="149" y="227" on="0"/>
        <pt x="84" y="261" on="0"/>
        <pt x="38" y="323" on="0"/>
        <pt x="38" y="364" on="1"/>
        <pt x="38" y="441" on="0"/>
        <pt x="140" y="523" on="0"/>
        <pt x="330" y="523" on="0"/>
        <pt x="384" y="492" on="1"/>
        <pt x="351" y="393" on="1"/>
        <pt x="282" y="414" on="0"/>
      </contour>
    </TTGlyph>
    <TTGlyph name="scaron" xMin="23" yMin="-13" xMax="391" yMax="743">
      <contour>
        <pt x="132" y="743" on="1"/>
        <pt x="216" y="658" on="1"/>
        <pt x="300" y="743" on="1"/>
        <pt x="364" y="691" on="1"/>
        <pt x="253" y="572" on="1"/>
        <pt x="179" y="572" on="1"/>
        <pt x="68" y="691" on="1"/>
      </contour>
      <contour>
        <pt x="237" y="414" on="1"/>
        <pt x="169" y="414" on="0"/>
        <pt x="169" y="369" on="1"/>
        <pt x="169" y="345" on="0"/>
        <pt x="215" y="311" on="0"/>
        <pt x="280" y="286" on="0"/>
        <pt x="345" y="255" on="0"/>
        <pt x="391" y="197" on="0"/>
        <pt x="391" y="155" on="1"/>
        <pt x="391" y="80" on="0"/>
        <pt x="289" y="-13" on="0"/>
        <pt x="190" y="-13" on="1"/>
        <pt x="145" y="-13" on="0"/>
        <pt x="46" y="7" on="0"/>
        <pt x="23" y="20" on="1"/>
        <pt x="57" y="120" on="1"/>
        <pt x="135" y="94" on="0"/>
        <pt x="260" y="94" on="0"/>
        <pt x="260" y="143" on="1"/>
        <pt x="260" y="164" on="0"/>
        <pt x="214" y="198" on="0"/>
        <pt x="149" y="227" on="0"/>
        <pt x="84" y="261" on="0"/>
        <pt x="38" y="323" on="0"/>
        <pt x="38" y="364" on="1"/>
        <pt x="38" y="441" on="0"/>
        <pt x="140" y="523" on="0"/>
        <pt x="330" y="523" on="0"/>
        <pt x="384" y="492" on="1"/>
        <pt x="351" y="393" on="1"/>
        <pt x="282" y="414" on="0"/>
      </contour>
    </TTGlyph>
    <TTGlyph name="section" xMin="24" yMin="-214" xMax="356" yMax="686">
      <contour>
        <pt x="102" y="427" on="1"/>
        <pt x="88" y="469" on="0"/>
        <pt x="88" y="500" on="1"/>
        <pt x="88" y="623" on="0"/>
        <pt x="214" y="669" on="1"/>
        <pt x="230" y="675" on="0"/>
        <pt x="277" y="686" on="1"/>
        <pt x="300" y="587" on="1"/>
        <pt x="254" y="571" on="1"/>
        <pt x="199" y="551" on="0"/>
        <pt x="199" y="510" on="1"/>
        <pt x="199" y="478" on="0"/>
        <pt x="327" y="288" on="0"/>
        <pt x="356" y="221" on="0"/>
        <pt x="356" y="185" on="1"/>
        <pt x="356" y="93" on="0"/>
        <pt x="276" y="43" on="1"/>
        <pt x="292" y="11" on="0"/>
        <pt x="292" y="-73" on="0"/>
        <pt x="261" y="-135" on="0"/>
        <pt x="232" y="-160" on="1"/>
        <pt x="179" y="-204" on="0"/>
        <pt x="102" y="-214" on="1"/>
        <pt x="79" y="-117" on="1"/>
        <pt x="126" y="-102" on="1"/>
        <pt x="180" y="-83" on="0"/>
        <pt x="180" y="-41" on="1"/>
        <pt x="180" y="-23" on="0"/>
        <pt x="172" y="-10" on="1"/>
        <pt x="158" y="24" on="0"/>
        <pt x="136" y="56" on="0"/>
        <pt x="113" y="92" on="0"/>
        <pt x="100" y="112" on="0"/>
        <pt x="84" y="135" on="1"/>
        <pt x="57" y="174" on="0"/>
        <pt x="24" y="245" on="0"/>
        <pt x="24" y="287" on="1"/>
        <pt x="24" y="375" on="0"/>
      </contour>
      <contour>
        <pt x="226" y="128" on="1"/>
        <pt x="244" y="148" on="0"/>
        <pt x="244" y="187" on="0"/>
        <pt x="223" y="242" on="0"/>
        <pt x="153" y="340" on="1"/>
        <pt x="136" y="324" on="0"/>
        <pt x="136" y="279" on="0"/>
        <pt x="159" y="223" on="0"/>
        <pt x="211" y="149" on="1"/>
      </contour>
    </TTGlyph>
    <TTGlyph name="semicolon" xMin="2" yMin="-128" xMax="208" yMax="452">
      <contour>
        <pt x="194" y="59" on="1"/>
        <pt x="194" y="-46" on="0"/>
        <pt x="105" y="-128" on="1"/>
        <pt x="2" y="-128" on="1"/>
        <pt x="84" y="-33" on="0"/>
        <pt x="84" y="44" on="1"/>
        <pt x="84" y="77" on="0"/>
        <pt x="67" y="116" on="1"/>
        <pt x="182" y="116" on="1"/>
        <pt x="194" y="90" on="0"/>
      </contour>
      <contour>
        <pt x="44" y="404" on="0"/>
        <pt x="92" y="452" on="0"/>
        <pt x="160" y="452" on="0"/>
        <pt x="208" y="404" on="0"/>
        <pt x="208" y="337" on="0"/>
        <pt x="160" y="287" on="0"/>
        <pt x="92" y="287" on="0"/>
        <pt x="44" y="336" on="0"/>
      </contour>
    </TTGlyph>
    <TTGlyph name="seven" xMin="22" yMin="0" xMax="421" yMax="669">
      <contour>
        <pt x="22" y="554" on="1"/>
        <pt x="22" y="669" on="1"/>
        <pt x="421" y="669" on="1"/>
        <pt x="421" y="597" on="1"/>
        <pt x="313" y="338" on="1"/>
        <pt x="239" y="176" on="0"/>
        <pt x="213" y="0" on="1"/>
        <pt x="82" y="0" on="1"/>
        <pt x="103" y="169" on="0"/>
        <pt x="178" y="340" on="1"/>
        <pt x="180" y="344" on="0"/>
        <pt x="274" y="554" on="1"/>
      </contour>
    </TTGlyph>
    <TTGlyph name="six" xMin="41" yMin="-12" xMax="467" yMax="680">
      <contour>
        <pt x="253" y="-12" on="1"/>
        <pt x="41" y="-12" on="0"/>
        <pt x="41" y="283" on="1"/>
        <pt x="41" y="474" on="0"/>
        <pt x="191" y="680" on="0"/>
        <pt x="314" y="680" on="1"/>
        <pt x="377" y="680" on="0"/>
        <pt x="439" y="652" on="1"/>
        <pt x="408" y="545" on="1"/>
        <pt x="373" y="558" on="0"/>
        <pt x="274" y="558" on="0"/>
        <pt x="204" y="488" on="0"/>
        <pt x="191" y="413" on="1"/>
        <pt x="211" y="431" on="0"/>
        <pt x="266" y="449" on="0"/>
        <pt x="285" y="449" on="1"/>
        <pt x="369" y="449" on="0"/>
        <pt x="467" y="341" on="0"/>
        <pt x="467" y="128" on="0"/>
        <pt x="357" y="-12" on="0"/>
      </contour>
      <contour>
        <pt x="180" y="194" on="0"/>
        <pt x="218" y="104" on="0"/>
        <pt x="293" y="104" on="0"/>
        <pt x="333" y="171" on="0"/>
        <pt x="333" y="283" on="0"/>
        <pt x="294" y="333" on="0"/>
        <pt x="219" y="334" on="0"/>
        <pt x="180" y="311" on="1"/>
      </contour>
    </TTGlyph>
    <TTGlyph name="slash" xMin="18" yMin="-118" xMax="408" yMax="762">
      <contour>
        <pt x="408" y="731" on="1"/>
        <pt x="125" y="-118" on="1"/>
        <pt x="18" y="-89" on="1"/>
        <pt x="303" y="762" on="1"/>
      </contour>
    </TTGlyph>
    <TTGlyph name="sterling" xMin="36" yMin="0" xMax="461" yMax="683">
      <contour>
        <pt x="36" y="304" on="1"/>
        <pt x="36" y="404" on="1"/>
        <pt x="92" y="404" on="1"/>
        <pt x="80" y="440" on="0"/>
        <pt x="80" y="491" on="1"/>
        <pt x="80" y="583" on="0"/>
        <pt x="187" y="683" on="0"/>
        <pt x="358" y="683" on="0"/>
        <pt x="449" y="641" on="1"/>
        <pt x="411" y="541" on="1"/>
        <pt x="333" y="573" on="0"/>
        <pt x="244" y="573" on="0"/>
        <pt x="202" y="532" on="0"/>
        <pt x="202" y="451" on="0"/>
        <pt x="217" y="404" on="1"/>
        <pt x="349" y="404" on="1"/>
        <pt x="355" y="304" on="1"/>
        <pt x="247" y="304" on="1"/>
        <pt x="252" y="279" on="0"/>
        <pt x="252" y="244" on="1"/>
        <pt x="252" y="176" on="0"/>
        <pt x="220" y="115" on="1"/>
        <pt x="461" y="115" on="1"/>
        <pt x="461" y="0" on="1"/>
        <pt x="62" y="0" on="1"/>
        <pt x="62" y="100" on="1"/>
        <pt x="94" y="116" on="0"/>
        <pt x="132" y="204" on="0"/>
        <pt x="132" y="283" on="0"/>
        <pt x="124" y="304" on="1"/>
      </contour>
    </TTGlyph>
    <TTGlyph name="t" xMin="15" yMin="-13" xMax="394" yMax="641">
      <contour>
        <pt x="105" y="165" on="1"/>
        <pt x="105" y="416" on="1"/>
        <pt x="15" y="422" on="1"/>
        <pt x="15" y="504" on="1"/>
        <pt x="108" y="512" on="1"/>
        <pt x="108" y="629" on="1"/>
        <pt x="248" y="641" on="1"/>
        <pt x="248" y="513" on="1"/>
        <pt x="394" y="513" on="1"/>
        <pt x="386" y="416" on="1"/>
        <pt x="247" y="416" on="1"/>
        <pt x="247" y="152" on="1"/>
        <pt x="247" y="123" on="0"/>
        <pt x="265" y="98" on="0"/>
        <pt x="323" y="98" on="0"/>
        <pt x="359" y="107" on="1"/>
        <pt x="380" y="8" on="1"/>
        <pt x="331" y="-13" on="0"/>
        <pt x="230" y="-13" on="0"/>
        <pt x="179" y="-1" on="0"/>
        <pt x="146" y="15" on="0"/>
        <pt x="123" y="46" on="0"/>
        <pt x="112" y="70" on="0"/>
        <pt x="109" y="92" on="1"/>
        <pt x="105" y="122" on="0"/>
      </contour>
    </TTGlyph>
    <TTGlyph name="thorn" xMin="53" yMin="-212" xMax="509" yMax="701">
      <contour>
        <pt x="193" y="-212" on="1"/>
        <pt x="53" y="-212" on="1"/>
        <pt x="53" y="701" on="1"/>
        <pt x="193" y="701" on="1"/>
        <pt x="193" y="480" on="1"/>
        <pt x="214" y="497" on="0"/>
        <pt x="285" y="522" on="0"/>
        <pt x="321" y="522" on="1"/>
        <pt x="403" y="522" on="0"/>
        <pt x="509" y="397" on="0"/>
        <pt x="509" y="281" on="1"/>
        <pt x="509" y="-13" on="0"/>
        <pt x="269" y="-13" on="1"/>
        <pt x="230" y="-13" on="0"/>
        <pt x="193" y="3" on="1"/>
      </contour>
      <contour>
        <pt x="245" y="100" on="1"/>
        <pt x="314" y="100" on="0"/>
        <pt x="368" y="184" on="0"/>
        <pt x="368" y="344" on="0"/>
        <pt x="325" y="408" on="0"/>
        <pt x="237" y="408" on="0"/>
        <pt x="193" y="381" on="1"/>
        <pt x="193" y="105" on="1"/>
        <pt x="220" y="100" on="0"/>
      </contour>
    </TTGlyph>
    <TTGlyph name="three" xMin="27" yMin="-13" xMax="452" yMax="680">
      <contour>
        <pt x="286" y="489" on="1"/>
        <pt x="286" y="524" on="0"/>
        <pt x="237" y="558" on="0"/>
        <pt x="140" y="558" on="0"/>
        <pt x="66" y="528" on="1"/>
        <pt x="34" y="635" on="1"/>
        <pt x="132" y="680" on="0"/>
        <pt x="316" y="680" on="0"/>
        <pt x="420" y="585" on="0"/>
        <pt x="420" y="505" on="1"/>
        <pt x="420" y="465" on="0"/>
        <pt x="383" y="389" on="0"/>
        <pt x="345" y="365" on="1"/>
        <pt x="452" y="319" on="0"/>
        <pt x="452" y="106" on="0"/>
        <pt x="325" y="-13" on="0"/>
        <pt x="215" y="-13" on="1"/>
        <pt x="134" y="-13" on="0"/>
        <pt x="27" y="25" on="1"/>
        <pt x="57" y="136" on="1"/>
        <pt x="147" y="104" on="0"/>
        <pt x="204" y="104" on="1"/>
        <pt x="318" y="104" on="0"/>
        <pt x="318" y="207" on="1"/>
        <pt x="318" y="253" on="0"/>
        <pt x="256" y="307" on="0"/>
        <pt x="196" y="307" on="1"/>
        <pt x="127" y="307" on="1"/>
        <pt x="127" y="408" on="1"/>
        <pt x="186" y="408" on="1"/>
        <pt x="286" y="408" on="0"/>
      </contour>
    </TTGlyph>
    <TTGlyph name="threequarters" xMin="25" yMin="-97" xMax="853" yMax="783">
      <contour>
        <pt x="138" y="460" on="1"/>
        <pt x="93" y="460" on="1"/>
        <pt x="93" y="530" on="1"/>
        <pt x="137" y="530" on="1"/>
        <pt x="184" y="530" on="0"/>
        <pt x="184" y="578" on="1"/>
        <pt x="184" y="612" on="0"/>
        <pt x="102" y="612" on="0"/>
        <pt x="64" y="593" on="1"/>
        <pt x="38" y="664" on="1"/>
        <pt x="102" y="696" on="0"/>
        <pt x="213" y="696" on="0"/>
        <pt x="280" y="636" on="0"/>
        <pt x="280" y="537" on="0"/>
        <pt x="245" y="504" on="1"/>
        <pt x="294" y="474" on="0"/>
        <pt x="294" y="343" on="0"/>
        <pt x="216" y="265" on="0"/>
        <pt x="92" y="265" on="0"/>
        <pt x="25" y="307" on="1"/>
        <pt x="60" y="381" on="1"/>
        <pt x="111" y="350" on="0"/>
        <pt x="151" y="350" on="1"/>
        <pt x="173" y="350" on="0"/>
        <pt x="200" y="379" on="0"/>
        <pt x="200" y="429" on="0"/>
        <pt x="167" y="460" on="0"/>
      </contour>
      <contour>
        <pt x="853" y="109" on="1"/>
        <pt x="790" y="109" on="1"/>
        <pt x="790" y="0" on="1"/>
        <pt x="695" y="0" on="1"/>
        <pt x="695" y="109" on="1"/>
        <pt x="531" y="109" on="1"/>
        <pt x="531" y="164" on="1"/>
        <pt x="671" y="408" on="1"/>
        <pt x="790" y="408" on="1"/>
        <pt x="790" y="181" on="1"/>
        <pt x="853" y="181" on="1"/>
      </contour>
      <contour>
        <pt x="695" y="181" on="1"/>
        <pt x="695" y="305" on="1"/>
        <pt x="629" y="181" on="1"/>
      </contour>
      <contour>
        <pt x="629" y="752" on="1"/>
        <pt x="346" y="-97" on="1"/>
        <pt x="239" y="-68" on="1"/>
        <pt x="524" y="783" on="1"/>
      </contour>
    </TTGlyph>
    <TTGlyph name="threesuperior" xMin="35" yMin="249" xMax="304" yMax="680">
      <contour>
        <pt x="152" y="444" on="1"/>
        <pt x="103" y="444" on="1"/>
        <pt x="103" y="514" on="1"/>
        <pt x="151" y="514" on="1"/>
        <pt x="194" y="514" on="0"/>
        <pt x="194" y="562" on="1"/>
        <pt x="194" y="596" on="0"/>
        <pt x="112" y="596" on="0"/>
        <pt x="74" y="577" on="1"/>
        <pt x="48" y="648" on="1"/>
        <pt x="112" y="680" on="0"/>
        <pt x="223" y="680" on="0"/>
        <pt x="290" y="620" on="0"/>
        <pt x="290" y="521" on="0"/>
        <pt x="255" y="488" on="1"/>
        <pt x="304" y="458" on="0"/>
        <pt x="304" y="327" on="0"/>
        <pt x="226" y="249" on="0"/>
        <pt x="102" y="249" on="0"/>
        <pt x="35" y="291" on="1"/>
        <pt x="70" y="365" on="1"/>
        <pt x="121" y="334" on="0"/>
        <pt x="161" y="334" on="1"/>
        <pt x="183" y="334" on="0"/>
        <pt x="210" y="363" on="0"/>
        <pt x="210" y="388" on="1"/>
        <pt x="210" y="444" on="0"/>
      </contour>
    </TTGlyph>
    <TTGlyph name="tilde" xMin="66" yMin="591" xMax="411" yMax="728">
      <contour>
        <pt x="198" y="728" on="0"/>
        <pt x="288" y="685" on="0"/>
        <pt x="333" y="685" on="0"/>
        <pt x="362" y="720" on="1"/>
        <pt x="411" y="666" on="1"/>
        <pt x="393" y="636" on="0"/>
        <pt x="332" y="591" on="0"/>
        <pt x="277" y="591" on="0"/>
        <pt x="189" y="634" on="0"/>
        <pt x="144" y="634" on="0"/>
        <pt x="115" y="599" on="1"/>
        <pt x="66" y="653" on="1"/>
        <pt x="84" y="683" on="0"/>
        <pt x="143" y="728" on="0"/>
      </contour>
    </TTGlyph>
</ttFont>
